<svg  viewBox="0 0 35 15"  xmlns="http://www.w3.org/2000/svg">
<path d="M0.396702 8.52264L0.397923 8.52376L7.46324 14.6566C7.99255 15.116 8.84867 15.1143 9.37554 14.6526C9.90234 14.1909 9.90031 13.4442 9.37101 12.9847L4.62735 8.86719L33.2633 8.86719C34.0101 8.86719 34.6155 8.33918 34.6155 7.68781C34.6155 7.03643 34.0101 6.50842 33.2633 6.50842L4.62742 6.50842L9.37094 2.39095C9.90024 1.93146 9.90227 1.18473 9.37547 0.723057C8.8486 0.261268 7.99241 0.259676 7.46317 0.719048L0.397854 6.85186L0.396637 6.85298C-0.132938 7.314 -0.131248 8.06315 0.396702 8.52264Z" />
</svg>
