<svg viewBox="0 0 20 20" xmlns="http://www.w3.org/2000/svg">
<g clip-path="url(#clip0_301_271)">
<path d="M18.9743 3H1.02566C0.461523 3 0 3.46152 0 4.02562V15.3077C0 15.8718 0.461523 16.3334 1.02566 16.3334H18.9744C19.5384 16.3334 20 15.8718 20 15.3077V4.02562C20 3.46152 19.5385 3 18.9743 3ZM18.5895 3.76918L10.59 9.76926C10.4462 9.87871 10.2254 9.94719 9.99996 9.94617C9.77457 9.94719 9.55383 9.87871 9.40996 9.76926L1.41051 3.76918H18.5895ZM14.3164 10.1652L18.6754 15.5498C18.6798 15.5552 18.6851 15.5593 18.6898 15.5642H1.31023C1.31484 15.5591 1.32023 15.5552 1.32461 15.5498L5.68359 10.1652C5.71538 10.1259 5.73911 10.0807 5.75344 10.0323C5.76777 9.98383 5.77241 9.93302 5.7671 9.88278C5.76179 9.83253 5.74663 9.78383 5.72249 9.73944C5.69835 9.69506 5.6657 9.65586 5.62641 9.6241C5.46129 9.49055 5.21922 9.51586 5.08562 9.68102L0.769219 15.0131V4.24996L8.94867 10.3846C9.25613 10.6136 9.63019 10.7143 9.99992 10.7154C10.3691 10.7146 10.7435 10.6138 11.0512 10.3846L19.2306 4.24996V15.013L14.9143 9.68102C14.7807 9.5159 14.5384 9.49051 14.3736 9.6241C14.2082 9.75766 14.1828 10 14.3164 10.1652Z"/>
</g>
<defs>
<clipPath id="clip0_301_271">
<rect width="20" height="20" fill="white"/>
</clipPath>
</defs>
</svg>
