<svg  viewBox="0 0 14 13"  xmlns="http://www.w3.org/2000/svg">
<path d="M5.85742 2.5C5.85742 3.88071 4.73813 5 3.35742 5C1.97671 5 0.857422 3.88071 0.857422 2.5C0.857422 1.11929 1.97671 0 3.35742 0C4.73813 0 5.85742 1.11929 5.85742 2.5Z"/>
<path d="M13.8574 2.5C13.8574 3.88071 12.7381 5 11.3574 5C9.97671 5 8.85742 3.88071 8.85742 2.5C8.85742 1.11929 9.97671 0 11.3574 0C12.7381 0 13.8574 1.11929 13.8574 2.5Z" />
<path d="M13.8574 10.5C13.8574 11.8807 12.7381 13 11.3574 13C9.97671 13 8.85742 11.8807 8.85742 10.5C8.85742 9.11929 9.97671 8 11.3574 8C12.7381 8 13.8574 9.11929 13.8574 10.5Z" />
<path d="M5.85742 10.5C5.85742 11.8807 4.73813 13 3.35742 13C1.97671 13 0.857422 11.8807 0.857422 10.5C0.857422 9.11929 1.97671 8 3.35742 8C4.73813 8 5.85742 9.11929 5.85742 10.5Z" />
</svg>
