<svg viewBox="0 0 25 24" xmlns="http://www.w3.org/2000/svg">
<path d="M5.26199 23.679H18.417C19.8125 23.679 21.1509 23.1246 22.1378 22.1378C23.1246 21.1509 23.679 19.8125 23.679 18.417V12.0368C23.679 11.6879 23.5404 11.3533 23.2937 11.1066C23.047 10.8599 22.7124 10.7213 22.3635 10.7213C22.0146 10.7213 21.68 10.8599 21.4333 11.1066C21.1866 11.3533 21.048 11.6879 21.048 12.0368V18.417C21.048 19.1148 20.7708 19.784 20.2774 20.2774C19.784 20.7708 19.1148 21.048 18.417 21.048H5.26199C4.56421 21.048 3.895 20.7708 3.4016 20.2774C2.90819 19.784 2.631 19.1148 2.631 18.417V5.26199C2.631 4.56421 2.90819 3.895 3.4016 3.4016C3.895 2.90819 4.56421 2.631 5.26199 2.631H11.8395C12.1884 2.631 12.523 2.4924 12.7697 2.2457C13.0164 1.99899 13.155 1.66439 13.155 1.3155C13.155 0.966606 13.0164 0.632004 12.7697 0.3853C12.523 0.138597 12.1884 0 11.8395 0H5.26199C3.86643 0 2.52802 0.554387 1.5412 1.5412C0.554387 2.52802 0 3.86643 0 5.26199V18.417C0 19.8125 0.554387 21.1509 1.5412 22.1378C2.52802 23.1246 3.86643 23.679 5.26199 23.679Z"/>
<path d="M22.7462 1.69694L11.8407 12.6156L7.5127 8.27443C7.26498 8.02671 6.92901 7.88755 6.57869 7.88755C6.22837 7.88755 5.8924 8.02671 5.64469 8.27443C5.39698 8.52214 5.25781 8.85811 5.25781 9.20843C5.25781 9.38189 5.29198 9.55365 5.35836 9.71391C5.42474 9.87417 5.52203 10.0198 5.64469 10.1424L10.9067 15.4044C11.029 15.5277 11.1745 15.6256 11.3348 15.6924C11.4951 15.7592 11.667 15.7935 11.8407 15.7935C12.0143 15.7935 12.1863 15.7592 12.3466 15.6924C12.5069 15.6256 12.6524 15.5277 12.7747 15.4044L24.6142 3.56494C24.8619 3.31723 25.001 2.98126 25.001 2.63094C25.001 2.28062 24.8619 1.94465 24.6142 1.69694C24.3665 1.44922 24.0305 1.31006 23.6802 1.31006C23.3298 1.31006 22.9939 1.44922 22.7462 1.69694Z"/>
</svg>
