<svg viewBox="0 0 28 36" xmlns="http://www.w3.org/2000/svg">
<path d="M14.2678 35.2472C11.6307 35.2472 9.29025 34.5385 7.24647 33.121C5.20268 31.7036 3.60392 29.6928 2.45017 27.0886C1.29642 24.4514 0.719549 21.3198 0.719549 17.6938C0.719549 14.0677 1.29642 10.9526 2.45017 8.34842C3.60392 5.71128 5.20268 3.68398 7.24647 2.26652C9.29025 0.849054 11.6307 0.140324 14.2678 0.140324C16.938 0.140324 19.2784 0.849054 21.2892 2.26652C23.333 3.68398 24.9318 5.71128 26.0855 8.34842C27.2393 10.9526 27.8161 14.0677 27.8161 17.6938C27.8161 21.3198 27.2393 24.4514 26.0855 27.0886C24.9318 29.6928 23.333 31.7036 21.2892 33.121C19.2784 34.5385 16.938 35.2472 14.2678 35.2472ZM14.2678 32.9233C16.4765 32.9233 18.4049 32.3299 20.0531 31.1432C21.7013 29.9235 22.9869 28.1764 23.9099 25.9019C24.8329 23.6273 25.2944 20.8913 25.2944 17.6938C25.2944 14.4633 24.8329 11.7273 23.9099 9.48568C22.9869 7.21115 21.7013 5.48053 20.0531 4.29382C18.4049 3.07414 16.4765 2.4643 14.2678 2.4643C12.0922 2.4643 10.1638 3.07414 8.48263 4.29382C6.83441 5.48053 5.54881 7.21115 4.62581 9.48568C3.70281 11.7273 3.24131 14.4633 3.24131 17.6938C3.24131 20.8913 3.70281 23.6273 4.62581 25.9019C5.54881 28.1764 6.83441 29.9235 8.48263 31.1432C10.1638 32.3299 12.0922 32.9233 14.2678 32.9233Z" />
</svg>
