<svg xmlns="http://www.w3.org/2000/svg" viewBox="0 0 41 41.97">
  <path class="cls-1" d="M31.47,1h-22A.5.5,0,0,1,9,.5a.5.5,0,0,1,.5-.5h22a.5.5,0,0,1,0,1Z"/>
  <path class="cls-1" d="M31.76,17a.5.5,0,0,1-.5-.5V.6a.5.5,0,0,1,.5-.5.5.5,0,0,1,.5.5V16.48A.5.5,0,0,1,31.76,17Z"/>
  <path class="cls-1" d="M14.74,42H.5a.5.5,0,0,1,0-1H14.74a.5.5,0,1,1,0,1Z"/>
  <path class="cls-1" d="M31.73,42H27.86a.5.5,0,0,1,0-1h3.87a.5.5,0,0,1,0,1Z"/>
  <path class="cls-1" d="M31.74,41.94a.5.5,0,0,1-.5-.5V38.51a.5.5,0,0,1,.5-.5.5.5,0,0,1,.5.5v2.93A.5.5,0,0,1,31.74,41.94Z"/>
  <path class="cls-1" d="M.51,41.94a.5.5,0,0,1-.5-.5V10.63a.5.5,0,0,1,.5-.5.5.5,0,0,1,.5.5V41.44A.5.5,0,0,1,.51,41.94Z"/>
  <path class="cls-1" d="M10.72,11.13H.6a.51.51,0,0,1-.5-.5.5.5,0,0,1,.5-.5H10.72a.5.5,0,0,1,.5.5A.51.51,0,0,1,10.72,11.13Z"/>
  <path class="cls-1" d="M10.72,11.12a.5.5,0,0,1-.5-.5V3.69a.5.5,0,1,1,1,0v6.93A.5.5,0,0,1,10.72,11.12Z"/>
  <path class="cls-1" d="M.62,11.06a.5.5,0,0,1-.33-.12.51.51,0,0,1,0-.71L9,.21a.49.49,0,0,1,.7,0,.51.51,0,0,1,.05.71L1,10.89A.48.48,0,0,1,.62,11.06Z"/>
  <path class="cls-1" d="M9,29a.43.43,0,0,1-.19,0,4.22,4.22,0,0,1-2.62-2.39c-.54-1.68.65-3.17,2.46-5.44s2.9-3.63,4.57-3.55a4.32,4.32,0,0,1,3.19,2.05.51.51,0,0,1,0,.61q-3.52,4.29-7,8.58A.53.53,0,0,1,9,29Zm4.12-10.42c-1.12,0-2,1-3.69,3.18S6.8,25.15,7.16,26.26A3.12,3.12,0,0,0,8.87,27.9q3.24-4,6.51-8a3.06,3.06,0,0,0-2.18-1.33Z"/>
  <path class="cls-1" d="M37.81,29a.49.49,0,0,1-.39-.19Q34,24.43,30.57,20.08a.51.51,0,0,1,0-.63,4.36,4.36,0,0,1,3.1-1.78c1.8,0,2.91,1.33,4.77,3.64s3,3.64,2.44,5.2A4.16,4.16,0,0,1,38,28.92Zm-6.2-9.16L38,27.86a3.08,3.08,0,0,0,2-1.66c.33-1-.45-2-2.24-4.23s-2.72-3.33-4-3.3A3.17,3.17,0,0,0,31.61,19.79Z"/>
  <path class="cls-1" d="M30.43,28.3a6,6,0,0,1-4.38-1.85,2.93,2.93,0,0,0-1.73-.72,8.1,8.1,0,0,0-1.45.24c-.8.15-1.23.24-1.48.3a2.68,2.68,0,0,1-.56.08c-.52,0-2.3-.1-3-1.37a1.85,1.85,0,0,1-.14-1.71c.38-.77,1.29-.92,2.17-1.06l.39-.07a7.53,7.53,0,0,0,2.72-1,6.53,6.53,0,0,1,2.76-.9c.47-.06.85-.07,1.22-.09A8.58,8.58,0,0,0,29,19.92a13.12,13.12,0,0,0,1.74-.6.5.5,0,1,1,.39.93,13.87,13.87,0,0,1-1.88.64,9.31,9.31,0,0,1-2.3.3c-.35,0-.7,0-1.14.08a5.62,5.62,0,0,0-2.4.79,8.55,8.55,0,0,1-3,1.06l-.4.07c-.66.11-1.29.22-1.44.53a.93.93,0,0,0,.1.75,2.58,2.58,0,0,0,2.17.88,1.59,1.59,0,0,0,.36-.06c.25-.06.69-.15,1.49-.3a6.91,6.91,0,0,1,1.69-.26,4,4,0,0,1,2.35,1A5.33,5.33,0,0,0,28.66,27a5.21,5.21,0,0,0,2.72.22l.83-.12.86-.13a.53.53,0,0,1,.58.42.51.51,0,0,1-.42.57l-.88.13-.81.12A6.94,6.94,0,0,1,30.43,28.3Z"/><path class="cls-1" d="M35.73,31a.49.49,0,0,1-.38-.18.51.51,0,0,1,.06-.71l2-1.64,1.07-.77a.5.5,0,0,1,.7.12.52.52,0,0,1-.12.7l-1,.74-1.93,1.62A.47.47,0,0,1,35.73,31Z"/>
  <path class="cls-1" d="M15.91,20.66a.5.5,0,0,1-.5-.5.49.49,0,0,1,.49-.5c.77,0,1.6-.07,2.3-.13A34.83,34.83,0,0,0,21.91,19a.5.5,0,0,1,.18,1c-1.24.22-2.53.39-3.81.5-.72,0-1.57.11-2.37.13Z"/>
  <path class="cls-1" d="M13.29,36.86a2.43,2.43,0,0,1-1.61-.61,2.26,2.26,0,0,1-.5-2.71.64.64,0,0,1,.1-.13l2-1.86,0,0a2.45,2.45,0,0,1,3.12.15,2.21,2.21,0,0,1,.16,3l-2,1.77-.09.07A2.45,2.45,0,0,1,13.29,36.86ZM12,34.07a1.22,1.22,0,0,0,.32,1.43,1.45,1.45,0,0,0,1.58.21L15.83,34a1.21,1.21,0,0,0-.14-1.62,1.41,1.41,0,0,0-1.79-.11Z"/>
  <path class="cls-1" d="M10.7,34.38a2.41,2.41,0,0,1-1.61-.61,2.24,2.24,0,0,1-.5-2.71.64.64,0,0,1,.1-.13l1.94-1.85,0,0a2.44,2.44,0,0,1,3.12.16,2.22,2.22,0,0,1,.16,3L12,34l-.1.07A2.49,2.49,0,0,1,10.7,34.38ZM9.44,31.6A1.23,1.23,0,0,0,9.76,33a1.46,1.46,0,0,0,1.58.2l1.9-1.69a1.21,1.21,0,0,0-.14-1.62,1.42,1.42,0,0,0-1.8-.1Z"/>
  <path class="cls-1" d="M15.89,39.33a2.41,2.41,0,0,1-1.61-.61,2.22,2.22,0,0,1-.5-2.71.6.6,0,0,1,.09-.13l2-1.85s0,0,0,0a2.41,2.41,0,0,1,3.11.15,2.21,2.21,0,0,1,.17,3l-2,1.78-.1.07A2.43,2.43,0,0,1,15.89,39.33Zm-1.26-2.78A1.23,1.23,0,0,0,15,38a1.46,1.46,0,0,0,1.58.2l1.89-1.69a1.2,1.2,0,0,0-.14-1.62,1.42,1.42,0,0,0-1.79-.1Z"/><path class="cls-1" d="M18.24,41.44a2.09,2.09,0,0,1-1.41-.55,2,2,0,0,1-.42-2.38.47.47,0,0,1,.09-.12c.53-.52,1.08-1.06,1.63-1.58l0,0a2.09,2.09,0,0,1,2.71.13A2,2,0,0,1,21,39.58c-.39.38-.75.7-1.11,1l-.56.51-.09.06A2.08,2.08,0,0,1,18.24,41.44Zm-1-2.4a1,1,0,0,0,.25,1.12,1.11,1.11,0,0,0,1.22.17l.51-.47,1.06-1a1,1,0,0,0-.12-1.27,1.09,1.09,0,0,0-1.38-.07Z"/><path class="cls-1" d="M10.59,30.06l-.14,0a3.46,3.46,0,0,1-.83-.35,1.57,1.57,0,0,1-.82-1,.5.5,0,0,1,.4-.59.49.49,0,0,1,.58.4s0,.17.35.36a2.42,2.42,0,0,0,.6.24.5.5,0,0,1-.14,1Z"/><path class="cls-1" d="M23.06,41.84l-.34,0a.48.48,0,0,1-.2-.07l-2.46-1.49a.48.48,0,0,1-.17-.68.49.49,0,0,1,.68-.17l2.37,1.42a1.38,1.38,0,0,0,.69-.1,1.4,1.4,0,0,0,.75-.81,2,2,0,0,0,.09-.35c-1.53-1.18-1.53-1.19-1.54-1.44a.49.49,0,0,1,.14-.38c.22-.22.44-.45,2,1l.1.1.06,0a2,2,0,0,0,1.83-.7,1.62,1.62,0,0,0,.31-1.05L25.19,35.4a.5.5,0,1,1,.62-.78l2.28,1.81a1.87,1.87,0,0,0,2-.41,1.56,1.56,0,0,0,.34-1.68l-2.61-1.9a.5.5,0,0,1,.59-.81L32,34.18a1.45,1.45,0,0,0,.9,0,1.36,1.36,0,0,0,.75-.72,1,1,0,0,0,.1-.69,1.12,1.12,0,0,0-.35-.59c-.57-.51-1.17-1-1.79-1.47l-.14-.09-.49-.36c-.58-.42-1-.72-1.22-.84a38.58,38.58,0,0,1-3.63-2.94.49.49,0,0,1,0-.7.51.51,0,0,1,.71-.05,39.61,39.61,0,0,0,3.45,2.81c.26.17.73.48,1.31.9a6.08,6.08,0,0,1,.52.38l.13.09c.65.49,1.27,1,1.85,1.52a2.06,2.06,0,0,1,.68,1.13,1.94,1.94,0,0,1-.17,1.31,2.34,2.34,0,0,1-1.31,1.25,2.49,2.49,0,0,1-1.64,0l0,0a2.6,2.6,0,0,1-.73,1.63,2.83,2.83,0,0,1-2.45.8,2.5,2.5,0,0,1-.5,1.26,2.92,2.92,0,0,1-2.36,1.1h-.05a2.38,2.38,0,0,1-.11.38A2.46,2.46,0,0,1,24,41.66,2.66,2.66,0,0,1,23.06,41.84Z"/>
  <path class="cls-1" d="M22.65,10.51h0a.5.5,0,0,1-.36-.18l-1.69-2a.5.5,0,1,1,.76-.65l1.33,1.56L27.73,4a.5.5,0,0,1,.73.69L23,10.35A.5.5,0,0,1,22.65,10.51Z"/>
</svg>