<svg viewBox="0 0 35 35" xmlns="http://www.w3.org/2000/svg">
<g clip-path="url(#clip0_301_800)">
<path d="M32.8242 16.8943C30.4702 16.8943 28.2852 15.7252 26.9793 13.7661L26.5108 13.0633L26.0422 13.7661C24.7363 15.7252 22.5513 16.8943 20.1973 16.8943H18.0636V25.9249C18.0636 28.1077 19.0463 30.1592 20.6884 31.5361H9.05328V29.2835H16.3742V19.1469H4.54813V23.6521H1.16926V1.12629H25.9476V11.2629H27.0739V0H0.0429688V24.4484L8.257 32.6624H22.4195L26.5108 35L31.2693 32.2811C33.5444 30.9814 34.9579 28.5452 34.9579 25.9249V16.8943H32.8242ZM7.92699 30.7398L1.96554 24.7784H7.92699V30.7398ZM5.67442 23.6521V20.2732H15.2479V28.1572H9.05328V23.6521H5.67442ZM33.8316 25.9249C33.8316 28.1426 32.6355 30.2031 30.7107 31.3035L26.5108 33.7036L22.3108 31.3035C20.386 30.2031 19.1899 28.1426 19.1899 25.9249V18.0206H20.1973C22.6639 18.0206 24.9706 16.914 26.5108 15.0258C28.051 16.914 30.3576 18.0206 32.8242 18.0206H33.8316V25.9249Z" fill="#2B3B50"/>
<path d="M31.5791 22.5259V25.925C31.5791 27.3363 30.8177 28.6478 29.5929 29.3478L30.1515 30.3254C31.7267 29.4255 32.7054 27.7395 32.7054 25.925V22.5259H31.5791ZM3.42188 2.25269V5.63155H23.6951V2.25269H3.42188ZM22.5688 4.50526H4.54816V3.37897H22.5688V4.50526ZM31.181 19.312L23.6951 26.7979L21.8406 24.9435L21.0444 25.7398L23.6951 28.3905L31.9772 20.1083L31.181 19.312ZM6.80074 21.3996H14.1216V22.5259H6.80074V21.3996ZM10.1796 23.6522H14.1216V24.7785H10.1796V23.6522ZM10.1796 25.9048H14.1216V27.031H10.1796V25.9048ZM3.42188 7.88413H21.4425V9.01042H3.42188V7.88413ZM3.42188 10.1367H21.4425V11.263H3.42188V10.1367ZM3.42188 12.3893H21.4425V13.5156H3.42188V12.3893ZM3.42188 14.6419H14.1216V15.7682H3.42188V14.6419ZM3.42188 16.8944H14.1216V18.0207H3.42188V16.8944ZM22.5688 7.88413H23.6951V9.01042H22.5688V7.88413ZM22.5688 10.1367H23.6951V11.263H22.5688V10.1367ZM22.5688 12.3893H23.6951V13.5156H22.5688V12.3893ZM15.2479 14.6419H16.3742V15.7682H15.2479V14.6419ZM15.2479 16.8944H16.3742V18.0207H15.2479V16.8944Z"/>
</g>
<defs>
<clipPath id="clip0_301_800">
<rect width="35" height="35" fill="white"/>
</clipPath>
</defs>
</svg>
