<svg viewBox="0 0 35 35" xmlns="http://www.w3.org/2000/svg">
<g clip-path="url(#clip0_467_215)">
<path d="M11.667 25.0833H10.5003C10.3456 25.0833 10.1972 25.1448 10.0878 25.2542C9.97845 25.3636 9.91699 25.512 9.91699 25.6667C9.91699 25.8214 9.97845 25.9697 10.0878 26.0791C10.1972 26.1885 10.3456 26.25 10.5003 26.25H11.667C11.8217 26.25 11.9701 26.1885 12.0795 26.0791C12.1889 25.9697 12.2503 25.8214 12.2503 25.6667C12.2503 25.512 12.1889 25.3636 12.0795 25.2542C11.9701 25.1448 11.8217 25.0833 11.667 25.0833ZM28.0003 25.0833H14.0003C13.8456 25.0833 13.6972 25.1448 13.5878 25.2542C13.4785 25.3636 13.417 25.512 13.417 25.6667C13.417 25.8214 13.4785 25.9697 13.5878 26.0791C13.6972 26.1885 13.8456 26.25 14.0003 26.25H28.0003C28.155 26.25 28.3034 26.1885 28.4128 26.0791C28.5222 25.9697 28.5837 25.8214 28.5837 25.6667C28.5837 25.512 28.5222 25.3636 28.4128 25.2542C28.3034 25.1448 28.155 25.0833 28.0003 25.0833ZM11.667 21.5833H10.5003C10.3456 21.5833 10.1972 21.6448 10.0878 21.7542C9.97845 21.8636 9.91699 22.012 9.91699 22.1667C9.91699 22.3214 9.97845 22.4697 10.0878 22.5791C10.1972 22.6885 10.3456 22.75 10.5003 22.75H11.667C11.8217 22.75 11.9701 22.6885 12.0795 22.5791C12.1889 22.4697 12.2503 22.3214 12.2503 22.1667C12.2503 22.012 12.1889 21.8636 12.0795 21.7542C11.9701 21.6448 11.8217 21.5833 11.667 21.5833ZM28.0003 21.5833H14.0003C13.8456 21.5833 13.6972 21.6448 13.5878 21.7542C13.4785 21.8636 13.417 22.012 13.417 22.1667C13.417 22.3214 13.4785 22.4697 13.5878 22.5791C13.6972 22.6885 13.8456 22.75 14.0003 22.75H28.0003C28.155 22.75 28.3034 22.6885 28.4128 22.5791C28.5222 22.4697 28.5837 22.3214 28.5837 22.1667C28.5837 22.012 28.5222 21.8636 28.4128 21.7542C28.3034 21.6448 28.155 21.5833 28.0003 21.5833ZM11.667 18.0833H10.5003C10.3456 18.0833 10.1972 18.1448 10.0878 18.2542C9.97845 18.3636 9.91699 18.512 9.91699 18.6667C9.91699 18.8214 9.97845 18.9697 10.0878 19.0791C10.1972 19.1885 10.3456 19.25 10.5003 19.25H11.667C11.8217 19.25 11.9701 19.1885 12.0795 19.0791C12.1889 18.9697 12.2503 18.8214 12.2503 18.6667C12.2503 18.512 12.1889 18.3636 12.0795 18.2542C11.9701 18.1448 11.8217 18.0833 11.667 18.0833ZM28.0003 18.0833H14.0003C13.8456 18.0833 13.6972 18.1448 13.5878 18.2542C13.4785 18.3636 13.417 18.512 13.417 18.6667C13.417 18.8214 13.4785 18.9697 13.5878 19.0791C13.6972 19.1885 13.8456 19.25 14.0003 19.25H28.0003C28.155 19.25 28.3034 19.1885 28.4128 19.0791C28.5222 18.9697 28.5837 18.8214 28.5837 18.6667C28.5837 18.512 28.5222 18.3636 28.4128 18.2542C28.3034 18.1448 28.155 18.0833 28.0003 18.0833ZM11.667 14.5833H10.5003C10.3456 14.5833 10.1972 14.6448 10.0878 14.7542C9.97845 14.8636 9.91699 15.012 9.91699 15.1667C9.91699 15.3214 9.97845 15.4697 10.0878 15.5791C10.1972 15.6885 10.3456 15.75 10.5003 15.75H11.667C11.8217 15.75 11.9701 15.6885 12.0795 15.5791C12.1889 15.4697 12.2503 15.3214 12.2503 15.1667C12.2503 15.012 12.1889 14.8636 12.0795 14.7542C11.9701 14.6448 11.8217 14.5833 11.667 14.5833ZM28.0003 14.5833H14.0003C13.8456 14.5833 13.6972 14.6448 13.5878 14.7542C13.4785 14.8636 13.417 15.012 13.417 15.1667C13.417 15.3214 13.4785 15.4697 13.5878 15.5791C13.6972 15.6885 13.8456 15.75 14.0003 15.75H28.0003C28.155 15.75 28.3034 15.6885 28.4128 15.5791C28.5222 15.4697 28.5837 15.3214 28.5837 15.1667C28.5837 15.012 28.5222 14.8636 28.4128 14.7542C28.3034 14.6448 28.155 14.5833 28.0003 14.5833ZM11.667 11.0833H10.5003C10.3456 11.0833 10.1972 11.1448 10.0878 11.2542C9.97845 11.3636 9.91699 11.512 9.91699 11.6667C9.91699 11.8214 9.97845 11.9697 10.0878 12.0791C10.1972 12.1885 10.3456 12.25 10.5003 12.25H11.667C11.8217 12.25 11.9701 12.1885 12.0795 12.0791C12.1889 11.9697 12.2503 11.8214 12.2503 11.6667C12.2503 11.512 12.1889 11.3636 12.0795 11.2542C11.9701 11.1448 11.8217 11.0833 11.667 11.0833ZM28.0003 11.0833H14.0003C13.8456 11.0833 13.6972 11.1448 13.5878 11.2542C13.4785 11.3636 13.417 11.512 13.417 11.6667C13.417 11.8214 13.4785 11.9697 13.5878 12.0791C13.6972 12.1885 13.8456 12.25 14.0003 12.25H28.0003C28.155 12.25 28.3034 12.1885 28.4128 12.0791C28.5222 11.9697 28.5837 11.8214 28.5837 11.6667C28.5837 11.512 28.5222 11.3636 28.4128 11.2542C28.3034 11.1448 28.155 11.0833 28.0003 11.0833Z"/>
<path d="M32.0761 8.71325C32.0732 8.66214 32.0632 8.61168 32.0463 8.56333C32.0399 8.54467 32.0352 8.52658 32.0271 8.5085C31.9987 8.44503 31.9592 8.38715 31.9104 8.33758L23.7437 0.170917C23.6942 0.12215 23.6363 0.0826391 23.5728 0.05425C23.5547 0.0460833 23.5367 0.0414167 23.5186 0.035C23.4698 0.0182247 23.419 0.00802382 23.3675 0.00466667C23.3576 0.00641667 23.3465 0 23.3337 0H7.00033C6.84562 0 6.69724 0.0614582 6.58785 0.170854C6.47845 0.280251 6.41699 0.428624 6.41699 0.583333V2.33333H3.50033C3.34562 2.33333 3.19724 2.39479 3.08785 2.50419C2.97845 2.61358 2.91699 2.76196 2.91699 2.91667V34.4167C2.91699 34.5714 2.97845 34.7197 3.08785 34.8291C3.19724 34.9385 3.34562 35 3.50033 35H28.0003C28.155 35 28.3034 34.9385 28.4128 34.8291C28.5222 34.7197 28.5837 34.5714 28.5837 34.4167V31.5H31.5003C31.655 31.5 31.8034 31.4385 31.9128 31.3291C32.0222 31.2197 32.0837 31.0714 32.0837 30.9167V8.75C32.0837 8.73717 32.0772 8.72608 32.0761 8.71325ZM23.917 1.9915L30.0922 8.16667H23.917V1.9915ZM27.417 33.8333H4.08366V3.5H6.41699V30.9167C6.41699 31.0714 6.47845 31.2197 6.58785 31.3291C6.69724 31.4385 6.84562 31.5 7.00033 31.5H27.417V33.8333ZM30.917 30.3333H7.58366V1.16667H22.7503V8.75C22.7503 8.90471 22.8118 9.05308 22.9212 9.16248C23.0306 9.27187 23.179 9.33333 23.3337 9.33333H30.917V30.3333Z"/>
<path d="M14.0003 5.25H10.5003C10.3456 5.25 10.1972 5.31146 10.0878 5.42085C9.97845 5.53025 9.91699 5.67862 9.91699 5.83333V9.33333C9.91699 9.48804 9.97845 9.63642 10.0878 9.74581C10.1972 9.85521 10.3456 9.91667 10.5003 9.91667H14.0003C14.155 9.91667 14.3034 9.85521 14.4128 9.74581C14.5222 9.63642 14.5837 9.48804 14.5837 9.33333V5.83333C14.5837 5.67862 14.5222 5.53025 14.4128 5.42085C14.3034 5.31146 14.155 5.25 14.0003 5.25ZM13.417 8.75H11.0837V6.41667H13.417V8.75Z"/>
</g>
<defs>
<clipPath id="clip0_467_215">
<rect />
</clipPath>
</defs>
</svg>
