<svg viewBox="0 0 25 30" xmlns="http://www.w3.org/2000/svg">
<path d="M12.2918 14.4112C14.2716 14.4112 15.9858 13.7011 17.3868 12.3001C18.7873 10.8994 19.4976 9.18545 19.4976 7.20538C19.4976 5.226 18.7875 3.51185 17.3865 2.11062C15.9855 0.710084 14.2714 0 12.2918 0C10.3117 0 8.59778 0.710084 7.19702 2.11085C5.79625 3.51162 5.08594 5.22577 5.08594 7.20538C5.08594 9.18545 5.79625 10.8996 7.19702 12.3004C8.59824 13.7009 10.3124 14.4112 12.2918 14.4112ZM8.43687 3.35048C9.5117 2.27565 10.7725 1.75318 12.2918 1.75318C13.8108 1.75318 15.0719 2.27565 16.1469 3.35048C17.2217 4.42553 17.7444 5.68661 17.7444 7.20538C17.7444 8.72461 17.2217 9.98546 16.1469 11.0605C15.0719 12.1356 13.8108 12.658 12.2918 12.658C10.773 12.658 9.51215 12.1353 8.43687 11.0605C7.36181 9.98569 6.83912 8.72461 6.83912 7.20538C6.83912 5.68661 7.36181 4.42553 8.43687 3.35048Z"/>
<path d="M24.8995 23.0048C24.8591 22.4219 24.7774 21.786 24.6571 21.1145C24.5357 20.4379 24.3793 19.7984 24.1922 19.2138C23.9986 18.6097 23.7359 18.013 23.4106 17.4412C23.0735 16.8478 22.6773 16.331 22.2326 15.9058C21.7677 15.4609 21.1984 15.1033 20.5402 14.8424C19.8842 14.5829 19.1572 14.4514 18.3796 14.4514C18.0742 14.4514 17.7788 14.5767 17.2084 14.9481C16.8574 15.177 16.4467 15.4418 15.9884 15.7346C15.5965 15.9843 15.0656 16.2183 14.4098 16.4301C13.7701 16.6371 13.1205 16.7421 12.4791 16.7421C11.8382 16.7421 11.1886 16.6371 10.5483 16.4301C9.89325 16.2185 9.36211 15.9846 8.97089 15.7348C8.5169 15.4447 8.10605 15.18 7.74976 14.9478C7.17982 14.5765 6.88446 14.4512 6.57906 14.4512C5.80119 14.4512 5.07444 14.5829 4.41868 14.8426C3.76087 15.1031 3.19138 15.4607 2.72598 15.906C2.28135 16.3315 1.88511 16.848 1.54822 17.4412C1.22342 18.013 0.960474 18.6094 0.766918 19.2141C0.579982 19.7986 0.423631 20.4379 0.302202 21.1145C0.181687 21.7851 0.100202 22.4212 0.0598014 23.0055C0.020086 23.5768 0 24.1714 0 24.7722C0 26.3338 0.496443 27.5981 1.4754 28.5305C2.44227 29.4506 3.72138 29.9171 5.27736 29.9171H19.6826C21.2382 29.9171 22.5173 29.4506 23.4844 28.5305C24.4636 27.5988 24.96 26.3341 24.96 24.7719C24.9598 24.1691 24.9395 23.5745 24.8995 23.0048ZM22.2756 27.2603C21.6367 27.8684 20.7885 28.1639 19.6824 28.1639H5.27736C4.17103 28.1639 3.32286 27.8684 2.68421 27.2605C2.05767 26.6641 1.75318 25.85 1.75318 24.7722C1.75318 24.2116 1.77167 23.6581 1.80865 23.1267C1.84471 22.6054 1.91844 22.0327 2.02777 21.4242C2.13573 20.8232 2.27314 20.2592 2.43656 19.7486C2.59337 19.259 2.80724 18.7742 3.07247 18.3072C3.3256 17.8621 3.61684 17.4803 3.93822 17.1726C4.23882 16.8848 4.61772 16.6492 5.06417 16.4725C5.47708 16.3091 5.94111 16.2196 6.44485 16.2062C6.50625 16.2388 6.61558 16.3011 6.79271 16.4166C7.15311 16.6515 7.56853 16.9195 8.02776 17.2128C8.54543 17.5428 9.21238 17.8409 10.0092 18.0981C10.8238 18.3615 11.6546 18.4953 12.4793 18.4953C13.304 18.4953 14.135 18.3615 14.9492 18.0984C15.7467 17.8407 16.4134 17.5428 16.9318 17.2123C17.4017 16.9119 17.8055 16.6517 18.1659 16.4166C18.343 16.3014 18.4524 16.2388 18.5138 16.2062C19.0177 16.2196 19.4818 16.3091 19.8949 16.4725C20.3411 16.6492 20.72 16.885 21.0206 17.1726C21.342 17.48 21.6333 17.8619 21.8864 18.3074C22.1518 18.7742 22.3659 19.2592 22.5225 19.7484C22.6862 20.2597 22.8238 20.8234 22.9315 21.424C23.0406 22.0336 23.1146 22.6065 23.1507 23.1269V23.1274C23.1879 23.6567 23.2066 24.21 23.2068 24.7722C23.2066 25.8502 22.9021 26.6641 22.2756 27.2603Z"/>
</svg>
