<svg viewBox="0 0 13 16" fill="none" xmlns="http://www.w3.org/2000/svg">
<g opacity="0.8">
<path d="M6.4017 7.50585C7.43284 7.50585 8.32563 7.13599 9.05533 6.4063C9.78479 5.67675 10.1547 4.78408 10.1547 3.75282C10.1547 2.72186 9.78491 1.8291 9.05521 1.09928C8.32551 0.369825 7.43272 0 6.4017 0C5.37041 0 4.47771 0.369825 3.74816 1.0994C3.01862 1.82898 2.64864 2.72177 2.64864 3.75282C2.64864 4.78408 3.01859 5.67687 3.74819 6.40645C4.47798 7.1359 5.37077 7.50585 6.40167 7.50585H6.4017ZM4.39393 1.74504C4.95372 1.18522 5.61044 0.91312 6.4017 0.91312C7.19284 0.91312 7.84966 1.18522 8.40957 1.74504C8.96939 2.30496 9.24161 2.96177 9.24161 3.75279C9.24161 4.54405 8.96939 5.20077 8.40957 5.76068C7.84966 6.32063 7.19284 6.59273 6.4017 6.59273C5.61065 6.59273 4.95399 6.3205 4.39393 5.76068C3.83398 5.20089 3.56176 4.54408 3.56176 3.75282C3.56176 2.96177 3.83398 2.30496 4.39393 1.74504ZM12.9685 11.9817C12.9474 11.6781 12.9049 11.3468 12.8422 10.9971C12.779 10.6447 12.6976 10.3116 12.6001 10.0072C12.4993 9.69251 12.3625 9.38179 12.193 9.08397C12.0174 8.77489 11.8111 8.50574 11.5795 8.28427C11.3373 8.05258 11.0409 7.8663 10.698 7.73039C10.3564 7.59526 9.9777 7.52679 9.5727 7.52679C9.41362 7.52679 9.25981 7.59204 8.96272 7.78547C8.75154 7.92299 8.53973 8.05953 8.32731 8.1951C8.12319 8.32518 7.84667 8.44703 7.50512 8.55735C7.17191 8.66518 6.83358 8.71986 6.49951 8.71986C6.16572 8.71986 5.82736 8.66518 5.49391 8.55735C5.15275 8.44712 4.87611 8.3253 4.67233 8.19522C4.43586 8.04412 4.22192 7.90623 4.03633 7.78532C3.73949 7.59192 3.58565 7.52664 3.4266 7.52664C3.02145 7.52664 2.64295 7.59523 2.30139 7.73054C1.95878 7.86618 1.66217 8.05246 1.41977 8.28439C1.18821 8.50598 0.981838 8.77498 0.80636 9.08397C0.637212 9.38176 0.500262 9.69239 0.399437 10.0073C0.30205 10.3118 0.220641 10.6447 0.157401 10.9971C0.0946171 11.3464 0.0521931 11.6777 0.0311332 11.982C0.0104386 12.2796 0 12.5893 0 12.9022C0 13.7155 0.258561 14.374 0.76844 14.8596C1.27202 15.3389 1.93823 15.5818 2.74861 15.5818H10.2514C11.0615 15.5818 11.7277 15.3389 12.2314 14.8597C12.7414 14.3744 13 13.7157 13 12.902C12.9999 12.5881 12.9893 12.2784 12.9685 11.9817ZM11.6019 14.1981C11.2691 14.5148 10.8273 14.6687 10.2512 14.6687H2.74864C2.17245 14.6687 1.73068 14.5148 1.39804 14.1982C1.07174 13.8876 0.91315 13.4635 0.91315 12.9022C0.91315 12.6102 0.922767 12.3219 0.942062 12.0452C0.960809 11.7736 0.999216 11.4754 1.05619 11.1584C1.1124 10.8454 1.18395 10.5517 1.26907 10.2857C1.35075 10.0307 1.46214 9.77824 1.60027 9.53502C1.73211 9.30318 1.88379 9.1043 2.05117 8.94407C2.20775 8.79415 2.40511 8.67148 2.63762 8.57948C2.85266 8.49432 3.09436 8.44773 3.35673 8.4407C3.38868 8.45774 3.44566 8.49018 3.5379 8.55032C3.72561 8.67266 3.94196 8.81223 4.18117 8.96497C4.45081 9.13689 4.79814 9.29213 5.21316 9.4261C5.63743 9.56329 6.07016 9.63295 6.49967 9.63295C6.9292 9.63295 7.36202 9.56329 7.78608 9.42622C8.20143 9.29201 8.54868 9.13689 8.81868 8.96473C9.06346 8.8083 9.27375 8.67278 9.46143 8.55032C9.55371 8.49028 9.61065 8.45771 9.64263 8.44073C9.90512 8.44773 10.1468 8.49432 10.362 8.57944C10.5944 8.67148 10.7917 8.79427 10.9483 8.94404C11.1157 9.10418 11.2673 9.30309 11.3992 9.53514C11.5374 9.77824 11.649 10.0309 11.7305 10.2856C11.8158 10.5519 11.8874 10.8455 11.9435 11.1583C12.0004 11.4758 12.0389 11.7742 12.0577 12.0453V12.0455C12.0771 12.3212 12.0868 12.6094 12.0869 12.9022C12.0868 13.4637 11.9282 13.8876 11.6019 14.1981H11.6019Z"/>
</g>
</svg>
