<svg viewBox="0 0 13 13" xmlns="http://www.w3.org/2000/svg">
<g opacity="0.8" clip-path="url(#clip0_301_785)">
<path d="M6.5 0C2.91596 0 0 2.91596 0 6.5C0 10.084 2.91596 13 6.5 13C10.084 13 13 10.084 13 6.5C13 2.91596 10.084 0 6.5 0ZM6.5 12.1875C3.36386 12.1875 0.812504 9.63614 0.812504 6.5C0.812504 3.36386 3.36386 0.812504 6.5 0.812504C9.63614 0.812504 12.1875 3.36386 12.1875 6.5C12.1875 9.63614 9.63614 12.1875 6.5 12.1875Z" fill="white"/>
<path d="M6.90625 2.4375H6.09375V6.6682L8.65027 9.22472L9.22473 8.65025L6.90625 6.33178V2.4375Z" fill="white"/>
</g>
<defs>
<clipPath id="clip0_301_785">
<rect/>
</clipPath>
</defs>
</svg>
