<svg viewBox="0 0 13 14" fill="none" xmlns="http://www.w3.org/2000/svg">
<g opacity="0.8">
<path d="M2.63439 8.67428C3.92147 10.2128 5.47084 11.4242 7.23922 12.2814C7.91251 12.6004 8.81292 12.979 9.81609 13.0439C9.87828 13.0466 9.93777 13.0493 9.99996 13.0493C10.6732 13.0493 11.214 12.8167 11.6548 12.3381C11.6575 12.3354 11.6629 12.33 11.6656 12.3246C11.8224 12.1353 12.0009 11.965 12.1875 11.7838C12.3145 11.6622 12.4443 11.5351 12.5687 11.4053C13.1447 10.805 13.1447 10.0425 12.5633 9.46113L10.9382 7.83606C10.6624 7.54944 10.3325 7.39802 9.98644 7.39802C9.64034 7.39802 9.30775 7.54944 9.02383 7.83335L8.05582 8.80137C7.96659 8.74999 7.87465 8.70403 7.78813 8.66076C7.67997 8.60668 7.57992 8.55531 7.49069 8.49853C6.6092 7.93881 5.80883 7.20874 5.04361 6.27047C4.65695 5.78105 4.39737 5.37005 4.2162 4.95094C4.47038 4.7211 4.70832 4.48045 4.93816 4.24521C5.01928 4.16138 5.1031 4.07756 5.18692 3.99374C5.47895 3.70171 5.63578 3.36372 5.63578 3.02032C5.63578 2.67691 5.48165 2.33892 5.18692 2.04689L4.38115 1.24111C4.28651 1.14648 4.19728 1.05454 4.10534 0.959903C3.92688 0.776035 3.74031 0.586758 3.55644 0.416409C3.27793 0.14331 2.95075 0 2.60465 0C2.26125 0 1.93136 0.14331 1.64204 0.419113L0.630762 1.43039C0.263024 1.79813 0.0548197 2.24428 0.0115565 2.76074C-0.0398187 3.40698 0.0791553 4.09379 0.387406 4.9239C0.860598 6.20828 1.57444 7.40072 2.63439 8.67428ZM0.671321 2.81752C0.703769 2.45789 0.84167 2.15775 1.10125 1.89818L2.10712 0.892305C2.26395 0.740883 2.437 0.662469 2.60465 0.662469C2.76959 0.662469 2.93723 0.740883 3.09136 0.897713C3.27252 1.06536 3.44287 1.24111 3.62674 1.42769C3.71868 1.52233 3.81332 1.61696 3.90795 1.71431L4.71373 2.52008C4.88138 2.68773 4.9679 2.85808 4.9679 3.02572C4.9679 3.19337 4.88138 3.36372 4.71373 3.53136C4.62991 3.61519 4.54609 3.70171 4.46226 3.78553C4.2108 4.03971 3.97555 4.28036 3.71597 4.51019L3.70245 4.52371C3.47803 4.74814 3.51318 4.96175 3.56726 5.12399C3.56996 5.1321 3.57266 5.13751 3.57537 5.14562C3.78357 5.64585 4.07289 6.12175 4.52446 6.68958C5.33564 7.69004 6.19009 8.46608 7.13107 9.06365C7.24734 9.13936 7.37172 9.19885 7.48799 9.25834C7.59615 9.31242 7.69619 9.36379 7.78542 9.42057C7.79624 9.42598 7.80435 9.43139 7.81517 9.4368C7.9044 9.48277 7.99092 9.5044 8.07745 9.5044C8.29377 9.5044 8.43437 9.3665 8.48034 9.32053L9.49162 8.30925C9.64845 8.15242 9.8188 8.0686 9.98644 8.0686C10.1919 8.0686 10.3596 8.19568 10.465 8.30925L12.0955 9.93703C12.42 10.2615 12.4173 10.613 12.0874 10.9564C11.9738 11.0781 11.8549 11.1944 11.7278 11.316C11.5385 11.4999 11.3411 11.6892 11.1627 11.9028C10.8517 12.2381 10.4813 12.3949 10.0027 12.3949C9.9567 12.3949 9.90803 12.3922 9.86206 12.3895C8.97516 12.3327 8.15046 11.9866 7.53125 11.6919C5.84939 10.878 4.37303 9.72342 3.14814 8.25787C2.13957 7.0438 1.46088 5.91355 1.01202 4.70218C0.733512 3.95859 0.628058 3.36101 0.671321 2.81752Z"/>
</g>
</svg>
