<svg viewBox="0 0 33 39" xmlns="http://www.w3.org/2000/svg">
<path d="M3.25505 13.4747C3.11637 13.3914 2.94975 13.3657 2.79181 13.4032C2.63388 13.4408 2.49757 13.5386 2.41285 13.675C2.1183 14.1503 1.84853 14.6401 1.60461 15.1424C1.56013 15.2343 1.54 15.3358 1.5461 15.4375C1.5522 15.5391 1.58433 15.6375 1.6395 15.7236C1.69466 15.8097 1.77107 15.8807 1.8616 15.9299C1.95214 15.9791 2.05385 16.005 2.15727 16.0051C2.27301 16.0051 2.38639 15.9729 2.48427 15.9121C2.58215 15.8513 2.66051 15.7644 2.71027 15.6615C2.93582 15.1965 3.18548 14.7431 3.45825 14.3033C3.54291 14.1669 3.56907 14.003 3.53096 13.8476C3.49285 13.6922 3.39361 13.5581 3.25505 13.4747ZM8.04824 9.48446C8.16369 9.48455 8.27679 9.45227 8.37429 9.39139C9.4221 8.74011 10.5466 8.21683 11.7229 7.83311C11.7992 7.80825 11.8699 7.76883 11.9307 7.7171C11.9916 7.66536 12.0415 7.60233 12.0776 7.5316C12.1137 7.46087 12.1353 7.38383 12.1411 7.30488C12.147 7.22594 12.137 7.14663 12.1116 7.0715C12.0864 6.99633 12.0464 6.92678 11.9939 6.86684C11.9414 6.80691 11.8774 6.75775 11.8055 6.72219C11.7337 6.68662 11.6554 6.66536 11.5752 6.6596C11.495 6.65384 11.4145 6.6637 11.3381 6.68862C10.0672 7.10288 8.85233 7.66802 7.7203 8.37154C7.58305 8.45699 7.48586 8.59255 7.45005 8.74847C7.41424 8.90439 7.44275 9.06792 7.52931 9.20317C7.58458 9.28943 7.66117 9.36048 7.75193 9.40968C7.84268 9.45887 7.94463 9.4846 8.04824 9.48446ZM1.22507 22.1455C1.22507 20.9362 1.37089 19.7327 1.65888 18.5684C1.69404 18.4141 1.66627 18.2525 1.58153 18.1182C1.4968 17.9839 1.36188 17.8877 1.20583 17.8504C1.04978 17.8131 0.885079 17.8375 0.747182 17.9186C0.609286 17.9996 0.509225 18.1307 0.468544 18.2836C0.156724 19.548 -0.000570275 20.8445 1.55349e-06 22.1456C1.55349e-06 24.2079 0.386755 26.218 1.1495 28.1199C1.179 28.1935 1.22294 28.2607 1.27882 28.3176C1.33471 28.3746 1.40143 28.4201 1.47518 28.4516C1.54894 28.4831 1.62828 28.5 1.70868 28.5014C1.78908 28.5027 1.86896 28.4885 1.94375 28.4594C2.09484 28.4007 2.21604 28.2853 2.28071 28.1386C2.34539 27.9919 2.34825 27.8259 2.28867 27.6772C1.58297 25.9169 1.22507 24.0557 1.22507 22.1455ZM4.90971 12.038C4.99359 12.0381 5.0766 12.0212 5.15356 11.9883C5.23052 11.9555 5.29979 11.9074 5.35706 11.8471C5.53576 11.659 5.71942 11.4755 5.90783 11.2968C5.96577 11.2419 6.01214 11.1763 6.04429 11.1037C6.07644 11.0311 6.09375 10.953 6.09523 10.8739C6.0967 10.7947 6.08231 10.716 6.05288 10.6424C6.02345 10.5687 5.97955 10.5014 5.9237 10.4444C5.86794 10.3874 5.80131 10.3418 5.72762 10.3101C5.65393 10.2785 5.57462 10.2614 5.49423 10.2599C5.41384 10.2585 5.33394 10.2726 5.25911 10.3016C5.18427 10.3305 5.11596 10.3737 5.05809 10.4286C4.85439 10.6216 4.6559 10.8199 4.46281 11.0232C4.40781 11.081 4.36493 11.1489 4.3366 11.223C4.30828 11.2971 4.29508 11.3759 4.29774 11.4551C4.30041 11.5342 4.31891 11.6121 4.35216 11.6841C4.38542 11.7562 4.43278 11.8212 4.49155 11.8752C4.60472 11.98 4.75433 12.0383 4.90971 12.038ZM14.7011 37.1102C14.1812 37.0489 13.6648 36.9615 13.154 36.8482C13.0753 36.83 12.9936 36.8273 12.9138 36.8403C12.8339 36.8533 12.7575 36.8818 12.6889 36.924C12.6203 36.9662 12.5609 37.0214 12.5141 37.0864C12.4673 37.1514 12.434 37.2248 12.4162 37.3025C12.3984 37.3802 12.3964 37.4606 12.4104 37.5391C12.4243 37.6176 12.4539 37.6925 12.4974 37.7597C12.541 37.8268 12.5976 37.8848 12.664 37.9303C12.7305 37.9757 12.8054 38.0078 12.8845 38.0246C13.4363 38.1467 13.994 38.241 14.5556 38.3073C14.6364 38.3187 14.7187 38.314 14.7976 38.2936C14.8766 38.2733 14.9506 38.2376 15.0153 38.1886C15.08 38.1397 15.1342 38.0785 15.1745 38.0087C15.2149 37.9389 15.2407 37.8618 15.2504 37.782C15.2601 37.7022 15.2535 37.6214 15.231 37.5441C15.2085 37.4669 15.1705 37.3949 15.1194 37.3323C15.0682 37.2697 15.0048 37.2178 14.933 37.1797C14.8611 37.1415 14.7823 37.1179 14.7011 37.1102ZM6.85912 33.8257C6.80497 33.7823 6.75059 33.7381 6.69677 33.6937C6.63522 33.6427 6.56406 33.6042 6.48738 33.5803C6.41069 33.5564 6.32997 33.5477 6.24985 33.5545C6.16972 33.5614 6.09175 33.5837 6.0204 33.6203C5.94905 33.6568 5.88572 33.7069 5.83403 33.7675C5.72968 33.89 5.67896 34.0482 5.69301 34.2074C5.70705 34.3666 5.78472 34.5138 5.90894 34.6167C5.96754 34.6652 6.02669 34.7132 6.08606 34.7606C6.19499 34.8483 6.33143 34.8961 6.47215 34.8959C6.56318 34.8961 6.65309 34.8762 6.73531 34.8377C6.81753 34.7993 6.88998 34.7432 6.94735 34.6736C6.99814 34.6123 7.03614 34.5417 7.05919 34.4658C7.08224 34.39 7.08989 34.3104 7.0817 34.2317C7.0735 34.153 7.04963 34.0766 7.01144 34.0069C6.97325 33.9373 6.92149 33.8757 6.85912 33.8257ZM26.4036 33.6705C23.9681 35.693 21.0063 36.9011 17.8379 37.1637C17.7578 37.1703 17.6797 37.1924 17.6083 37.2288C17.5368 37.2651 17.4733 37.3149 17.4214 37.3754C17.3695 37.4359 17.3303 37.5059 17.3059 37.5813C17.2815 37.6568 17.2724 37.7362 17.2793 37.8151C17.2929 37.9744 17.3702 38.1219 17.4943 38.225C17.6183 38.3282 17.779 38.3786 17.9408 38.3652C21.3636 38.0813 24.5631 36.7768 27.1936 34.5921C27.3176 34.489 27.395 34.3415 27.4087 34.1822C27.4224 34.0229 27.3712 33.8648 27.2665 33.7426C27.1618 33.6204 27.012 33.5442 26.8502 33.5307C26.6884 33.5172 26.5278 33.5675 26.4036 33.6705ZM10.1834 35.8628C9.9454 35.7557 9.7102 35.6427 9.47806 35.5237C9.33398 35.4499 9.16601 35.4354 9.0111 35.4835C8.85618 35.5316 8.727 35.6382 8.65195 35.78C8.57707 35.9219 8.56243 36.0872 8.61125 36.2396C8.66006 36.3921 8.76833 36.5193 8.9123 36.5933C9.16199 36.721 9.41835 36.8442 9.67471 36.9594C9.74784 36.9924 9.82686 37.0108 9.90724 37.0137C9.98762 37.0166 10.0678 37.0038 10.1431 36.9761C10.2185 36.9485 10.2876 36.9064 10.3464 36.8525C10.4053 36.7985 10.4527 36.7336 10.4861 36.6616C10.5195 36.5896 10.5382 36.5118 10.5411 36.4326C10.544 36.3535 10.531 36.2746 10.5029 36.2004C10.4748 36.1262 10.4321 36.0582 10.3773 36.0003C10.3225 35.9424 10.2566 35.8957 10.1834 35.8628ZM20.9943 7.72201C24.0307 8.63011 26.6715 10.4212 28.6309 12.9014C28.6881 12.974 28.7615 13.0327 28.8453 13.0731C28.9291 13.1134 29.0212 13.1343 29.1146 13.1342C29.2292 13.1342 29.3416 13.1025 29.4388 13.0428C29.5361 12.983 29.6144 12.8976 29.6647 12.7962C29.7151 12.6948 29.7355 12.5815 29.7237 12.4693C29.7119 12.357 29.6683 12.2503 29.5979 12.1612C27.4822 9.48326 24.6304 7.5492 21.3504 6.56846C21.2735 6.54534 21.1927 6.53739 21.1126 6.54507C21.0325 6.55275 20.9548 6.5759 20.8838 6.61321C20.8128 6.65051 20.75 6.70123 20.699 6.76245C20.648 6.82368 20.6098 6.89422 20.5865 6.97002C20.5631 7.04575 20.5551 7.12529 20.5629 7.20407C20.5707 7.28285 20.5943 7.35935 20.6321 7.42918C20.67 7.49901 20.7215 7.56081 20.7836 7.61106C20.8458 7.6613 20.9174 7.69901 20.9943 7.72201ZM32.4338 23.2454C32.3537 23.2367 32.2728 23.2436 32.1955 23.2658C32.1182 23.288 32.0462 23.3251 31.9835 23.3748C31.9208 23.4245 31.8687 23.4859 31.8301 23.5554C31.7916 23.625 31.7675 23.7014 31.759 23.7802C31.6261 24.9955 31.3427 26.1903 30.915 27.3379C30.8811 27.429 30.8699 27.5268 30.8826 27.6231C30.8953 27.7194 30.9314 27.8112 30.9878 27.8908C31.0442 27.9704 31.1193 28.0354 31.2067 28.0803C31.2942 28.1252 31.3913 28.1487 31.4899 28.1487C31.6153 28.1487 31.7377 28.1108 31.8406 28.04C31.9434 27.9693 32.0217 27.8692 32.0649 27.7533C32.5269 26.5134 32.8332 25.2225 32.9769 23.9093C32.9855 23.8306 32.9783 23.751 32.9557 23.6751C32.9331 23.5991 32.8955 23.5283 32.845 23.4666C32.7946 23.405 32.7323 23.3537 32.6618 23.3157C32.5912 23.2778 32.5137 23.2539 32.4338 23.2454ZM31.6834 19.9257C31.7213 20.1794 31.7533 20.4377 31.778 20.6929C31.7856 20.7718 31.809 20.8483 31.8467 20.9183C31.8844 20.9882 31.9358 21.0502 31.9978 21.1006C32.0599 21.151 32.1314 21.1889 32.2084 21.212C32.2853 21.2352 32.3661 21.2432 32.4462 21.2356C32.5262 21.2281 32.604 21.205 32.675 21.1679C32.746 21.1307 32.8089 21.0802 32.8601 21.0191C32.9113 20.958 32.9497 20.8876 32.9732 20.8119C32.9967 20.7362 33.0049 20.6567 32.9972 20.5779C32.9706 20.3023 32.9363 20.0238 32.8952 19.7498C32.8836 19.6714 32.8563 19.596 32.8151 19.528C32.7738 19.46 32.7193 19.4007 32.6547 19.3534C32.5901 19.3062 32.5166 19.272 32.4385 19.2527C32.3605 19.2335 32.2793 19.2296 32.1997 19.2413C32.1201 19.2528 32.0437 19.2797 31.9746 19.3203C31.9056 19.361 31.8454 19.4146 31.7975 19.4782C31.7495 19.5418 31.7148 19.614 31.6952 19.6908C31.6756 19.7676 31.6716 19.8474 31.6834 19.9257ZM31.484 17.3311C31.5827 17.3311 31.6799 17.3075 31.7673 17.2626C31.8548 17.2176 31.9299 17.1525 31.9863 17.0728C32.0427 16.9932 32.0787 16.9013 32.0913 16.8049C32.1039 16.7086 32.0927 16.6107 32.0587 16.5196C31.8631 15.9977 31.6406 15.486 31.3919 14.9866C31.3565 14.9155 31.3072 14.852 31.2468 14.7997C31.1865 14.7473 31.1162 14.7072 31.0401 14.6816C30.964 14.656 30.8835 14.6454 30.8032 14.6505C30.723 14.6555 30.6445 14.676 30.5723 14.7109C30.5001 14.7458 30.4356 14.7943 30.3824 14.8537C30.3293 14.9131 30.2885 14.9823 30.2625 15.0572C30.2365 15.1321 30.2258 15.2113 30.2309 15.2903C30.236 15.3693 30.2568 15.4466 30.2922 15.5177C30.5223 15.9799 30.7282 16.4535 30.9091 16.9365C30.9524 17.0522 31.0308 17.1521 31.1336 17.2227C31.2364 17.2933 31.3587 17.3311 31.484 17.3311Z" />
<path d="M26.7736 24.0882H28.1981V24.7432C28.1966 24.8233 28.2112 24.9029 28.2413 24.9774C28.2714 25.0519 28.3163 25.1197 28.3733 25.1769C28.4303 25.2342 28.4984 25.2796 28.5735 25.3106C28.6485 25.3417 28.7292 25.3576 28.8106 25.3576C28.892 25.3576 28.9726 25.3417 29.0477 25.3106C29.1228 25.2796 29.1908 25.2342 29.2478 25.1769C29.3049 25.1197 29.3497 25.0519 29.3798 24.9774C29.4099 24.9029 29.4246 24.8233 29.4231 24.7432V22.2061C29.4246 22.126 29.4099 22.0463 29.3798 21.9719C29.3497 21.8974 29.3049 21.8295 29.2478 21.7723C29.1908 21.7151 29.1228 21.6697 29.0477 21.6386C28.9726 21.6076 28.892 21.5916 28.8106 21.5916C28.7292 21.5916 28.6485 21.6076 28.5735 21.6386C28.4984 21.6697 28.4303 21.7151 28.3733 21.7723C28.3163 21.8295 28.2714 21.8974 28.2413 21.9719C28.2112 22.0463 28.1966 22.126 28.1981 22.2061V22.8823H26.0793L20.2716 12.7958C20.5538 12.2342 20.7034 11.6181 20.7034 10.9926C20.7034 8.9444 19.1645 7.24368 17.165 6.95125V5.71566C17.8178 5.47151 18.2835 4.85126 18.2835 4.1245V1.70389C18.2835 0.764447 17.5072 0 16.5525 0C15.5983 0 14.822 0.764447 14.822 1.70389V4.12439C14.822 4.85115 15.2877 5.4714 15.94 5.71555V6.95114C13.9405 7.24357 12.4016 8.94429 12.4016 10.9925C12.4016 11.6185 12.5514 12.235 12.834 12.7965L3.36301 29.2455C3.30672 29.3434 3.27925 29.4548 3.28366 29.5672L3.47421 34.219C3.48079 34.3745 3.54814 34.5215 3.66221 34.6293C3.77627 34.7371 3.92823 34.7974 4.08636 34.7975C4.19441 34.7976 4.30055 34.7695 4.39398 34.7161C4.48741 34.6627 4.5648 34.5858 4.61827 34.4934L10.6477 24.0881H22.4574L28.4866 34.4934C28.5526 34.6071 28.6543 34.6965 28.7764 34.7483C28.8985 34.8 29.0345 34.8113 29.1636 34.7803C29.2928 34.7493 29.4083 34.6778 29.4925 34.5765C29.5768 34.4753 29.6253 34.3498 29.6307 34.219L29.8221 29.5672C29.8268 29.4548 29.7995 29.3434 29.7432 29.2455L26.7736 24.0882ZM16.047 1.70389C16.0471 1.57189 16.1004 1.44533 16.1951 1.35195C16.2899 1.25857 16.4185 1.206 16.5526 1.20577C16.6867 1.20588 16.8154 1.2584 16.9103 1.35179C17.0051 1.44519 17.0585 1.57182 17.0586 1.70389V4.12439C17.0584 4.25641 17.0051 4.38296 16.9102 4.47627C16.8153 4.56958 16.6867 4.62202 16.5526 4.62208C16.4185 4.6219 16.29 4.56941 16.1952 4.47612C16.1005 4.38282 16.0471 4.25633 16.047 4.12439V1.70389ZM16.5526 8.11212C18.1659 8.11212 19.4786 9.40441 19.4786 10.9926C19.4786 11.5181 19.3297 12.0353 19.0486 12.4886L19.0483 12.4894C18.6614 13.1125 18.058 13.5644 17.3489 13.7617C16.8195 13.9087 16.2891 13.9093 15.7568 13.7615L15.7558 13.7613C15.0472 13.5639 14.4446 13.1127 14.0579 12.4907L14.0573 12.4895L14.0569 12.4887C13.7763 12.0385 13.6274 11.5207 13.6267 10.9925C13.6266 9.4044 14.9393 8.11212 16.5526 8.11212ZM4.61239 32.0704L4.51506 29.6905L13.6191 13.8789C13.9366 14.1925 14.3041 14.4529 14.707 14.6498L4.61239 32.0704ZM11.3465 22.8823L15.9001 15.0239C16.1179 15.0588 16.336 15.0784 16.5526 15.0784C16.7694 15.0784 16.9877 15.0588 17.2055 15.0239L21.7589 22.8823H11.3465ZM28.4932 32.0708L18.3984 14.6498C18.8015 14.4528 19.1692 14.1922 19.4868 13.8784L28.5912 29.6904L28.4932 32.0708Z" />
</svg>
