<svg  viewBox="0 0 14 6" xmlns="http://www.w3.org/2000/svg">
<path d="M0.155844 3.35503L0.156322 3.35547L2.9322 5.76497C3.14016 5.94548 3.47651 5.9448 3.68352 5.7634C3.89049 5.58201 3.88969 5.28863 3.68174 5.1081L1.81801 3.4904L13.0687 3.4904C13.3621 3.4904 13.6 3.28295 13.6 3.02703C13.6 2.77112 13.3621 2.56367 13.0687 2.56367L1.81804 2.56367L3.68171 0.945962C3.88967 0.765434 3.89046 0.472054 3.68349 0.290669C3.47649 0.109238 3.1401 0.108613 2.93217 0.289094L0.156295 2.6986L0.155817 2.69904C-0.0522461 2.88017 -0.0515823 3.1745 0.155844 3.35503Z" />
</svg>
