<svg viewBox="0 0 33 33" xmlns="http://www.w3.org/2000/svg">
<path d="M18.3855 24.5408H17.3991C17.0369 24.5408 16.7422 24.8379 16.7422 25.203V28.1983C16.7422 28.5635 17.0369 28.8606 17.3991 28.8606H18.3855C19.2927 28.8606 20.0306 28.1173 20.0306 27.2035V26.1977C20.0306 25.2841 19.2927 24.5408 18.3855 24.5408ZM19.0565 27.2036C19.0565 27.5759 18.7554 27.8788 18.3855 27.8788H17.7163V25.5227H18.3855C18.7554 25.5227 19.0565 25.8256 19.0565 26.1979V27.2036Z" />
<path d="M15.0852 24.5408H13.4558C13.1868 24.5408 12.9688 24.7605 12.9688 25.0317C12.9688 25.3028 13.1868 25.5226 13.4558 25.5226H14.9707V26.2097H13.4558C13.1868 26.2097 12.9688 26.4295 12.9688 26.7007C12.9688 26.9718 13.1868 27.1916 13.4558 27.1916H14.9707V27.8787H13.4558C13.1868 27.8787 12.9688 28.0985 12.9688 28.3696C12.9688 28.6408 13.1868 28.8606 13.4558 28.8606H15.0852C15.5592 28.8606 15.9449 28.4717 15.9449 27.9938V25.4075C15.9448 24.9296 15.5592 24.5408 15.0852 24.5408Z"/>
<path d="M32.9707 27.7931L32.1505 24.8918C32.0768 24.631 31.8074 24.4798 31.5486 24.5542C31.2899 24.6285 31.1399 24.9001 31.2136 25.1608L31.7921 27.2071L25.9737 23.9404C25.9758 23.8692 25.9751 20.2147 25.9751 20.2147C25.9751 19.9435 25.7571 19.7237 25.4881 19.7237C25.219 19.7237 25.001 19.9435 25.001 20.2147C25.001 20.2147 25.0028 23.9688 24.9956 24.0306C24.9763 24.0449 22.6069 25.3784 22.6069 25.3784C22.0358 22.6933 19.7629 20.6376 16.9865 20.4207V19.0847L25.001 14.5865V17.9636C25.001 18.2347 25.219 18.4545 25.4881 18.4545C25.7571 18.4545 25.9751 18.2347 25.9751 17.9636V13.6511C25.9679 13.4057 25.8401 13.2044 25.5917 13.0472L16.9865 8.21754V1.55323L18.4783 3.05776C18.5735 3.15368 18.6981 3.20168 18.8228 3.20168C18.9475 3.20168 19.072 3.15375 19.1672 3.05802C19.3574 2.86637 19.3575 2.55554 19.1674 2.36375L17.0543 0.232634C16.9104 0.0847538 16.7085 0 16.4994 0C16.2903 0 16.0939 0.0818961 15.9467 0.230491L13.8315 2.36369C13.6414 2.55547 13.6414 2.8663 13.8317 3.05795C14.0221 3.24967 14.3304 3.24954 14.5205 3.05776L16.0124 1.55323V8.21748L12.6641 10.0961C12.4291 10.2279 12.3447 10.5269 12.4755 10.7638C12.6063 11.0007 12.903 11.0858 13.138 10.954L16.4994 9.06794L24.6654 13.6511L16.4995 18.2342L8.33364 13.6502L11.4333 11.8982C11.6679 11.7656 11.7515 11.4664 11.6199 11.2299C11.4883 10.9934 11.1915 10.9092 10.9568 11.0418L7.40889 13.0472C7.16454 13.1844 7.02478 13.4052 7.02529 13.6529C7.02529 13.6539 7.02549 13.6549 7.02549 13.6559C7.02549 13.6559 7.02471 23.8708 7.02671 23.9404L1.20826 27.2063L1.78531 25.1605C1.85889 24.8997 1.70875 24.6282 1.44997 24.554C1.19132 24.4799 0.921835 24.6312 0.848246 24.892L0.0292367 27.7959C-0.0265024 27.9975 -0.00201585 28.2088 0.0981855 28.3907C0.199096 28.5738 0.371146 28.7111 0.567618 28.7663L3.44453 29.5934C3.48918 29.6063 3.53416 29.6124 3.57843 29.6124C3.79049 29.6124 3.98555 29.4717 4.04657 29.256C4.12035 28.9953 3.97047 28.7236 3.71182 28.6492L1.68047 28.0653L7.44408 24.8301C7.50594 24.8758 10.2593 26.4276 10.2593 26.4276C10.2554 26.5182 10.2532 26.6092 10.2532 26.7008C10.2532 30.1742 13.0553 33 16.4996 33C19.9439 33 22.7459 30.1742 22.7459 26.7008C22.7459 26.6093 22.7436 26.5183 22.7398 26.4277C22.7398 26.4277 25.4951 24.8755 25.5566 24.83L31.3194 28.0656L29.2891 28.6493C29.0304 28.7237 28.8805 28.9953 28.9544 29.2561C29.0154 29.4718 29.2105 29.6124 29.4225 29.6124C29.4668 29.6124 29.5118 29.6063 29.5564 29.5935L32.4335 28.7663C32.6302 28.7096 32.8004 28.5729 32.901 28.3906C33.0017 28.2073 33.0268 27.9961 32.9707 27.7931ZM8.13195 24.1096C8.06152 24.0699 8.02415 24.0451 8.00462 24.0307C7.99766 23.9693 7.99966 14.5867 7.99966 14.5867L16.0124 19.0847V20.4207C13.236 20.6376 10.9631 22.6932 10.3919 25.3782L8.13195 24.1096ZM16.4994 32.0181C13.5924 32.0181 11.2273 29.6327 11.2273 26.7007C11.2273 23.7688 13.5924 21.3834 16.4994 21.3834C19.4066 21.3834 21.7717 23.7688 21.7717 26.7007C21.7717 29.6327 19.4066 32.0181 16.4994 32.0181Z"/>
</svg>
