<svg width="15" height="21" viewBox="0 0 15 21" fill="none" xmlns="http://www.w3.org/2000/svg">
<path d="M14.9267 7.11183C14.8743 5.1835 14.0618 3.35405 12.6663 2.02223C11.2708 0.690402 9.40541 -0.0358246 7.47673 0.00183227C5.54967 -0.0412965 3.68358 0.678443 2.28457 2.00441C0.885565 3.33037 0.066892 5.15523 0.00672703 7.08183C-0.173273 10.5718 3.28673 15.6618 7.05673 20.6618C7.10576 20.7205 7.16689 20.7678 7.23593 20.8006C7.30498 20.8334 7.3803 20.8509 7.45673 20.8518C7.53351 20.853 7.60954 20.8365 7.67891 20.8035C7.74828 20.7706 7.80912 20.7221 7.85673 20.6618C11.6267 15.6618 15.0967 10.5718 14.9067 7.08183L14.9267 7.11183ZM7.46673 19.5618C4.00673 14.9218 0.836727 10.1918 1.00673 7.14183C1.05127 5.47344 1.75497 3.89065 2.96382 2.73991C4.17266 1.58916 5.78817 0.964208 7.45673 1.00183C9.12625 0.964174 10.7428 1.58882 11.9533 2.73929C13.1637 3.88976 13.8696 5.47255 13.9167 7.14183C14.1067 10.1918 11.0067 14.9218 7.46673 19.5618Z" fill="#2B3B50"/>
<path d="M7.50677 3.31189C6.75279 3.31189 6.01577 3.5356 5.38901 3.95469C4.76224 4.37378 4.27391 4.96942 3.98584 5.66618C3.69776 6.36295 3.6229 7.12953 3.77072 7.86887C3.91854 8.60821 4.28241 9.28707 4.81624 9.8195C5.35008 10.3519 6.0299 10.714 6.76962 10.8599C7.50935 11.0058 8.27572 10.9289 8.97173 10.639C9.66774 10.3491 10.2621 9.8592 10.6795 9.23133C11.097 8.60347 11.3187 7.86586 11.3168 7.11189C11.3141 6.10315 10.9115 5.13663 10.1973 4.42427C9.48309 3.71192 8.51551 3.31189 7.50677 3.31189ZM7.50677 9.92189C6.951 9.92189 6.40772 9.75709 5.94561 9.44832C5.48351 9.13955 5.12335 8.70069 4.91066 8.18723C4.69798 7.67377 4.64234 7.10877 4.75076 6.56369C4.85918 6.0186 5.12681 5.51791 5.5198 5.12492C5.91278 4.73193 6.41348 4.46431 6.95856 4.35588C7.50365 4.24746 8.06865 4.30311 8.58211 4.51579C9.09557 4.72847 9.53443 5.08864 9.8432 5.55074C10.152 6.01284 10.3168 6.55612 10.3168 7.11189C10.3168 7.4809 10.2441 7.84631 10.1029 8.18723C9.96165 8.52816 9.75467 8.83793 9.49374 9.09886C9.2328 9.35979 8.92303 9.56678 8.58211 9.70799C8.24118 9.84921 7.87578 9.92189 7.50677 9.92189Z" fill="#2B3B50"/>
</svg>
