<svg width="11" height="11" viewBox="0 0 11 11" fill="none" xmlns="http://www.w3.org/2000/svg">
<path d="M8.71129 1.96887C7.91138 1.16097 6.8491 0.66552 5.71606 0.571873C4.58302 0.478226 3.45381 0.79255 2.53211 1.45815C1.61041 2.12375 0.956903 3.09681 0.689461 4.20181C0.422019 5.30681 0.558249 6.47101 1.07358 7.48441L0.567718 9.94033C0.56247 9.96477 0.562321 9.99003 0.567282 10.0145C0.572243 10.039 0.582206 10.0623 0.59655 10.0827C0.617562 10.1138 0.647555 10.1377 0.682524 10.1513C0.717494 10.1649 0.755774 10.1675 0.792254 10.1587L3.19924 9.58823C4.2098 10.0905 5.36578 10.218 6.46149 9.94796C7.55721 9.67794 8.52159 9.02793 9.18304 8.1136C9.84449 7.19928 10.1601 6.07994 10.0737 4.95475C9.98733 3.82956 9.50456 2.77151 8.71129 1.96887ZM7.9608 7.95882C7.40734 8.51072 6.69465 8.87504 5.92317 9.00043C5.15169 9.12583 4.3603 9.00597 3.66055 8.65776L3.32505 8.49177L1.84941 8.84124L1.85378 8.82289L2.15956 7.33763L1.99531 7.0135C1.63777 6.3113 1.51164 5.51395 1.63499 4.73568C1.75835 3.9574 2.12486 3.23814 2.68202 2.68092C3.38211 1.98105 4.3315 1.58789 5.32141 1.58789C6.31133 1.58789 7.26072 1.98105 7.9608 2.68092C7.96676 2.68775 7.97318 2.69418 7.98002 2.70014C8.67143 3.40181 9.0574 4.34836 9.0538 5.33344C9.0502 6.31851 8.65732 7.26222 7.9608 7.95882Z" fill="white"/>
<path d="M7.82973 6.86934C7.64887 7.15416 7.36318 7.50276 7.0041 7.58925C6.37505 7.74127 5.40963 7.59449 4.20832 6.47443L4.19347 6.46133C3.13719 5.48193 2.86285 4.66679 2.92925 4.02027C2.96595 3.65332 3.27174 3.32132 3.52947 3.10465C3.57022 3.06987 3.61854 3.04511 3.67057 3.03235C3.72259 3.01959 3.77689 3.01917 3.8291 3.03114C3.88132 3.04312 3.93001 3.06714 3.97128 3.10129C4.01255 3.13545 4.04526 3.17878 4.06678 3.22784L4.45557 4.10152C4.48084 4.15817 4.4902 4.22063 4.48266 4.28219C4.47512 4.34376 4.45095 4.40211 4.41276 4.45099L4.21618 4.7061C4.174 4.75878 4.14855 4.82287 4.1431 4.89014C4.13765 4.9574 4.15245 5.02476 4.18561 5.08353C4.29569 5.27662 4.55954 5.56056 4.85222 5.82354C5.18073 6.12059 5.54505 6.39231 5.7757 6.48492C5.83742 6.51013 5.90528 6.51628 5.97052 6.50258C6.03577 6.48888 6.09542 6.45595 6.14178 6.40803L6.36981 6.17826C6.41381 6.13487 6.46852 6.10393 6.52838 6.08858C6.58824 6.07323 6.65109 6.07403 6.71054 6.09089L7.63402 6.35299C7.68496 6.36862 7.73166 6.39569 7.77053 6.43213C7.80941 6.46857 7.83943 6.51341 7.85832 6.56324C7.8772 6.61306 7.88444 6.66655 7.87949 6.7196C7.87453 6.77265 7.85751 6.82387 7.82973 6.86934Z" fill="white"/>
</svg>
