<svg width="18" height="19" viewBox="0 0 18 19" fill="none" xmlns="http://www.w3.org/2000/svg">
<path d="M3.64762 12.0105C5.42973 14.1408 7.57501 15.8181 10.0235 17.005C10.9558 17.4467 12.2025 17.9709 13.5915 18.0607C13.6776 18.0645 13.76 18.0682 13.8461 18.0682C14.7783 18.0682 15.5271 17.7463 16.1374 17.0836C16.1411 17.0798 16.1486 17.0723 16.1524 17.0649C16.3695 16.8028 16.6166 16.5669 16.8749 16.3161C17.0509 16.1476 17.2306 15.9716 17.4028 15.7919C18.2003 14.9608 18.2003 13.905 17.3954 13.1L15.1452 10.8499C14.7634 10.4531 14.3066 10.2434 13.8274 10.2434C13.3482 10.2434 12.8877 10.4531 12.4945 10.8462L11.1542 12.1865C11.0307 12.1154 10.9034 12.0517 10.7836 11.9918C10.6338 11.9169 10.4953 11.8458 10.3717 11.7672C9.1512 10.9922 8.043 9.98133 6.98347 8.68219C6.44808 8.00453 6.08867 7.43546 5.83782 6.85515C6.18975 6.53691 6.51922 6.2037 6.83745 5.87798C6.94977 5.76192 7.06583 5.64585 7.18189 5.52979C7.58624 5.12545 7.80339 4.65746 7.80339 4.18198C7.80339 3.7065 7.58998 3.2385 7.18189 2.83416L6.0662 1.71847C5.93516 1.58743 5.81161 1.46013 5.68432 1.3291C5.43722 1.07451 5.17889 0.812434 4.9243 0.576566C4.53868 0.198429 4.08566 0 3.60644 0C3.13096 0 2.6742 0.198429 2.27359 0.58031L0.873363 1.98054C0.364187 2.48972 0.0759042 3.10747 0.0160013 3.82256C-0.0551335 4.71736 0.1096 5.66832 0.536408 6.81771C1.1916 8.59608 2.18 10.2472 3.64762 12.0105ZM0.929522 3.90118C0.974449 3.40324 1.16539 2.98766 1.52481 2.62824L2.91755 1.2355C3.1347 1.02584 3.37431 0.917264 3.60644 0.917264C3.83482 0.917264 4.06694 1.02584 4.28034 1.24299C4.53119 1.47511 4.76706 1.71847 5.02164 1.9768C5.14894 2.10784 5.27997 2.23887 5.41101 2.37366L6.52671 3.48935C6.75883 3.72147 6.87864 3.95734 6.87864 4.18946C6.87864 4.42159 6.75883 4.65746 6.52671 4.88958C6.41064 5.00564 6.29458 5.12545 6.17852 5.24151C5.83033 5.59344 5.50461 5.92665 5.14519 6.24488L5.12647 6.2636C4.81573 6.57435 4.8644 6.87012 4.93928 7.09476C4.94302 7.10599 4.94676 7.11348 4.95051 7.12471C5.23879 7.81734 5.63939 8.47627 6.26463 9.2625C7.38781 10.6478 8.57089 11.7223 9.87378 12.5497C10.0348 12.6545 10.207 12.7369 10.368 12.8192C10.5177 12.8941 10.6563 12.9652 10.7798 13.0439C10.7948 13.0514 10.806 13.0588 10.821 13.0663C10.9445 13.13 11.0644 13.1599 11.1842 13.1599C11.4837 13.1599 11.6784 12.969 11.742 12.9053L13.1422 11.5051C13.3594 11.288 13.5953 11.1719 13.8274 11.1719C14.1119 11.1719 14.344 11.3479 14.4901 11.5051L16.7477 13.759C17.1969 14.2082 17.1932 14.6949 16.7364 15.1704C16.5792 15.3389 16.4144 15.4999 16.2385 15.6684C15.9764 15.923 15.7031 16.185 15.456 16.4808C15.0254 16.9451 14.5125 17.1622 13.8498 17.1622C13.7862 17.1622 13.7188 17.1585 13.6552 17.1547C12.4271 17.0761 11.2852 16.5969 10.4279 16.1888C8.09916 15.0619 6.05497 13.4632 4.35897 11.434C2.96248 9.75295 2.02275 8.18799 1.40126 6.5107C1.01563 5.48112 0.869619 4.65371 0.929522 3.90118Z" fill="#2B3B50"/>
</svg>
