<svg viewBox="0 0 18 18" xmlns="http://www.w3.org/2000/svg">
<path d="M9 0C4.02571 0 0 4.02525 0 9C0 13.9742 4.02525 18 9 18C13.9743 18 18 13.9747 18 9C18 4.02578 13.9747 0 9 0ZM9 16.7442C4.72985 16.7442 1.25582 13.2702 1.25582 9C1.25582 4.72982 4.72985 1.25582 9 1.25582C13.2701 1.25582 16.7442 4.72982 16.7442 9C16.7442 13.2702 13.2701 16.7442 9 16.7442Z" />
<path d="M9.00021 7.50231C8.4671 7.50231 8.08801 7.72745 8.08801 8.05915V12.5727C8.08801 12.8571 8.4671 13.1413 9.00021 13.1413C9.50963 13.1413 9.92422 12.8571 9.92422 12.5727V8.05908C9.92422 7.72742 9.50963 7.50231 9.00021 7.50231ZM9.00021 4.71832C8.45525 4.71832 8.02881 5.10926 8.02881 5.55944C8.02881 6.00965 8.45529 6.41243 9.00021 6.41243C9.53332 6.41243 9.95984 6.00965 9.95984 5.55944C9.95984 5.10926 9.53329 4.71832 9.00021 4.71832Z" />
</svg>
