<svg width="18" height="18" viewBox="0 0 18 18" fill="none" xmlns="http://www.w3.org/2000/svg">
<path d="M6.75 0H1.6875C0.757125 0 0 0.757125 0 1.6875V6.75C0 7.68038 0.757125 8.4375 1.6875 8.4375H6.75C7.68038 8.4375 8.4375 7.68038 8.4375 6.75V1.6875C8.4375 0.757125 7.68038 0 6.75 0ZM7.3125 6.75C7.3125 7.05994 7.0605 7.3125 6.75 7.3125H1.6875C1.377 7.3125 1.125 7.05994 1.125 6.75V1.6875C1.125 1.37756 1.377 1.125 1.6875 1.125H6.75C7.0605 1.125 7.3125 1.37756 7.3125 1.6875V6.75ZM16.3125 0H11.25C10.3196 0 9.5625 0.757125 9.5625 1.6875V6.75C9.5625 7.68038 10.3196 8.4375 11.25 8.4375H16.3125C17.2429 8.4375 18 7.68038 18 6.75V1.6875C18 0.757125 17.2429 0 16.3125 0ZM16.875 6.75C16.875 7.05994 16.623 7.3125 16.3125 7.3125H11.25C10.9395 7.3125 10.6875 7.05994 10.6875 6.75V1.6875C10.6875 1.37756 10.9395 1.125 11.25 1.125H16.3125C16.623 1.125 16.875 1.37756 16.875 1.6875V6.75ZM16.3125 9.5625H11.25C10.3196 9.5625 9.5625 10.3196 9.5625 11.25V16.3125C9.5625 17.2429 10.3196 18 11.25 18H16.3125C17.2429 18 18 17.2429 18 16.3125V11.25C18 10.3196 17.2429 9.5625 16.3125 9.5625ZM16.875 16.3125C16.875 16.6224 16.623 16.875 16.3125 16.875H11.25C10.9395 16.875 10.6875 16.6224 10.6875 16.3125V11.25C10.6875 10.9401 10.9395 10.6875 11.25 10.6875H16.3125C16.623 10.6875 16.875 10.9401 16.875 11.25V16.3125ZM6.75 9.5625H1.6875C0.757125 9.5625 0 10.3196 0 11.25V16.3125C0 17.2429 0.757125 18 1.6875 18H6.75C7.68038 18 8.4375 17.2429 8.4375 16.3125V11.25C8.4375 10.3196 7.68038 9.5625 6.75 9.5625ZM7.3125 16.3125C7.3125 16.6224 7.0605 16.875 6.75 16.875H1.6875C1.377 16.875 1.125 16.6224 1.125 16.3125V11.25C1.125 10.9401 1.377 10.6875 1.6875 10.6875H6.75C7.0605 10.6875 7.3125 10.9401 7.3125 11.25V16.3125Z" fill="#B4C8FF"/>
</svg>
