<svg viewBox="0 0 35 35" xmlns="http://www.w3.org/2000/svg">
<g clip-path="url(#clip0_467_211)">
<path d="M17.4988 4.77109C15.7432 4.77109 14.3154 6.19888 14.3154 7.9545C14.3154 9.71012 15.7432 11.1378 17.4988 11.1378C19.2545 11.1378 20.6822 9.71005 20.6822 7.9545C20.6822 6.19896 19.2544 4.77109 17.4988 4.77109ZM17.4988 9.54695C16.621 9.54695 15.9064 8.83231 15.9064 7.9545C15.9064 7.07669 16.621 6.36205 17.4988 6.36205C18.3767 6.36205 19.0913 7.07669 19.0913 7.9545C19.0913 8.83231 18.3767 9.54695 17.4988 9.54695Z"/>
<path d="M34.2046 14.3182C34.6443 14.3182 35.0001 13.9645 35.0001 13.5249V10.3435C35.0001 10.0631 34.8525 9.80287 34.6109 9.65992L19.0505 0.419164C19.0435 0.414466 19.0365 0.410588 19.0295 0.40671C18.0624 -0.129253 16.9718 -0.14551 15.9487 0.417598L0.389201 9.65992C0.270545 9.73023 0.172254 9.83025 0.104007 9.95011C0.0357613 10.07 -8.47562e-05 10.2055 1.50485e-07 10.3435V13.5249C1.50485e-07 13.9645 0.355792 14.3182 0.79548 14.3182H3.18185V28.637C1.42697 28.637 1.50485e-07 30.0639 1.50485e-07 31.8185V34.2047C-5.86771e-05 34.3091 0.0204774 34.4126 0.0604341 34.5091C0.100391 34.6057 0.158984 34.6934 0.232864 34.7672C0.306744 34.8411 0.394461 34.8997 0.490999 34.9397C0.587537 34.9796 0.691003 35.0001 0.79548 35.0001H34.2046C34.3091 35.0001 34.4125 34.9796 34.5091 34.9397C34.6056 34.8997 34.6933 34.8411 34.7672 34.7672C34.8411 34.6934 34.8997 34.6057 34.9396 34.5091C34.9796 34.4126 35.0001 34.3091 35.0001 34.2047V31.8185C35.0001 30.0639 33.5731 28.637 31.8182 28.637V14.3182H34.2046ZM33.4091 31.8182V33.4091H1.59089V31.8182C1.59089 30.9412 2.30478 30.2273 3.18177 30.2273H31.8182C32.6952 30.2273 33.4091 30.9411 33.4091 31.8182ZM4.77273 28.6364V14.3182H7.95458V28.6364H4.77273ZM9.54546 28.6364V14.3182H14.3182V28.6364H9.54546ZM15.9091 28.6364V14.3182H19.0909V28.6364H15.9091ZM20.6818 28.6364V14.3182H25.4545V28.6364H20.6818ZM27.0455 28.6364V14.3182H30.2273V28.6364H27.0455ZM1.59089 12.7273V10.7938L16.738 1.7952C17.2336 1.52256 17.7602 1.52331 18.2497 1.78976L33.4091 10.7938V12.7273H1.59089Z" />
</g>
<defs>
<clipPath id="clip0_467_211">
<rect/>
</clipPath>
</defs>
</svg>
