<svg viewBox="0 0 35 35" xmlns="http://www.w3.org/2000/svg">
<path d="M28.0251 18.0988C27.9589 18.0867 27.8909 18.0877 27.8251 18.1018C27.7593 18.1159 27.6969 18.1429 27.6415 18.1811C27.586 18.2194 27.5387 18.2681 27.5021 18.3247C27.4656 18.3812 27.4405 18.4444 27.4284 18.5106C27.4039 18.6444 27.4335 18.7824 27.5107 18.8943C27.588 19.0062 27.7065 19.0828 27.8402 19.1073C30.738 19.6387 32.8412 22.164 32.8412 25.112C32.8412 28.0753 30.7189 30.5518 27.9146 31.1024C27.9091 31.1032 27.9035 31.1036 27.898 31.1046C27.5152 31.1789 27.1262 31.2165 26.7363 31.2169C23.37 31.2169 20.6313 28.4782 20.6313 25.112C20.6313 22.1256 22.7822 19.6299 25.6323 19.1073C25.7661 19.0828 25.8846 19.0062 25.9618 18.8943C26.039 18.7824 26.0686 18.6444 26.0441 18.5106C25.9931 18.2321 25.7255 18.0476 25.4474 18.0988C23.8133 18.3984 22.3966 19.2419 21.3671 20.4207L18.1793 19.1862V17.4069C19.3345 16.5225 20.1311 15.1934 20.3119 13.6774C21.6849 13.6165 22.7072 12.518 22.7072 11.2119C22.7075 10.6119 22.4878 10.0327 22.0896 9.58392V7.33373C22.0897 3.28986 18.7999 0 14.7562 0C10.7124 0 7.42249 3.28986 7.42249 7.33366V9.64209C7.02272 10.0839 6.80514 10.6313 6.80514 11.2118C6.80514 12.5165 7.82533 13.6163 9.20011 13.6773C9.38023 15.2029 10.1854 16.5872 11.4536 17.4928V19.1861L4.24891 21.9792C4.24568 21.9805 4.24247 21.9818 4.23927 21.9831C4.11246 22.0352 1.13281 23.3002 1.13281 26.7829V33.8386C1.13281 34.479 1.65378 35 2.29424 35H27.3522C27.9895 35 28.508 34.4816 28.508 33.8442V32.0197C31.5854 31.2298 33.8666 28.4324 33.8666 25.1122C33.8666 21.669 31.4099 18.7195 28.0251 18.0988ZM19.679 20.8665L17.832 24.5681C17.807 24.5503 17.3436 24.2211 15.5588 22.9536L17.8299 20.1503L19.679 20.8665ZM16.1391 24.6237L15.6111 25.4185H14.026L13.498 24.6237L14.8186 23.6858L16.1391 24.6237ZM12.4791 19.3508V18.0711C13.1719 18.3692 13.9937 18.5432 14.8288 18.5432C15.6335 18.5432 16.4303 18.3669 17.154 18.0292V19.3557L14.8185 22.2385L12.4791 19.3508ZM21.1859 12.295C20.9528 12.4955 20.666 12.615 20.3525 12.6461V9.77799C21.6657 9.90514 22.1241 11.4881 21.1859 12.295ZM9.15998 12.6461C8.37166 12.568 7.83066 11.9367 7.83066 11.2119C7.83066 10.4852 8.46162 9.9158 9.15998 9.8013V12.6461ZM9.17673 8.76518C8.93781 8.78698 8.65378 8.85753 8.44795 8.93771V7.33366C8.44795 3.85533 11.2778 1.02546 14.7561 1.02546C18.2343 1.02546 21.0643 3.85526 21.0643 7.33366V8.89273C20.835 8.8114 20.5954 8.76298 20.3525 8.74891C20.3525 8.13272 20.4275 8.30806 18.641 6.39153C18.4982 6.23827 18.3307 6.01344 17.9763 5.93899C17.8506 5.91254 17.7209 5.91119 17.5947 5.93503C17.4684 5.95887 17.3481 6.00742 17.2407 6.0779C15.226 7.39402 12.6976 8.13285 10.2691 7.97371C9.67562 7.93454 9.26819 8.27203 9.17673 8.76518ZM10.1854 13.0195V8.99616C12.7944 9.17089 15.5471 8.39856 17.7677 6.95837C18.6942 7.95389 19.1926 8.47055 19.3271 8.64384C19.3271 13.7583 19.3283 12.8482 19.3243 13.132C19.2645 15.549 17.283 17.5177 14.8288 17.5177C12.0985 17.5178 10.1854 15.4127 10.1854 13.0195ZM11.8041 20.1516L14.0756 22.9554L11.8049 24.5682L9.95794 20.8666L11.8041 20.1516ZM6.90474 33.9746V27.8759C6.90474 27.5927 6.67525 27.3632 6.39204 27.3632C6.10883 27.3632 5.87935 27.5927 5.87935 27.8759V33.9746H2.29424C2.25819 33.9746 2.22364 33.9602 2.19816 33.9347C2.17267 33.9092 2.15833 33.8747 2.15827 33.8386V26.783C2.15827 24.0246 4.4881 22.9916 4.62604 22.933L8.99735 21.2383L10.9203 25.0921L10.9204 25.0922C10.9823 25.2165 11.0705 25.326 11.1789 25.413C11.2872 25.4999 11.4131 25.5624 11.5479 25.596C12.0476 25.721 12.3452 25.4423 12.6614 25.2178L13.2116 26.0459L11.8697 33.9746H6.90474ZM22.7364 33.9745H17.7674L17.3072 31.2554C17.2965 31.1885 17.2727 31.1244 17.2371 31.0668C17.2015 31.0091 17.1549 30.9591 17.0998 30.9196C17.0448 30.8801 16.9825 30.8519 16.9165 30.8366C16.8505 30.8214 16.7821 30.8193 16.7153 30.8306C16.6485 30.8419 16.5847 30.8664 16.5274 30.9025C16.4701 30.9386 16.4205 30.9858 16.3815 31.0412C16.3426 31.0966 16.315 31.1592 16.3003 31.2253C16.2857 31.2915 16.2843 31.3598 16.2962 31.4265L16.7275 33.9745H12.9098L14.1844 26.4439H15.4529L15.8913 29.0337C15.9025 29.1001 15.9266 29.1637 15.9624 29.2207C15.9982 29.2778 16.0449 29.3272 16.0998 29.3662C16.1547 29.4052 16.2167 29.433 16.2824 29.4481C16.348 29.4631 16.416 29.465 16.4824 29.4537C16.6164 29.431 16.736 29.356 16.8147 29.2452C16.8935 29.1343 16.925 28.9968 16.9023 28.8627L16.4256 26.0459L16.9758 25.2178L17.2986 25.4471C17.7802 25.7892 18.4532 25.6201 18.7167 25.0923H18.7168L20.6396 21.2386L20.7271 21.2725C19.9946 22.4192 19.6056 23.7516 19.606 25.1122C19.606 27.5626 20.8485 29.7281 22.7365 31.0121L22.7364 33.9745ZM27.4827 33.8442C27.4826 33.8788 27.4689 33.9119 27.4445 33.9364C27.42 33.9608 27.3869 33.9746 27.3523 33.9746H23.7619V31.5917C24.6677 32.0091 25.6753 32.2426 26.7364 32.2426C26.9884 32.2426 27.2373 32.2293 27.4828 32.2036L27.4827 33.8442Z" />
<path d="M29.163 23.597C29.0681 23.4996 28.9383 23.4439 28.8024 23.4422C28.6664 23.4404 28.5353 23.4928 28.4379 23.5877L26.4222 25.5525L25.5777 24.7248C25.4806 24.6296 25.3497 24.5769 25.2137 24.5783C25.0777 24.5796 24.9478 24.6349 24.8526 24.7321C24.7574 24.8292 24.7047 24.9602 24.7061 25.0961C24.7074 25.2321 24.7628 25.362 24.8599 25.4572L26.0623 26.6355C26.158 26.7296 26.2869 26.7822 26.4212 26.7821C26.5549 26.7822 26.6834 26.73 26.779 26.6365L29.1536 24.322C29.2018 24.275 29.2403 24.219 29.2669 24.1571C29.2935 24.0953 29.3076 24.0288 29.3085 23.9614C29.3093 23.8941 29.2969 23.8273 29.272 23.7648C29.247 23.7022 29.21 23.6452 29.163 23.597Z" />
<path d="M26.7361 19.7852C23.7988 19.7852 21.4092 22.1748 21.4092 25.1121C21.4092 28.0493 23.7988 30.439 26.7361 30.439C29.6734 30.439 32.063 28.0493 32.063 25.1121C32.063 22.1748 29.6734 19.7852 26.7361 19.7852ZM26.7361 29.4134C24.3643 29.4134 22.4346 27.4838 22.4346 25.112C22.4346 22.7402 24.3642 20.8105 26.7361 20.8105C29.1079 20.8105 31.0375 22.7402 31.0375 25.112C31.0375 27.4838 29.1079 29.4134 26.7361 29.4134Z" />
</svg>
