<svg viewBox="0 0 42 40"  xmlns="http://www.w3.org/2000/svg">
<path fill-rule="evenodd" clip-rule="evenodd" d="M21 1.5C10.2082 1.5 1.5 9.8447 1.5 20.09C1.5 30.3353 10.2082 38.68 21 38.68C31.7917 38.68 40.5 30.3353 40.5 20.09C40.5 9.8447 31.7917 1.5 21 1.5ZM0.5 20.09C0.5 9.24904 9.70036 0.5 21 0.5C32.2996 0.5 41.5 9.24904 41.5 20.09C41.5 30.9309 32.2996 39.68 21 39.68C9.70036 39.68 0.5 30.9309 0.5 20.09Z" />
<path fill-rule="evenodd" clip-rule="evenodd" d="M25.2777 22.2451C23.9993 22.2451 23.0031 23.2286 23.0031 24.3934C23.0031 25.5582 23.9993 26.5418 25.2777 26.5418C26.5561 26.5418 27.5522 25.5582 27.5522 24.3934C27.5522 23.2286 26.5561 22.2451 25.2777 22.2451ZM22.0031 24.3934C22.0031 22.633 23.4914 21.2451 25.2777 21.2451C27.064 21.2451 28.5522 22.633 28.5522 24.3934C28.5522 26.1539 27.064 27.5418 25.2777 27.5418C23.4914 27.5418 22.0031 26.1539 22.0031 24.3934Z" />
<path fill-rule="evenodd" clip-rule="evenodd" d="M16.6074 13.5278C15.329 13.5278 14.3328 14.5114 14.3328 15.6762C14.3328 16.8409 15.329 17.8245 16.6074 17.8245C17.8858 17.8245 18.882 16.8409 18.882 15.6762C18.882 14.5114 17.8858 13.5278 16.6074 13.5278ZM13.3328 15.6762C13.3328 13.9157 14.8211 12.5278 16.6074 12.5278C18.3937 12.5278 19.882 13.9157 19.882 15.6762C19.882 17.4366 18.3937 18.8245 16.6074 18.8245C14.8211 18.8245 13.3328 17.4366 13.3328 15.6762Z" />
<path fill-rule="evenodd" clip-rule="evenodd" d="M28.882 12.6881C29.0696 12.8907 29.0575 13.2071 28.8549 13.3947C26.3348 15.7283 23.8148 18.0647 21.2946 20.4013L21.2944 20.4015L21.2929 20.4029C18.7731 22.739 16.2533 25.0752 13.7335 27.4087C13.5309 27.5963 13.2145 27.5842 13.0269 27.3816C12.8393 27.179 12.8514 26.8626 13.054 26.675C15.5741 24.3413 18.0942 22.0048 20.6145 19.6682C23.1347 17.3316 25.655 14.9949 28.1754 12.661C28.378 12.4733 28.6944 12.4855 28.882 12.6881Z" />
</svg>
