<svg viewBox="0 0 25 25" xmlns="http://www.w3.org/2000/svg">
<g clip-path="url(#clip0_519_497)">
<path d="M22.8027 0H2.19727C0.985693 0 0 0.985693 0 2.19727V22.8027C0 24.0143 0.985693 25 2.19727 25H22.8027C24.0143 25 25 24.0143 25 22.8027V2.19727C25 0.985693 24.0143 0 22.8027 0ZM23.5352 22.8027C23.5352 23.2066 23.2066 23.5352 22.8027 23.5352H2.19727C1.79341 23.5352 1.46484 23.2066 1.46484 22.8027V2.19727C1.46484 1.79341 1.79341 1.46484 2.19727 1.46484H22.8027C23.2066 1.46484 23.5352 1.79341 23.5352 2.19727V22.8027Z"/>
<path d="M9.57031 5.9082H5.17578C4.77129 5.9082 4.44336 6.23613 4.44336 6.64062C4.44336 6.97124 4.44336 18.0289 4.44336 18.3594C4.44336 18.7639 4.77129 19.0918 5.17578 19.0918C5.58027 19.0918 5.9082 18.7639 5.9082 18.3594V13.2324H9.57031C11.5896 13.2324 13.2324 11.5896 13.2324 9.57031C13.2324 7.55103 11.5896 5.9082 9.57031 5.9082ZM9.57031 11.7676H5.9082V7.37305H9.57031C10.7819 7.37305 11.7676 8.35874 11.7676 9.57031C11.7676 10.7819 10.7819 11.7676 9.57031 11.7676Z"/>
<path d="M19.8242 10.3027H17.627V8.10547C17.627 7.70161 17.9555 7.37305 18.3594 7.37305H19.8242C20.2287 7.37305 20.5566 7.04512 20.5566 6.64062C20.5566 6.23613 20.2287 5.9082 19.8242 5.9082H18.3594C17.1478 5.9082 16.1621 6.8939 16.1621 8.10547V10.3027H15.4297C15.0252 10.3027 14.6973 10.6307 14.6973 11.0352C14.6973 11.4396 15.0252 11.7676 15.4297 11.7676H16.1621V18.3594C16.1621 18.7639 16.49 19.0918 16.8945 19.0918C17.299 19.0918 17.627 18.7639 17.627 18.3594V11.7676H19.8242C20.2287 11.7676 20.5566 11.4396 20.5566 11.0352C20.5566 10.6307 20.2287 10.3027 19.8242 10.3027Z"/>
</g>
<defs>
<clipPath id="clip0_519_497">
<rect />
</clipPath>
</defs>
</svg>
