<svg  viewBox="0 0 13 12"  xmlns="http://www.w3.org/2000/svg">
<path d="M12.6851 0.457559V0.455279C12.6637 0.361352 12.6164 0.275283 12.5487 0.206781C12.4809 0.138279 12.3954 0.0900716 12.3017 0.0675969C11.5466 -0.116615 10.3588 0.0797595 9.04242 0.606804C7.71568 1.13892 6.47257 1.92441 5.63234 2.76617C5.36302 3.03405 5.11282 3.32049 4.88358 3.62337C4.31777 3.59803 3.81936 3.67861 3.39949 3.86181C1.93644 4.50567 0.869935 5.50477 0.758698 6.18131C0.742602 6.27744 0.748905 6.37599 0.777115 6.46928C0.805326 6.56257 0.854684 6.6481 0.921349 6.7192C0.988013 6.7903 1.07019 6.84507 1.16147 6.87922C1.25276 6.91338 1.35069 6.92601 1.44766 6.91613H1.45095L3.7294 7.38693C3.73143 7.4077 3.73371 7.42671 3.73548 7.44419C3.75642 7.64279 3.84498 7.82815 3.98634 7.96921L4.78172 8.7651C4.92257 8.90665 5.10789 8.99533 5.30648 9.0162L5.36096 9.02203L5.83226 11.2985V11.3018C5.8232 11.3894 5.83252 11.478 5.85965 11.5619C5.88677 11.6457 5.9311 11.723 5.98979 11.7887C6.04848 11.8545 6.12024 11.9073 6.20049 11.9437C6.28074 11.9801 6.36772 11.9994 6.45584 12.0003C6.49107 12.0004 6.52624 11.9975 6.561 11.9917C7.24134 11.8823 8.23969 10.8208 8.88177 9.34991C9.06345 8.93284 9.14377 8.43645 9.12122 7.87165C9.42547 7.64292 9.71295 7.39269 9.98147 7.1229C10.8285 6.28013 11.6166 5.04715 12.1431 3.73968C12.6674 2.43828 12.8648 1.24154 12.6851 0.457559ZM9.97235 4.88879C9.76415 5.0972 9.49881 5.23919 9.2099 5.29677C8.92099 5.35436 8.62149 5.32496 8.34929 5.21229C8.07709 5.09963 7.84443 4.90876 7.68073 4.66384C7.51703 4.41891 7.42965 4.13094 7.42965 3.83634C7.42965 3.54175 7.51703 3.25378 7.68073 3.00885C7.84443 2.76393 8.07709 2.57306 8.34929 2.4604C8.62149 2.34773 8.92099 2.31833 9.2099 2.37592C9.49881 2.4335 9.76415 2.57549 9.97235 2.7839C10.1119 2.92136 10.2227 3.08519 10.2984 3.26587C10.374 3.44655 10.413 3.64047 10.413 3.83634C10.413 4.03222 10.374 4.22614 10.2984 4.40682C10.2227 4.5875 10.1119 4.75133 9.97235 4.88879Z" />
<path d="M3.63697 9.71129C3.53892 9.69912 3.4398 9.72318 3.35824 9.77894C3.19633 9.88967 3.03365 9.99913 2.86946 10.1058C2.53727 10.3217 2.13996 9.94263 2.33735 9.59904L2.64521 9.06692C2.68923 9.00254 2.71374 8.92682 2.7158 8.84886C2.71786 8.77089 2.69739 8.69398 2.65685 8.62736C2.6163 8.56073 2.5574 8.50722 2.4872 8.47323C2.417 8.43924 2.33849 8.42623 2.26108 8.43574C1.91939 8.47895 1.60177 8.63459 1.35826 8.87815C1.26552 8.97114 0.983503 9.25342 0.831724 10.329C0.788522 10.638 0.761288 10.949 0.750133 11.2607C0.748746 11.3149 0.758208 11.3687 0.777961 11.4191C0.797713 11.4695 0.827356 11.5154 0.865141 11.5542C0.902927 11.5929 0.94809 11.6237 0.997967 11.6447C1.04784 11.6658 1.10143 11.6766 1.15555 11.6766H1.16569C1.47769 11.6655 1.78892 11.6384 2.09815 11.5955C3.17428 11.4434 3.45656 11.1612 3.5493 11.0684C3.79399 10.8248 3.94925 10.5057 3.98994 10.1628C4.00296 10.0561 3.9731 9.94866 3.90692 9.86399C3.84073 9.77932 3.74363 9.7244 3.63697 9.71129Z" />
</svg>
