<svg viewBox="0 0 34 41" xmlns="http://www.w3.org/2000/svg">
<path fill-rule="evenodd" clip-rule="evenodd" d="M11.599 11.9048C11.599 11.6286 11.8228 11.4048 12.099 11.4048H19.0071C19.0327 11.4048 19.0583 11.4068 19.0836 11.4107C19.5361 11.4807 21.6331 11.8362 23.0582 13.658L23.0621 13.663C23.266 13.9306 24.1544 15.1169 24.2435 16.8775L24.2438 16.8834C24.2566 17.2151 24.3206 19.1479 22.8745 20.8798C22.5915 21.2203 21.5413 22.4457 19.7777 22.8737C19.7787 22.8734 19.7797 22.8732 19.7806 22.8729L19.6573 22.3884L19.7749 22.8744C19.7759 22.8741 19.7768 22.8739 19.7777 22.8737C19.5814 22.9235 19.4195 22.9497 19.292 22.9632C19.2745 22.965 19.2569 22.966 19.2393 22.966H12.0757C11.9426 22.966 11.8149 22.9128 11.721 22.8183C11.6272 22.7239 11.5749 22.5958 11.5758 22.4627C11.599 18.9516 11.599 15.4292 11.599 11.9048ZM12.599 12.4048C12.5989 15.5939 12.598 18.7841 12.5789 21.966H19.211C19.2901 21.9565 19.3979 21.9385 19.534 21.9038L19.5396 21.9024C20.9782 21.5542 21.8542 20.5429 22.1056 20.2403L22.1064 20.2393C23.3027 18.807 23.2552 17.2003 23.2446 16.9251C23.1705 15.4791 22.4398 14.4965 22.2686 14.2717C21.1259 12.813 19.4349 12.4801 18.9679 12.4048H12.599Z" />
<path fill-rule="evenodd" clip-rule="evenodd" d="M9.22552 26.134C9.22552 25.8579 9.44938 25.634 9.72552 25.634H18.4333C18.7094 25.634 18.9333 25.8579 18.9333 26.134C18.9333 26.4102 18.7094 26.634 18.4333 26.634H9.72552C9.44938 26.634 9.22552 26.4102 9.22552 26.134Z" />
<path fill-rule="evenodd" clip-rule="evenodd" d="M12.1348 20.1152C12.4109 20.1152 12.6348 20.3391 12.6348 20.6152V28.9268C12.6348 29.2029 12.4109 29.4268 12.1348 29.4268C11.8586 29.4268 11.6348 29.2029 11.6348 28.9268V20.6152C11.6348 20.3391 11.8586 20.1152 12.1348 20.1152Z" />
<path fill-rule="evenodd" clip-rule="evenodd" d="M10.0209 22.4658C10.0209 22.1897 10.2447 21.9658 10.5209 21.9658H19.2286C19.5048 21.9658 19.7286 22.1897 19.7286 22.4658C19.7286 22.742 19.5048 22.9658 19.2286 22.9658H10.5209C10.2447 22.9658 10.0209 22.742 10.0209 22.4658Z" />
<path fill-rule="evenodd" clip-rule="evenodd" d="M17.4008 0.870743C17.4721 1.13752 17.3137 1.4116 17.0469 1.48292L1.5 5.63927V23.281C1.76779 25.0147 2.71104 29.581 6.70081 33.7217C10.5414 37.701 15.0089 39.0227 16.7921 39.4563C17.0604 39.5216 17.225 39.792 17.1598 40.0603C17.0945 40.3286 16.8241 40.4932 16.5558 40.428C14.6934 39.9751 10.0121 38.5928 5.98097 34.4159C1.75632 30.0313 0.779796 25.1916 0.505715 23.3945C0.501911 23.3695 0.5 23.3443 0.5 23.3191V5.25538C0.5 5.02897 0.652137 4.83082 0.870864 4.77235L16.7886 0.516844C17.0554 0.445524 17.3295 0.60397 17.4008 0.870743Z" />
<path fill-rule="evenodd" clip-rule="evenodd" d="M16.4107 0.870743C16.482 0.60397 16.7561 0.445524 17.0229 0.516844L32.9406 4.77235C33.1594 4.83082 33.3115 5.02897 33.3115 5.25538V23.3191C33.3115 23.3443 33.3096 23.3695 33.3058 23.3945C33.0317 25.1916 32.0555 30.031 27.8308 34.4156C23.7996 38.5925 19.1181 39.9751 17.2557 40.428C16.9874 40.4932 16.717 40.3286 16.6517 40.0603C16.5865 39.792 16.7511 39.5216 17.0194 39.4563C18.8026 39.0227 23.2702 37.701 27.1108 33.7216C31.1005 29.5809 32.0437 25.0147 32.3115 23.281V5.63927L16.7646 1.48292C16.4978 1.4116 16.3394 1.13752 16.4107 0.870743Z" />
<path fill-rule="evenodd" clip-rule="evenodd" d="M16.1732 39.9424C16.1732 39.6662 16.397 39.4424 16.6732 39.4424H17.137C17.4131 39.4424 17.6376 39.6662 17.6376 39.9424C17.6376 40.2185 17.4137 40.4424 17.1376 40.4424H16.6738C16.3976 40.4424 16.1732 40.2185 16.1732 39.9424Z" />
</svg>
