<svg viewBox="0 0 35 35" xmlns="http://www.w3.org/2000/svg">
<g clip-path="url(#clip0_301_820)">
<path d="M0.342446 0.342349C0.233558 0.45065 0.147229 0.579471 0.0884539 0.721356C0.0296792 0.863241 -0.000373692 1.01537 3.41825e-05 1.16895V6.63394C-0.000976231 6.74702 0.020423 6.85918 0.0629964 6.96394C0.10557 7.0687 0.168474 7.16399 0.248077 7.24431C0.32768 7.32462 0.422404 7.38838 0.526781 7.43188C0.631158 7.47539 0.743119 7.49779 0.856201 7.49779C0.969283 7.49779 1.08124 7.47539 1.18562 7.43188C1.29 7.38838 1.38472 7.32462 1.46433 7.24431C1.54393 7.16399 1.60683 7.0687 1.64941 6.96394C1.69198 6.85918 1.71338 6.74702 1.71237 6.63394V2.92312L9.41647 10.6272C9.57745 10.7858 9.79457 10.8742 10.0205 10.8734C10.2464 10.8725 10.4629 10.7824 10.6226 10.6226C10.7824 10.4629 10.8726 10.2464 10.8734 10.0205C10.8743 9.79456 10.7858 9.57743 10.6273 9.41644L2.92322 1.71234H6.63404C6.85978 1.71032 7.0756 1.61923 7.23451 1.45889C7.39343 1.29854 7.48259 1.08193 7.48259 0.856172C7.48259 0.630419 7.39343 0.413801 7.23451 0.253457C7.0756 0.0931138 6.85978 0.00202213 6.63404 4.96886e-06H1.16898C1.01541 -0.000444348 0.863284 0.0295833 0.721406 0.0883482C0.579528 0.147113 0.45072 0.233447 0.342446 0.342349ZM34.6577 34.6576C34.5494 34.7665 34.4206 34.8528 34.2787 34.9116C34.1368 34.9704 33.9847 35.0004 33.8311 35H28.3661C28.253 35.001 28.1409 34.9796 28.0361 34.937C27.9313 34.8945 27.8361 34.8316 27.7557 34.752C27.6754 34.6724 27.6117 34.5776 27.5682 34.4733C27.5246 34.3689 27.5022 34.2569 27.5022 34.1438C27.5022 34.0308 27.5246 33.9188 27.5682 33.8144C27.6117 33.71 27.6754 33.6153 27.7557 33.5357C27.8361 33.4561 27.9313 33.3932 28.0361 33.3506C28.1409 33.3081 28.253 33.2867 28.3661 33.2877H32.0769L24.3728 25.5836C24.2923 25.5043 24.2283 25.4099 24.1844 25.3057C24.1406 25.2016 24.1178 25.0898 24.1174 24.9768C24.1169 24.8638 24.1388 24.7519 24.1819 24.6474C24.2249 24.5429 24.2882 24.448 24.3681 24.3681C24.448 24.2882 24.5429 24.2249 24.6474 24.1818C24.7519 24.1388 24.8638 24.1169 24.9768 24.1173C25.0898 24.1177 25.2016 24.1405 25.3057 24.1844C25.4099 24.2282 25.5043 24.2922 25.5836 24.3727L33.2877 32.0768V28.366C33.2897 28.1403 33.3808 27.9244 33.5411 27.7655C33.7015 27.6066 33.9181 27.5175 34.1439 27.5175C34.3696 27.5175 34.5862 27.6066 34.7466 27.7655C34.9069 27.9244 34.998 28.1403 35 28.366V33.8311C35.0005 33.9846 34.9705 34.1368 34.9117 34.2786C34.8529 34.4205 34.7666 34.5493 34.6577 34.6576ZM0.342378 34.6576C0.450679 34.7665 0.5795 34.8528 0.721385 34.9116C0.86327 34.9704 1.0154 35.0004 1.16898 35H6.63397C6.74705 35.001 6.8592 34.9796 6.96397 34.937C7.06873 34.8945 7.16402 34.8316 7.24434 34.752C7.32465 34.6724 7.38841 34.5776 7.43191 34.4733C7.47542 34.3689 7.49782 34.2569 7.49782 34.1438C7.49782 34.0308 7.47542 33.9188 7.43191 33.8144C7.38841 33.71 7.32465 33.6153 7.24434 33.5357C7.16402 33.4561 7.06873 33.3932 6.96397 33.3506C6.8592 33.3081 6.74705 33.2867 6.63397 33.2877H2.92315L10.6273 25.5836C10.7078 25.5043 10.7718 25.4099 10.8156 25.3057C10.8595 25.2016 10.8823 25.0898 10.8827 24.9768C10.8832 24.8638 10.8612 24.7519 10.8182 24.6474C10.7751 24.5429 10.7119 24.448 10.632 24.3681C10.5521 24.2882 10.4571 24.2249 10.3527 24.1818C10.2482 24.1388 10.1362 24.1169 10.0232 24.1173C9.91026 24.1177 9.79847 24.1405 9.69433 24.1844C9.59019 24.2282 9.49575 24.2922 9.41647 24.3727L1.71237 32.0768V28.366C1.71035 28.1403 1.61926 27.9244 1.45892 27.7655C1.29857 27.6066 1.08195 27.5175 0.856201 27.5175C0.630448 27.5175 0.41383 27.6066 0.253486 27.7655C0.093143 27.9244 0.00205135 28.1403 3.41825e-05 28.366V33.8311C-0.000415134 33.9846 0.0296125 34.1368 0.0883774 34.2786C0.147142 34.4205 0.233476 34.5493 0.342378 34.6576ZM34.6576 0.342349C34.7665 0.45065 34.8528 0.579471 34.9116 0.721356C34.9704 0.863241 35.0004 1.01537 35 1.16895V6.63394C35.001 6.74702 34.9796 6.85918 34.9371 6.96394C34.8945 7.0687 34.8316 7.16399 34.752 7.24431C34.6724 7.32462 34.5777 7.38838 34.4733 7.43188C34.3689 7.47539 34.2569 7.49779 34.1439 7.49779C34.0308 7.49779 33.9188 7.47539 33.8144 7.43188C33.7101 7.38838 33.6153 7.32462 33.5357 7.24431C33.4561 7.16399 33.3932 7.0687 33.3507 6.96394C33.3081 6.85918 33.2867 6.74702 33.2877 6.63394V2.92312L25.5836 10.6272C25.5043 10.7077 25.4099 10.7718 25.3057 10.8156C25.2016 10.8594 25.0898 10.8822 24.9768 10.8827C24.8638 10.8831 24.7519 10.8612 24.6474 10.8182C24.5429 10.7751 24.448 10.7118 24.3681 10.6319C24.2882 10.552 24.2249 10.4571 24.1819 10.3526C24.1388 10.2482 24.1169 10.1362 24.1173 10.0232C24.1178 9.91023 24.1405 9.79844 24.1844 9.6943C24.2282 9.59016 24.2922 9.49572 24.3727 9.41644L32.0769 1.71234H28.366C28.1403 1.71032 27.9245 1.61923 27.7656 1.45889C27.6066 1.29854 27.5175 1.08193 27.5175 0.856172C27.5175 0.630419 27.6066 0.413801 27.7656 0.253457C27.9245 0.0931138 28.1403 0.00202213 28.366 4.96886e-06H33.8311C33.9847 -0.000444348 34.1368 0.0295833 34.2787 0.0883482C34.4205 0.147113 34.5493 0.233447 34.6576 0.342349Z"/>
</g>
<defs>
<clipPath id="clip0_301_820">
<rect width="35" height="35" fill="white"/>
</clipPath>
</defs>
</svg>
