<svg width="34" height="41" viewBox="0 0 34 41" fill="none" xmlns="http://www.w3.org/2000/svg">
<path fill-rule="evenodd" clip-rule="evenodd" d="M17.4008 0.870743C17.4721 1.13752 17.3137 1.4116 17.0469 1.48292L1.5 5.63927V23.281C1.76779 25.0147 2.71104 29.581 6.70081 33.7218C10.5414 37.701 15.0089 39.0227 16.7921 39.4563C17.0604 39.5216 17.225 39.792 17.1598 40.0603C17.0945 40.3286 16.8241 40.4933 16.5558 40.428C14.6934 39.9751 10.0121 38.5928 5.98097 34.4159C1.75632 30.0313 0.779796 25.1916 0.505715 23.3945C0.501911 23.3695 0.5 23.3443 0.5 23.3191V5.25538C0.5 5.02898 0.652137 4.83082 0.870864 4.77235L16.7886 0.516844C17.0554 0.445524 17.3295 0.60397 17.4008 0.870743Z" fill="#2B3B50"/>
<path fill-rule="evenodd" clip-rule="evenodd" d="M16.4122 0.870743C16.4835 0.60397 16.7576 0.445524 17.0244 0.516844L32.9422 4.77235C33.1609 4.83082 33.313 5.02898 33.313 5.25538V23.3191C33.313 23.3443 33.3111 23.3695 33.3073 23.3945C33.0332 25.1916 32.057 30.0311 27.8323 34.4156C23.8012 38.5925 19.1196 39.9751 17.2572 40.428C16.9889 40.4933 16.7185 40.3286 16.6532 40.0603C16.588 39.792 16.7526 39.5216 17.0209 39.4563C18.8042 39.0227 23.2717 37.701 27.1124 33.7216C31.102 29.5809 32.0452 25.0147 32.313 23.281V5.63927L16.7661 1.48292C16.4994 1.4116 16.3409 1.13752 16.4122 0.870743Z" fill="#2B3B50"/>
<path fill-rule="evenodd" clip-rule="evenodd" d="M16.906 13.4019C12.8637 13.4019 9.62704 16.524 9.62704 20.3268C9.62704 24.1297 12.8637 27.2518 16.906 27.2518C20.9482 27.2518 24.1849 24.1297 24.1849 20.3268C24.1849 16.524 20.9482 13.4019 16.906 13.4019ZM8.62704 20.3268C8.62704 15.9283 12.3558 12.4019 16.906 12.4019C21.4561 12.4019 25.1849 15.9283 25.1849 20.3268C25.1849 24.7253 21.4561 28.2518 16.906 28.2518C12.3558 28.2518 8.62704 24.7253 8.62704 20.3268Z" fill="#2B3B50"/>
<path fill-rule="evenodd" clip-rule="evenodd" d="M16.9061 15.1724C17.1823 15.1724 17.4061 15.3962 17.4061 15.6724V19.9376H20.5053C20.7815 19.9376 21.0053 20.1615 21.0053 20.4376C21.0053 20.7138 20.7815 20.9376 20.5053 20.9376H16.9061C16.63 20.9376 16.4061 20.7138 16.4061 20.4376V15.6724C16.4061 15.3962 16.63 15.1724 16.9061 15.1724Z" fill="#2B3B50"/>
</svg>
