<svg viewBox="0 0 20 21" xmlns="http://www.w3.org/2000/svg">
<g clip-path="url(#clip0_413_206)">
<path d="M19.8729 10.1111C19.6942 9.86667 15.4371 4.12646 9.9999 4.12646C4.56274 4.12646 0.305387 9.86667 0.12691 10.1109C0.0444411 10.2238 0 10.3601 0 10.5C0 10.6399 0.0444411 10.7761 0.12691 10.8891C0.305387 11.1335 4.56274 16.8737 9.9999 16.8737C15.4371 16.8737 19.6942 11.1335 19.8729 10.8893C19.9555 10.7764 20 10.6401 20 10.5002C20 10.3603 19.9555 10.224 19.8729 10.1111ZM9.9999 15.555C5.99485 15.555 2.52606 11.7452 1.49922 10.4996C2.52473 9.25304 5.98626 5.44514 9.9999 5.44514C14.0048 5.44514 17.4733 9.25437 18.5006 10.5005C17.4751 11.7471 14.0135 15.555 9.9999 15.555Z" fill="#2B3B50"/>
<path d="M10 6.5437C7.81868 6.5437 6.04395 8.31843 6.04395 10.4998C6.04395 12.6811 7.81868 14.4558 10 14.4558C12.1813 14.4558 13.9561 12.6811 13.9561 10.4998C13.9561 8.31843 12.1813 6.5437 10 6.5437ZM10 13.1371C8.54571 13.1371 7.36266 11.954 7.36266 10.4998C7.36266 9.0455 8.54575 7.86241 10 7.86241C11.4543 7.86241 12.6374 9.0455 12.6374 10.4998C12.6374 11.954 11.4543 13.1371 10 13.1371Z" fill="#2B3B50"/>
</g>
<defs>
<clipPath id="clip0_413_206">
<rect width="20" height="20" fill="white" transform="translate(0 0.5)"/>
</clipPath>
</defs>
</svg>
