<svg viewBox="0 0 35 35" xmlns="http://www.w3.org/2000/svg">
<g clip-path="url(#clip0_301_823)">
<path d="M9.03161 13.2093C11.9448 13.2093 14.8564 12.2058 17.8062 10.1999C22.7691 6.82292 29.0336 6.82401 34.154 10.2042C34.2141 10.2437 34.2814 10.2708 34.352 10.2842C34.4227 10.2975 34.4953 10.2967 34.5656 10.2819C34.636 10.267 34.7027 10.2384 34.7619 10.1977C34.8212 10.157 34.8718 10.1049 34.9108 10.0446C34.9904 9.92222 35.0186 9.77341 34.9891 9.63045C34.9596 9.4875 34.8749 9.36196 34.7533 9.28112C29.2578 5.65534 22.5296 5.65644 17.1937 9.2855C11.7058 13.0185 6.36013 13.019 0.853095 9.2855C0.79348 9.24501 0.726423 9.21675 0.65581 9.20237C0.585196 9.18798 0.51243 9.18775 0.441727 9.20169C0.371023 9.21562 0.303788 9.24345 0.243917 9.28356C0.184046 9.32367 0.132728 9.37526 0.0929384 9.43534C0.0120148 9.55682 -0.0176978 9.70532 0.0102579 9.84858C0.0382136 9.99184 0.121578 10.1183 0.242235 10.2004C3.20192 12.2064 6.11786 13.2093 9.03161 13.2093ZM34.7533 16.8953C29.2572 13.2689 22.529 13.2706 17.1937 16.8996C11.7053 20.6337 6.36013 20.6332 0.853095 16.8991C0.793514 16.8586 0.726472 16.8303 0.655867 16.8159C0.585262 16.8015 0.512503 16.8013 0.441821 16.8153C0.371139 16.8293 0.303944 16.8572 0.244144 16.8974C0.184343 16.9376 0.133131 16.9893 0.0934853 17.0495C0.0126797 17.1708 -0.0170207 17.3192 0.0108257 17.4623C0.0386721 17.6054 0.12182 17.7318 0.242235 17.814C3.20192 19.82 6.11731 20.8235 9.03052 20.8235C11.9443 20.8235 14.8558 19.82 17.8062 17.8135C22.7686 14.4365 29.0336 14.4387 34.154 17.8178C34.2141 17.8574 34.2814 17.8847 34.3521 17.8981C34.4228 17.9115 34.4954 17.9108 34.5658 17.896C34.6362 17.8812 34.703 17.8526 34.7623 17.8119C34.8216 17.7712 34.8723 17.7191 34.9114 17.6587C34.9907 17.5362 35.0186 17.3873 34.9889 17.2444C34.9592 17.1015 34.8749 16.976 34.7533 16.8953ZM34.7533 24.5094C29.2572 20.8836 22.5296 20.8858 17.1937 24.5138C11.7064 28.2478 6.36122 28.2489 0.853095 24.5132C0.793523 24.4728 0.726509 24.4445 0.655939 24.4301C0.585368 24.4158 0.512645 24.4155 0.441986 24.4295C0.371327 24.4434 0.304138 24.4712 0.244315 24.5113C0.184492 24.5514 0.133224 24.603 0.0934853 24.6631C0.0123365 24.7845 -0.017562 24.9331 0.010296 25.0765C0.0381539 25.2199 0.121514 25.3465 0.242235 25.4287C3.20192 27.4341 6.11786 28.4376 9.03161 28.4376C11.9448 28.4376 14.8564 27.4341 17.8057 25.4276C22.7691 22.0517 29.033 22.0528 34.154 25.432C34.2141 25.4715 34.2814 25.4988 34.3521 25.5122C34.4228 25.5256 34.4954 25.5249 34.5658 25.5101C34.6362 25.4953 34.703 25.4667 34.7623 25.426C34.8216 25.3853 34.8723 25.3332 34.9114 25.2728C34.9907 25.1503 35.0186 25.0015 34.9889 24.8585C34.9592 24.7156 34.8749 24.5902 34.7533 24.5094Z"/>
</g>
<defs>
<clipPath id="clip0_301_823">
<rect width="35" height="35" fill="white"/>
</clipPath>
</defs>
</svg>
