<svg viewBox="0 0 35 35" xmlns="http://www.w3.org/2000/svg">
<path d="M2.89276 13.5107L3.66611 12.7374L4.75966 13.8309L3.98638 14.6043L2.89276 13.5107ZM1.09375 16.9531H2.73438V18.0468H1.09375V16.9531ZM7.10938 22.4218H8.20312V24.0625H7.10938V22.4218ZM2.89194 21.4863L3.98556 20.3928L4.75884 21.1661L3.66529 22.2597L2.89194 21.4863ZM21.875 23.5156C21.875 22.3553 21.4141 21.2425 20.5936 20.422C19.7731 19.6015 18.6603 19.1406 17.5 19.1406C16.3397 19.1406 15.2269 19.6015 14.4064 20.422C13.5859 21.2425 13.125 22.3553 13.125 23.5156C12.2548 23.5156 11.4202 23.8613 10.8048 24.4766C10.1895 25.092 9.84375 25.9266 9.84375 26.7968C9.84375 27.6671 10.1895 28.5017 10.8048 29.117C11.4202 29.7324 12.2548 30.0781 13.125 30.0781H21.875C22.7452 30.0781 23.5798 29.7324 24.1952 29.117C24.8105 28.5017 25.1562 27.6671 25.1562 26.7968C25.1562 25.9266 24.8105 25.092 24.1952 24.4766C23.5798 23.8613 22.7452 23.5156 21.875 23.5156ZM21.875 28.9843H13.125C12.6924 28.9843 12.2694 28.856 11.9097 28.6157C11.55 28.3753 11.2696 28.0337 11.104 27.634C10.9384 27.2342 10.8951 26.7944 10.9795 26.3701C11.0639 25.9457 11.2723 25.556 11.5782 25.25C11.8841 24.9441 12.2739 24.7358 12.6982 24.6514C13.1226 24.567 13.5624 24.6103 13.9621 24.7758C14.3618 24.9414 14.7035 25.2218 14.9438 25.5815C15.1842 25.9413 15.3125 26.3642 15.3125 26.7968H16.4062C16.4054 26.1196 16.1954 25.4592 15.8049 24.9059C15.4144 24.3526 14.8625 23.9335 14.2247 23.7058C14.2209 23.6424 14.2189 23.579 14.2188 23.5156C14.2188 22.9746 14.3525 22.4419 14.6082 21.9651C14.8638 21.4883 15.2334 21.0821 15.684 20.7827C16.1346 20.4833 16.6523 20.2999 17.1909 20.2489C17.7295 20.198 18.2724 20.281 18.7711 20.4906C19.2699 20.7002 19.7091 21.0298 20.0497 21.4502C20.3902 21.8706 20.6215 22.3687 20.723 22.9001C20.8245 23.4315 20.793 23.9798 20.6313 24.4961C20.4697 25.0124 20.1828 25.4807 19.7964 25.8594L20.5618 26.6406C21.1316 26.0854 21.538 25.3845 21.7366 24.6142C21.7826 24.6113 21.8288 24.6093 21.875 24.6093C22.4552 24.6093 23.0116 24.8398 23.4218 25.25C23.832 25.6603 24.0625 26.2167 24.0625 26.7968C24.0625 27.377 23.832 27.9334 23.4218 28.3436C23.0116 28.7539 22.4552 28.9843 21.875 28.9843ZM18.7485 33.518L21.4825 30.784L22.2558 31.5574L19.5218 34.2913L18.7485 33.518ZM14.9208 33.5176L17.6548 30.7836L18.428 31.557L15.6941 34.2909L14.9208 33.5176ZM11.0931 33.5172L13.8271 30.7832L14.6003 31.5566L11.8664 34.2905L11.0931 33.5172ZM10.0503 10.1153L10.815 10.8974L13.0114 8.74996H16.5222L14.7258 11.674L11.7118 12.4091L11.971 13.4717L13.9122 12.9982L13.0917 14.3338L14.0237 14.9063L14.8634 13.5393L15.3504 15.4477L16.4103 15.1772L15.6611 12.241L17.5 9.24782L19.3389 12.241L18.5897 15.1772L19.6496 15.4477L20.1366 13.5393L20.9763 14.9063L21.9083 14.3338L21.0878 12.9982L23.029 13.4717L23.2882 12.4091L20.2742 11.674L18.4778 8.74996H21.9886L24.185 10.8974L24.9497 10.1153L23.5532 8.74996H25.1562V7.65621H23.5532L24.9497 6.29087L24.185 5.50877L21.9886 7.65621H18.4778L20.2742 4.73221L23.2882 3.99707L23.029 2.93442L21.0878 3.40795L21.9083 2.07234L20.9763 1.49983L20.1366 2.86688L19.6496 0.958496L18.5897 1.22893L19.3389 4.16517L17.5 7.15835L15.6611 4.16517L16.4103 1.22893L15.3504 0.958496L14.8634 2.86688L14.0237 1.49983L13.0917 2.07234L13.9122 3.40795L11.971 2.93442L11.7118 3.99707L14.7258 4.73221L16.5222 7.65621H13.0114L10.815 5.50877L10.0503 6.29087L11.4468 7.65621H9.84375V8.74996H11.4468L10.0503 10.1153ZM31.7188 13.125H30.625V14.2187H31.7188C32.0088 14.2187 32.287 14.3339 32.4921 14.5391C32.6973 14.7442 32.8125 15.0224 32.8125 15.3125C32.8125 15.6025 32.6973 15.8807 32.4921 16.0859C32.287 16.291 32.0088 16.4062 31.7188 16.4062H21.875V17.5H31.7188C32.2989 17.5 32.8553 17.2695 33.2655 16.8593C33.6758 16.449 33.9062 15.8926 33.9062 15.3125C33.9062 14.7323 33.6758 14.1759 33.2655 13.7657C32.8553 13.3554 32.2989 13.125 31.7188 13.125ZM29.5312 18.5937H23.5156V19.6875H29.5312C29.8213 19.6875 30.0995 19.8027 30.3046 20.0078C30.5098 20.2129 30.625 20.4911 30.625 20.7812C30.625 21.0713 30.5098 21.3495 30.3046 21.5546C30.0995 21.7597 29.8213 21.875 29.5312 21.875H27.8906V22.9687H29.5312C30.1114 22.9687 30.6678 22.7382 31.078 22.328C31.4883 21.9178 31.7188 21.3614 31.7188 20.7812C31.7188 20.201 31.4883 19.6447 31.078 19.2344C30.6678 18.8242 30.1114 18.5937 29.5312 18.5937ZM19.1406 16.4062H20.7812V17.5H19.1406V16.4062ZM11.4844 17.5C11.4844 16.7428 11.2599 16.0027 10.8392 15.3732C10.4186 14.7436 9.82071 14.253 9.12121 13.9632C8.42171 13.6735 7.652 13.5977 6.90942 13.7454C6.16684 13.8931 5.48473 14.2577 4.94936 14.7931C4.41398 15.3284 4.04939 16.0105 3.90168 16.7531C3.75397 17.4957 3.82978 18.2654 4.11952 18.9649C4.40927 19.6644 4.89993 20.2623 5.52946 20.6829C6.15899 21.1036 6.89912 21.3281 7.65625 21.3281C8.67118 21.3269 9.64422 20.9233 10.3619 20.2056C11.0795 19.4879 11.4832 18.5149 11.4844 17.5ZM4.92188 17.5C4.92188 16.9592 5.08224 16.4305 5.3827 15.9808C5.68316 15.5312 6.11021 15.1807 6.60985 14.9737C7.10949 14.7668 7.65928 14.7126 8.1897 14.8181C8.72012 14.9236 9.20734 15.1841 9.58975 15.5665C9.97215 15.9489 10.2326 16.4361 10.3381 16.9665C10.4436 17.4969 10.3894 18.0467 10.1825 18.5464C9.97552 19.046 9.62505 19.4731 9.17539 19.7735C8.72572 20.074 8.19706 20.2343 7.65625 20.2343C6.9313 20.2335 6.23629 19.9452 5.72367 19.4325C5.21106 18.9199 4.92271 18.2249 4.92188 17.5ZM12.5781 16.9531H14.2188V18.0468H12.5781V16.9531ZM7.10938 10.9375H8.20312V12.5781H7.10938V10.9375ZM10.5474 21.167L11.3207 20.3936L12.4143 21.4872L11.641 22.2605L10.5474 21.167Z" />
</svg>
