<svg viewBox="0 0 39 39" xmlns="http://www.w3.org/2000/svg">
<g clip-path="url(#clip0_535_190)">
<path d="M32.6236 20.2573V5.94141C32.6236 4.34538 31.3251 3.04688 29.729 3.04688H27.1867V2.4375C27.1867 1.09345 26.0933 0 24.7492 0C23.4052 0 22.3117 1.09345 22.3117 2.4375V3.04688H10.3118V2.4375C10.3118 1.09345 9.2184 0 7.87434 0C6.53029 0 5.43684 1.09345 5.43684 2.4375V3.04688H2.89453C1.2985 3.04688 0 4.34538 0 5.94141V31.9922C0 33.5882 1.2985 34.8867 2.89453 34.8867H6.96158C7.3822 34.8867 7.72329 34.5457 7.72329 34.125C7.72329 33.7043 7.3822 33.3633 6.96158 33.3633H2.89453C2.13853 33.3633 1.52344 32.7482 1.52344 31.9922V12.7319H31.1001V19.8437C30.52 19.7365 29.9313 19.6826 29.3413 19.6827C24.0155 19.6827 19.6827 24.0156 19.6827 29.3414C19.6827 30.776 19.9976 32.1381 20.561 33.3633H13.817C13.3964 33.3633 13.0553 33.7043 13.0553 34.125C13.0553 34.5457 13.3964 34.8867 13.817 34.8867H21.4378C23.1871 37.3725 26.0776 39 29.3413 39C34.6671 39 39 34.6672 39 29.3414C39 25.1674 36.3385 21.6037 32.6236 20.2573ZM23.8352 2.4375C23.8352 1.93347 24.2452 1.52344 24.7492 1.52344C25.2533 1.52344 25.6633 1.93347 25.6633 2.4375V5.17969C25.6633 5.68372 25.2533 6.09375 24.7492 6.09375C24.2452 6.09375 23.8352 5.68372 23.8352 5.17969V2.4375ZM6.96028 2.4375C6.96028 1.93347 7.37031 1.52344 7.87434 1.52344C8.37837 1.52344 8.78841 1.93347 8.78841 2.4375V5.17969C8.78841 5.68372 8.37837 6.09375 7.87434 6.09375C7.37031 6.09375 6.96028 5.68372 6.96028 5.17969V2.4375ZM1.52344 11.2085V5.94141C1.52344 5.1854 2.13853 4.57031 2.89453 4.57031H5.43684V5.17969C5.43684 6.52374 6.53029 7.61719 7.87434 7.61719C9.2184 7.61719 10.3118 6.52374 10.3118 5.17969V4.57031H22.3117V5.17969C22.3117 6.52374 23.4052 7.61719 24.7492 7.61719C26.0933 7.61719 27.1867 6.52374 27.1867 5.17969V4.57031H29.729C30.4851 4.57031 31.1001 5.1854 31.1001 5.94141V11.2085H1.52344ZM29.3413 37.4766C24.8556 37.4766 21.2062 33.8271 21.2062 29.3414C21.2062 24.8556 24.8556 21.2062 29.3413 21.2062C33.8272 21.2062 37.4766 24.8556 37.4766 29.3414C37.4766 33.8271 33.8272 37.4766 29.3413 37.4766Z"/>
<path d="M29.3412 22.7295C25.6956 22.7295 22.7295 25.6955 22.7295 29.3413C22.7295 32.987 25.6955 35.953 29.3412 35.953C32.987 35.953 35.953 32.987 35.953 29.3413C35.953 25.6955 32.987 22.7295 29.3412 22.7295ZM29.3412 34.4296C26.5355 34.4296 24.2529 32.147 24.2529 29.3413C24.2529 26.5356 26.5355 24.2529 29.3412 24.2529C32.1469 24.2529 34.4296 26.5356 34.4296 29.3413C34.4296 32.147 32.1469 34.4296 29.3412 34.4296Z"/>
<path d="M29.341 25.7765C28.9204 25.7765 28.5793 26.1175 28.5793 26.5382V28.9743L27.8012 29.5941C27.4722 29.8562 27.4179 30.3354 27.6799 30.6644C27.7512 30.7542 27.8419 30.8266 27.9452 30.8763C28.0485 30.926 28.1616 30.9518 28.2762 30.9516C28.4485 30.9518 28.6158 30.8932 28.7503 30.7856L29.8156 29.9371C29.9052 29.8657 29.9775 29.7751 30.0272 29.672C30.077 29.5688 30.1028 29.4558 30.1028 29.3413V26.5381C30.1028 26.1175 29.7617 25.7765 29.341 25.7765ZM17.9972 18.3992L13.9079 27.7016C13.7386 28.0867 13.9136 28.5362 14.2987 28.7055C14.3903 28.7457 14.4889 28.7675 14.5889 28.7697C14.6889 28.7718 14.7883 28.7543 14.8816 28.718C14.9748 28.6817 15.0599 28.6274 15.1322 28.5582C15.2044 28.489 15.2623 28.4063 15.3026 28.3147L19.8614 17.944C19.9124 17.8281 19.9337 17.7013 19.9233 17.575C19.9129 17.4488 19.8712 17.3271 19.802 17.2211C19.7328 17.115 19.6382 17.0279 19.5268 16.9676C19.4154 16.9073 19.2908 16.8757 19.1641 16.8757H13.459C13.0384 16.8757 12.6973 17.2168 12.6973 17.6375C12.6973 18.0581 13.0384 18.3992 13.459 18.3992H17.9972Z" />
<path d="M10.3896 34.8867C10.8103 34.8867 11.1514 34.5457 11.1514 34.125C11.1514 33.7043 10.8103 33.3633 10.3896 33.3633C9.96896 33.3633 9.62793 33.7043 9.62793 34.125C9.62793 34.5457 9.96896 34.8867 10.3896 34.8867Z" />
</g>
<defs>
<clipPath id="clip0_535_190">
<rect />
</clipPath>
</defs>
</svg>
