<svg viewBox="0 0 15 17"  xmlns="http://www.w3.org/2000/svg">
<path d="M11.254 10.5626L10.459 9.70532C10.3523 9.58997 10.2234 9.50137 10.0813 9.44581C9.93927 9.39025 9.78763 9.36909 9.63716 9.38383C9.48666 9.3982 9.34094 9.44811 9.21034 9.53002C9.07973 9.61194 8.96746 9.72385 8.88147 9.85782L8.60456 10.2881C8.22797 10.2158 7.49944 10.011 6.9902 9.46187C6.48076 8.91247 6.29092 8.1265 6.22394 7.72101L6.62308 7.42236C6.74733 7.32963 6.85111 7.20853 6.92707 7.06768C7.00303 6.92683 7.0493 6.76967 7.0626 6.60736C7.07627 6.4451 7.05665 6.28159 7.00512 6.12844C6.9536 5.97528 6.87144 5.83624 6.76447 5.72118L5.96953 4.86394C5.65007 4.51948 5.16858 4.43728 4.77131 4.65925C4.07475 5.04841 3.61719 5.77789 3.48277 6.71329C3.26384 8.2373 3.91719 10.0352 5.18783 11.4055C6.29601 12.6005 7.70581 13.2891 8.98571 13.2891C9.17339 13.2891 9.35831 13.2743 9.53898 13.2442C10.4065 13.0993 11.0829 12.6058 11.4438 11.8547C11.6496 11.4262 11.5734 10.907 11.254 10.5626ZM10.635 11.4028C10.3482 11.9997 9.80485 12.2057 9.39956 12.2734C8.28525 12.4595 6.88485 11.8462 5.83195 10.7108C4.7791 9.57544 4.21033 8.06537 4.38295 6.86367C4.4457 6.42662 4.63678 5.84076 5.19032 5.53146C5.2053 5.52322 5.22189 5.51896 5.23871 5.51905C5.26965 5.51905 5.30141 5.53279 5.32532 5.55854L6.12029 6.41581C6.15331 6.45148 6.15753 6.49198 6.15521 6.51969C6.1529 6.54743 6.14212 6.58648 6.10368 6.61523L5.47576 7.08507C5.41119 7.13339 5.35932 7.19889 5.32518 7.27522C5.29104 7.35155 5.2758 7.43611 5.28093 7.52068C5.28489 7.58563 5.38848 9.12382 6.34602 10.1564C7.30357 11.189 8.72998 11.3008 8.79021 11.305C8.86863 11.3105 8.94703 11.294 9.01781 11.2572C9.08859 11.2204 9.14934 11.1645 9.19419 11.0949L9.62989 10.4177C9.65652 10.3764 9.69276 10.3647 9.71845 10.3622C9.74421 10.3596 9.78174 10.3643 9.81484 10.3999L10.6098 11.2571C10.6467 11.2969 10.657 11.3568 10.635 11.4028Z" />
<path d="M12.8032 3.19342C11.3866 1.66575 9.50314 0.824463 7.4997 0.824463C5.49626 0.824463 3.61282 1.66575 2.1962 3.19339C0.992185 4.49176 0.227829 6.21013 0.0438442 8.03196C-0.130091 9.75424 0.217018 11.5073 1.02233 12.9933L0.240749 16.1388C0.220078 16.2221 0.220094 16.3097 0.240795 16.393C0.261496 16.4763 0.302153 16.5522 0.358682 16.6132C0.41521 16.6741 0.48562 16.718 0.562838 16.7403C0.640056 16.7626 0.721363 16.7627 0.798591 16.7404L3.71545 15.8976C4.86107 16.6195 6.17794 17 7.50717 17C7.77679 17 8.04694 16.9844 8.31626 16.9527C10.0057 16.7543 11.5992 15.93 12.8032 14.6316C14.2199 13.104 15 11.0729 15 8.91255C15 6.75217 14.2198 4.72106 12.8032 3.19342ZM12.159 13.937C9.98138 16.2853 6.63658 16.7026 4.02515 14.9519C3.97221 14.9164 3.9131 14.8931 3.85145 14.8832C3.78981 14.8734 3.72695 14.8773 3.66676 14.8946L1.32485 15.5713L1.95239 13.0459C1.96851 12.981 1.97211 12.9132 1.96297 12.8467C1.95383 12.7803 1.93214 12.7165 1.89925 12.6595C0.2757 9.84324 0.662712 6.23632 2.84032 3.88802C5.40954 1.11752 9.58986 1.11752 12.159 3.88802C14.7282 6.65852 14.7282 11.1665 12.159 13.937Z" />
</svg>
