<?xml version="1.0" encoding="UTF-8"?><!DOCTYPE svg PUBLIC "-//W3C//DTD SVG 1.1//EN" "http://www.w3.org/Graphics/SVG/1.1/DTD/svg11.dtd"><svg xmlns="http://www.w3.org/2000/svg" xmlns:xlink="http://www.w3.org/1999/xlink"><symbol id="ruble-guarente" viewBox="0 0 34 41"><path fill-rule="evenodd" clip-rule="evenodd" d="M11.599 11.905a.5.5 0 0 1 .5-.5h6.908c.026 0 .051.002.077.006.452.07 2.55.425 3.974 2.247l.004.005a5.858 5.858 0 0 1 1.181 3.215v.005c.014.332.078 2.265-1.368 3.997-.284.34-1.334 1.566-3.097 1.994l.003-.001-.124-.485.118.486h.003a3.46 3.46 0 0 1-.486.09.515.515 0 0 1-.053.002h-7.163a.5.5 0 0 1-.5-.503c.023-3.511.023-7.034.023-10.558Zm1 .5c0 3.189-.001 6.38-.02 9.561h6.632c.08-.01.187-.027.323-.062l.006-.002c1.438-.348 2.314-1.36 2.566-1.662a4.98 4.98 0 0 0 1.139-3.315 4.858 4.858 0 0 0-.976-2.653c-1.143-1.459-2.834-1.792-3.301-1.867h-6.369ZM9.226 26.134a.5.5 0 0 1 .5-.5h8.707a.5.5 0 0 1 0 1H9.726a.5.5 0 0 1-.5-.5Z"/><path fill-rule="evenodd" clip-rule="evenodd" d="M12.135 20.115a.5.5 0 0 1 .5.5v8.312a.5.5 0 0 1-1 0v-8.312a.5.5 0 0 1 .5-.5Z"/><path fill-rule="evenodd" clip-rule="evenodd" d="M10.02 22.466a.5.5 0 0 1 .5-.5h8.709a.5.5 0 1 1 0 1H10.52a.5.5 0 0 1-.5-.5Z"/><path fill-rule="evenodd" clip-rule="evenodd" d="M17.4.87a.5.5 0 0 1-.353.613L1.5 5.639v17.642a19.35 19.35 0 0 0 5.2 10.44c3.841 3.98 8.309 5.302 10.092 5.735a.5.5 0 0 1-.236.972c-1.863-.453-6.544-1.835-10.575-6.012A20.351 20.351 0 0 1 .506 23.395a.501.501 0 0 1-.006-.076V5.255a.5.5 0 0 1 .37-.483L16.79.517A.5.5 0 0 1 17.4.87Z"/><path fill-rule="evenodd" clip-rule="evenodd" d="M16.41.87a.5.5 0 0 1 .613-.353L32.94 4.772a.5.5 0 0 1 .37.483V23.32c0 .025-.001.05-.005.076a20.35 20.35 0 0 1-5.475 11.02c-4.031 4.178-8.713 5.56-10.575 6.013a.5.5 0 0 1-.237-.972c1.784-.433 6.251-1.755 10.092-5.734a19.35 19.35 0 0 0 5.2-10.441V5.639L16.766 1.483A.5.5 0 0 1 16.41.87Z"/><path fill-rule="evenodd" clip-rule="evenodd" d="M16.173 39.942a.5.5 0 0 1 .5-.5h.464a.5.5 0 0 1 0 1h-.463a.5.5 0 0 1-.5-.5Z"/></symbol></svg>