<?xml version="1.0" encoding="UTF-8"?><!DOCTYPE svg PUBLIC "-//W3C//DTD SVG 1.1//EN" "http://www.w3.org/Graphics/SVG/1.1/DTD/svg11.dtd"><svg xmlns="http://www.w3.org/2000/svg" xmlns:xlink="http://www.w3.org/1999/xlink"><symbol id="percent" viewBox="0 0 42 40"><path fill-rule="evenodd" clip-rule="evenodd" d="M21 1.5C10.208 1.5 1.5 9.845 1.5 20.09S10.208 38.68 21 38.68s19.5-8.345 19.5-18.59S31.792 1.5 21 1.5ZM.5 20.09C.5 9.249 9.7.5 21 .5s20.5 8.749 20.5 19.59c0 10.84-9.2 19.59-20.5 19.59S.5 30.93.5 20.09Z"/><path fill-rule="evenodd" clip-rule="evenodd" d="M25.278 22.245c-1.279 0-2.275.984-2.275 2.148 0 1.165.996 2.149 2.275 2.149 1.278 0 2.274-.984 2.274-2.149 0-1.164-.996-2.148-2.274-2.148Zm-3.275 2.148c0-1.76 1.488-3.148 3.275-3.148 1.786 0 3.274 1.388 3.274 3.148 0 1.76-1.488 3.149-3.274 3.149-1.787 0-3.275-1.388-3.275-3.149ZM16.607 13.528c-1.278 0-2.274.983-2.274 2.148s.996 2.149 2.274 2.149c1.279 0 2.275-.984 2.275-2.149s-.996-2.148-2.275-2.148Zm-3.274 2.148c0-1.76 1.488-3.148 3.274-3.148 1.787 0 3.275 1.388 3.275 3.148 0 1.76-1.488 3.149-3.275 3.149-1.786 0-3.274-1.388-3.274-3.149ZM28.882 12.688a.5.5 0 0 1-.027.707c-2.52 2.333-5.04 4.67-7.56 7.006l-.002.002-7.56 7.006a.5.5 0 0 1-.679-.734c2.52-2.334 5.04-4.67 7.56-7.007l7.561-7.007a.5.5 0 0 1 .707.027Z"/></symbol><symbol id="ruble-guarente" viewBox="0 0 34 41"><path fill-rule="evenodd" clip-rule="evenodd" d="M11.599 11.905a.5.5 0 0 1 .5-.5h6.908c.026 0 .051.002.077.006.452.07 2.55.425 3.974 2.247l.004.005a5.858 5.858 0 0 1 1.181 3.215v.005c.014.332.078 2.265-1.368 3.997-.284.34-1.334 1.566-3.097 1.994l.003-.001-.124-.485.118.486h.003a3.46 3.46 0 0 1-.486.09.515.515 0 0 1-.053.002h-7.163a.5.5 0 0 1-.5-.503c.023-3.511.023-7.034.023-10.558Zm1 .5c0 3.189-.001 6.38-.02 9.561h6.632c.08-.01.187-.027.323-.062l.006-.002c1.438-.348 2.314-1.36 2.566-1.662a4.98 4.98 0 0 0 1.139-3.315 4.858 4.858 0 0 0-.976-2.653c-1.143-1.459-2.834-1.792-3.301-1.867h-6.369ZM9.226 26.134a.5.5 0 0 1 .5-.5h8.707a.5.5 0 0 1 0 1H9.726a.5.5 0 0 1-.5-.5Z"/><path fill-rule="evenodd" clip-rule="evenodd" d="M12.135 20.115a.5.5 0 0 1 .5.5v8.312a.5.5 0 0 1-1 0v-8.312a.5.5 0 0 1 .5-.5Z"/><path fill-rule="evenodd" clip-rule="evenodd" d="M10.02 22.466a.5.5 0 0 1 .5-.5h8.709a.5.5 0 1 1 0 1H10.52a.5.5 0 0 1-.5-.5Z"/><path fill-rule="evenodd" clip-rule="evenodd" d="M17.4.87a.5.5 0 0 1-.353.613L1.5 5.639v17.642a19.35 19.35 0 0 0 5.2 10.44c3.841 3.98 8.309 5.302 10.092 5.735a.5.5 0 0 1-.236.972c-1.863-.453-6.544-1.835-10.575-6.012A20.351 20.351 0 0 1 .506 23.395a.501.501 0 0 1-.006-.076V5.255a.5.5 0 0 1 .37-.483L16.79.517A.5.5 0 0 1 17.4.87Z"/><path fill-rule="evenodd" clip-rule="evenodd" d="M16.41.87a.5.5 0 0 1 .613-.353L32.94 4.772a.5.5 0 0 1 .37.483V23.32c0 .025-.001.05-.005.076a20.35 20.35 0 0 1-5.475 11.02c-4.031 4.178-8.713 5.56-10.575 6.013a.5.5 0 0 1-.237-.972c1.784-.433 6.251-1.755 10.092-5.734a19.35 19.35 0 0 0 5.2-10.441V5.639L16.766 1.483A.5.5 0 0 1 16.41.87Z"/><path fill-rule="evenodd" clip-rule="evenodd" d="M16.173 39.942a.5.5 0 0 1 .5-.5h.464a.5.5 0 0 1 0 1h-.463a.5.5 0 0 1-.5-.5Z"/></symbol></svg>