<?xml version="1.0" encoding="UTF-8"?><!DOCTYPE svg PUBLIC "-//W3C//DTD SVG 1.1//EN" "http://www.w3.org/Graphics/SVG/1.1/DTD/svg11.dtd"><svg xmlns="http://www.w3.org/2000/svg" xmlns:xlink="http://www.w3.org/1999/xlink"><defs><clipPath id="logo-a"><path d="M0 0h162v31H0z"/></clipPath></defs><symbol id="angled-arrow" viewBox="0 0 8 22"><path d="M3.485 7.12a.59.59 0 0 0-.836 0 .59.59 0 0 0 0 .837l2.46 2.46-2.46 2.46a.595.595 0 0 0 .416 1.011.577.577 0 0 0 .415-.176l2.876-2.875a.59.59 0 0 0 0-.836L3.485 7.12Z"/></symbol><symbol id="arrow-circled" viewBox="0 0 8 22"><path d="M3.485 7.12a.59.59 0 0 0-.836 0 .59.59 0 0 0 0 .837l2.46 2.46-2.46 2.46a.595.595 0 0 0 .416 1.011.577.577 0 0 0 .415-.176l2.876-2.875a.59.59 0 0 0 0-.836L3.485 7.12Z"/></symbol><symbol id="basket-icon" viewBox="0 0 20 17"><path d="M19.581 2.68a1.385 1.385 0 0 0-1.081-.516H3.42l-.134-.965A1.397 1.397 0 0 0 1.909 0H.727a.618.618 0 0 0 0 1.236H1.91a.155.155 0 0 1 .153.134l1.669 11.959a1.397 1.397 0 0 0 1.378 1.198h.67A1.857 1.857 0 0 0 7.527 17a1.857 1.857 0 0 0 1.748-2.473h3.304A1.857 1.857 0 0 0 14.327 17a1.857 1.857 0 0 0 1.748-2.473h1.343a.618.618 0 0 0 0-1.236H5.108a.155.155 0 0 1-.152-.133l-.154-1.103h12.174c.651 0 1.223-.463 1.36-1.1l1.524-7.109a1.385 1.385 0 0 0-.279-1.166ZM8.145 15.146a.619.619 0 1 1-1.237-.002.619.619 0 0 1 1.237.002Zm6.8 0a.619.619 0 1 1-1.238-.002.619.619 0 0 1 1.238.002Zm3.706-11.56-1.524 7.11a.155.155 0 0 1-.151.122H4.629L3.594 3.4h14.905c.062 0 .1.031.12.057a.15.15 0 0 1 .032.13Z"/></symbol><symbol id="catalog-arrow" viewBox="0 0 5 9"><path d="M4.364 4.5a.363.363 0 0 1-.107.257L.621 8.393a.363.363 0 1 1-.514-.514L3.486 4.5.106 1.12A.363.363 0 1 1 .622.608l3.636 3.636a.363.363 0 0 1 .107.257Z"/></symbol><symbol id="catalog-btn-icon" viewBox="0 0 14 13"><path d="M5.857 2.5a2.5 2.5 0 1 1-5 0 2.5 2.5 0 0 1 5 0ZM13.857 2.5a2.5 2.5 0 1 1-5 0 2.5 2.5 0 0 1 5 0ZM13.857 10.5a2.5 2.5 0 1 1-5 0 2.5 2.5 0 0 1 5 0ZM5.857 10.5a2.5 2.5 0 1 1-5 0 2.5 2.5 0 0 1 5 0Z"/></symbol><symbol id="city-arrow" viewBox="0 0 12 7"><path fill-rule="evenodd" clip-rule="evenodd" d="m.546 1.382.908-.907 4.689 4.689 4.689-4.69.907.908L6.143 6.98.546 1.382Z"/></symbol><symbol id="decor-advantages" viewBox="0 0 41 41.97"><path class="cls-1" d="M31.47 1h-22A.5.5 0 0 1 9 .5a.5.5 0 0 1 .5-.5h22a.5.5 0 0 1 0 1Z"/><path class="cls-1" d="M31.76 17a.5.5 0 0 1-.5-.5V.6a.5.5 0 0 1 .5-.5.5.5 0 0 1 .5.5v15.88a.5.5 0 0 1-.5.52ZM14.74 42H.5a.5.5 0 0 1 0-1h14.24a.5.5 0 1 1 0 1ZM31.73 42h-3.87a.5.5 0 0 1 0-1h3.87a.5.5 0 0 1 0 1Z"/><path class="cls-1" d="M31.74 41.94a.5.5 0 0 1-.5-.5v-2.93a.5.5 0 0 1 .5-.5.5.5 0 0 1 .5.5v2.93a.5.5 0 0 1-.5.5ZM.51 41.94a.5.5 0 0 1-.5-.5V10.63a.5.5 0 0 1 .5-.5.5.5 0 0 1 .5.5v30.81a.5.5 0 0 1-.5.5Z"/><path class="cls-1" d="M10.72 11.13H.6a.51.51 0 0 1-.5-.5.5.5 0 0 1 .5-.5h10.12a.5.5 0 0 1 .5.5.51.51 0 0 1-.5.5Z"/><path class="cls-1" d="M10.72 11.12a.5.5 0 0 1-.5-.5V3.69a.5.5 0 1 1 1 0v6.93a.5.5 0 0 1-.5.5ZM.62 11.06a.5.5 0 0 1-.33-.12.51.51 0 0 1 0-.71L9 .21a.49.49 0 0 1 .7 0 .51.51 0 0 1 .05.71L1 10.89a.48.48 0 0 1-.38.17ZM9 29a.43.43 0 0 1-.19 0 4.22 4.22 0 0 1-2.62-2.39c-.54-1.68.65-3.17 2.46-5.44s2.9-3.63 4.57-3.55a4.32 4.32 0 0 1 3.19 2.05.51.51 0 0 1 0 .61q-3.52 4.29-7 8.58A.53.53 0 0 1 9 29Zm4.12-10.42c-1.12 0-2 1-3.69 3.18s-2.63 3.39-2.27 4.5a3.12 3.12 0 0 0 1.71 1.64q3.24-4 6.51-8a3.06 3.06 0 0 0-2.18-1.33ZM37.81 29a.49.49 0 0 1-.39-.19q-3.42-4.38-6.85-8.73a.51.51 0 0 1 0-.63 4.36 4.36 0 0 1 3.1-1.78c1.8 0 2.91 1.33 4.77 3.64s3 3.64 2.44 5.2A4.16 4.16 0 0 1 38 28.92Zm-6.2-9.16L38 27.86a3.08 3.08 0 0 0 2-1.66c.33-1-.45-2-2.24-4.23s-2.72-3.33-4-3.3a3.17 3.17 0 0 0-2.15 1.12Z"/><path class="cls-1" d="M30.43 28.3a6 6 0 0 1-4.38-1.85 2.93 2.93 0 0 0-1.73-.72 8.1 8.1 0 0 0-1.45.24c-.8.15-1.23.24-1.48.3a2.68 2.68 0 0 1-.56.08c-.52 0-2.3-.1-3-1.37a1.85 1.85 0 0 1-.14-1.71c.38-.77 1.29-.92 2.17-1.06l.39-.07a7.53 7.53 0 0 0 2.72-1 6.53 6.53 0 0 1 2.76-.9c.47-.06.85-.07 1.22-.09a8.58 8.58 0 0 0 2.05-.23 13.12 13.12 0 0 0 1.74-.6.5.5 0 1 1 .39.93 13.87 13.87 0 0 1-1.88.64 9.31 9.31 0 0 1-2.3.3c-.35 0-.7 0-1.14.08a5.62 5.62 0 0 0-2.4.79 8.55 8.55 0 0 1-3 1.06l-.4.07c-.66.11-1.29.22-1.44.53a.93.93 0 0 0 .1.75 2.58 2.58 0 0 0 2.17.88 1.59 1.59 0 0 0 .36-.06c.25-.06.69-.15 1.49-.3a6.91 6.91 0 0 1 1.69-.26 4 4 0 0 1 2.35 1A5.33 5.33 0 0 0 28.66 27a5.21 5.21 0 0 0 2.72.22l.83-.12.86-.13a.53.53 0 0 1 .58.42.51.51 0 0 1-.42.57l-.88.13-.81.12a6.94 6.94 0 0 1-1.11.09ZM35.73 31a.49.49 0 0 1-.38-.18.51.51 0 0 1 .06-.71l2-1.64 1.07-.77a.5.5 0 0 1 .7.12.52.52 0 0 1-.12.7l-1 .74-1.93 1.62a.47.47 0 0 1-.4.12ZM15.91 20.66a.5.5 0 0 1-.5-.5.49.49 0 0 1 .49-.5c.77 0 1.6-.07 2.3-.13a34.83 34.83 0 0 0 3.71-.53.5.5 0 0 1 .18 1c-1.24.22-2.53.39-3.81.5-.72 0-1.57.11-2.37.13ZM13.29 36.86a2.43 2.43 0 0 1-1.61-.61 2.26 2.26 0 0 1-.5-2.71.64.64 0 0 1 .1-.13l2-1.86a2.45 2.45 0 0 1 3.12.15 2.21 2.21 0 0 1 .16 3l-2 1.77-.09.07a2.45 2.45 0 0 1-1.18.32ZM12 34.07a1.22 1.22 0 0 0 .32 1.43 1.45 1.45 0 0 0 1.58.21L15.83 34a1.21 1.21 0 0 0-.14-1.62 1.41 1.41 0 0 0-1.79-.11Z"/><path class="cls-1" d="M10.7 34.38a2.41 2.41 0 0 1-1.61-.61 2.24 2.24 0 0 1-.5-2.71.64.64 0 0 1 .1-.13l1.94-1.85a2.44 2.44 0 0 1 3.12.16 2.22 2.22 0 0 1 .16 3L12 34l-.1.07a2.49 2.49 0 0 1-1.2.31ZM9.44 31.6a1.23 1.23 0 0 0 .32 1.4 1.46 1.46 0 0 0 1.58.2l1.9-1.69a1.21 1.21 0 0 0-.14-1.62 1.42 1.42 0 0 0-1.8-.1ZM15.89 39.33a2.41 2.41 0 0 1-1.61-.61 2.22 2.22 0 0 1-.5-2.71.6.6 0 0 1 .09-.13l2-1.85a2.41 2.41 0 0 1 3.11.15 2.21 2.21 0 0 1 .17 3l-2 1.78-.1.07a2.43 2.43 0 0 1-1.16.3Zm-1.26-2.78A1.23 1.23 0 0 0 15 38a1.46 1.46 0 0 0 1.58.2l1.89-1.69a1.2 1.2 0 0 0-.14-1.62 1.42 1.42 0 0 0-1.79-.1Z"/><path class="cls-1" d="M18.24 41.44a2.09 2.09 0 0 1-1.41-.55 2 2 0 0 1-.42-2.38.47.47 0 0 1 .09-.12c.53-.52 1.08-1.06 1.63-1.58a2.09 2.09 0 0 1 2.71.13 2 2 0 0 1 .16 2.64c-.39.38-.75.7-1.11 1l-.56.51-.09.06a2.08 2.08 0 0 1-1 .29Zm-1-2.4a1 1 0 0 0 .25 1.12 1.11 1.11 0 0 0 1.22.17l.51-.47 1.06-1a1 1 0 0 0-.12-1.27 1.09 1.09 0 0 0-1.38-.07ZM10.59 30.06h-.14a3.46 3.46 0 0 1-.83-.35 1.57 1.57 0 0 1-.82-1 .5.5 0 0 1 .4-.59.49.49 0 0 1 .58.4s0 .17.35.36a2.42 2.42 0 0 0 .6.24.5.5 0 0 1-.14 1Z"/><path class="cls-1" d="M23.06 41.84h-.34a.48.48 0 0 1-.2-.07l-2.46-1.49a.48.48 0 0 1-.17-.68.49.49 0 0 1 .68-.17l2.37 1.42a1.38 1.38 0 0 0 .69-.1 1.4 1.4 0 0 0 .75-.81 2 2 0 0 0 .09-.35c-1.53-1.18-1.53-1.19-1.54-1.44a.49.49 0 0 1 .14-.38c.22-.22.44-.45 2 1l.1.1h.06a2 2 0 0 0 1.83-.7 1.62 1.62 0 0 0 .31-1.05l-2.18-1.72a.5.5 0 1 1 .62-.78l2.28 1.81a1.87 1.87 0 0 0 2-.41 1.56 1.56 0 0 0 .34-1.68l-2.61-1.9a.5.5 0 0 1 .59-.81L32 34.18a1.45 1.45 0 0 0 .9 0 1.36 1.36 0 0 0 .75-.72 1 1 0 0 0 .1-.69 1.12 1.12 0 0 0-.35-.59c-.57-.51-1.17-1-1.79-1.47l-.14-.09-.49-.36c-.58-.42-1-.72-1.22-.84a38.58 38.58 0 0 1-3.63-2.94.49.49 0 0 1 0-.7.51.51 0 0 1 .71-.05 39.61 39.61 0 0 0 3.45 2.81c.26.17.73.48 1.31.9a6.08 6.08 0 0 1 .52.38l.13.09c.65.49 1.27 1 1.85 1.52a2.06 2.06 0 0 1 .68 1.13 1.94 1.94 0 0 1-.17 1.31 2.34 2.34 0 0 1-1.31 1.25 2.49 2.49 0 0 1-1.64 0 2.6 2.6 0 0 1-.73 1.63 2.83 2.83 0 0 1-2.45.8 2.5 2.5 0 0 1-.5 1.26 2.92 2.92 0 0 1-2.36 1.1h-.05a2.38 2.38 0 0 1-.11.38A2.46 2.46 0 0 1 24 41.66a2.66 2.66 0 0 1-.94.18ZM22.65 10.51a.5.5 0 0 1-.36-.18l-1.69-2a.5.5 0 1 1 .76-.65l1.33 1.56L27.73 4a.5.5 0 0 1 .73.69L23 10.35a.5.5 0 0 1-.35.16Z"/></symbol><symbol id="favourite-icon" viewBox="0 0 20 17"><path d="M18.862 2.295C17.73.789 16.404.017 14.918 0h-.05c-2.15 0-4.004 1.614-4.866 2.511C9.138 1.614 7.286 0 5.134 0h-.05C3.6.017 2.275.79 1.124 2.32a5.404 5.404 0 0 0 .691 6.881l7.73 7.612a.654.654 0 0 0 .915 0l7.73-7.612a5.413 5.413 0 0 0 .673-6.906Zm-1.59 5.974-7.27 7.163-7.27-7.163a4.09 4.09 0 0 1-.545-5.19c.873-1.161 1.852-1.757 2.91-1.771h.038c2.276 0 4.334 2.566 4.354 2.592a.678.678 0 0 0 1.026 0c.021-.026 2.093-2.65 4.392-2.592a3.742 3.742 0 0 1 2.891 1.746 4.096 4.096 0 0 1-.526 5.215Z"/></symbol><symbol id="icon-human" viewBox="0 0 13 16"><path d="M6.402 7.506c1.03 0 1.924-.37 2.653-1.1.73-.73 1.1-1.622 1.1-2.653s-.37-1.924-1.1-2.654A3.632 3.632 0 0 0 6.402 0C5.37 0 4.478.37 3.748 1.1c-.73.729-1.1 1.622-1.1 2.653s.37 1.924 1.1 2.653c.73.73 1.623 1.1 2.654 1.1ZM4.394 1.745A2.713 2.713 0 0 1 6.402.913c.79 0 1.448.272 2.008.832.56.56.832 1.217.832 2.008 0 .791-.273 1.448-.832 2.008-.56.56-1.217.832-2.008.832a2.713 2.713 0 0 1-2.008-.832 2.712 2.712 0 0 1-.832-2.008c0-.791.272-1.448.832-2.008Zm8.575 10.237a9.272 9.272 0 0 0-.127-.985 7.743 7.743 0 0 0-.242-.99 4.884 4.884 0 0 0-.407-.923 3.48 3.48 0 0 0-.614-.8 2.706 2.706 0 0 0-.881-.554 3.047 3.047 0 0 0-1.125-.203c-.16 0-.313.065-.61.258-.211.138-.423.275-.636.41a3.64 3.64 0 0 1-.822.362A3.265 3.265 0 0 1 6.5 8.72c-.334 0-.673-.055-1.006-.163a3.631 3.631 0 0 1-.822-.362c-.236-.15-.45-.289-.636-.41-.297-.193-.45-.258-.61-.258-.405 0-.783.068-1.125.204-.342.135-.639.321-.881.553-.232.222-.438.491-.614.8-.169.298-.306.608-.407.923a7.771 7.771 0 0 0-.242.99 9.21 9.21 0 0 0-.126.985c-.02.298-.031.607-.031.92 0 .814.259 1.472.768 1.958.504.479 1.17.722 1.98.722h7.503c.81 0 1.477-.243 1.98-.722.51-.486.769-1.144.769-1.958 0-.314-.01-.624-.031-.92Zm-1.367 2.216c-.333.317-.775.47-1.35.47H2.748c-.577 0-1.018-.153-1.351-.47-.326-.31-.485-.735-.485-1.296 0-.292.01-.58.03-.857.018-.271.056-.57.113-.887.056-.313.128-.606.213-.872.082-.255.193-.508.331-.751a2.58 2.58 0 0 1 .451-.59c.157-.15.354-.274.587-.366a2.1 2.1 0 0 1 .719-.138c.032.017.089.05.18.11l.644.414c.27.172.617.327 1.032.461.424.137.857.207 1.287.207.43 0 .862-.07 1.286-.207.415-.134.763-.29 1.033-.461.244-.157.455-.292.642-.415.093-.06.15-.092.182-.11.262.008.504.054.719.14.232.091.43.214.586.364.168.16.32.36.451.591.138.243.25.496.332.75.085.267.156.56.213.873.056.318.095.616.114.887.02.276.029.564.029.857 0 .562-.159.986-.485 1.296Z" opacity=".8"/></symbol><symbol id="icon-phone" viewBox="0 0 13 14"><path d="M2.634 8.674a13.845 13.845 0 0 0 4.605 3.607c.674.32 1.574.698 2.577.763.062.003.122.005.184.005.673 0 1.214-.232 1.655-.71a.059.059 0 0 0 .01-.014c.157-.19.336-.36.523-.541.127-.122.256-.249.38-.379.577-.6.577-1.362-.005-1.944l-1.625-1.625c-.276-.287-.606-.438-.952-.438s-.678.151-.962.435l-.968.968c-.09-.051-.181-.097-.268-.14a3.345 3.345 0 0 1-.297-.162c-.882-.56-1.682-1.29-2.447-2.229-.387-.489-.647-.9-.828-1.32.254-.229.492-.47.722-.705.081-.084.165-.167.249-.251.292-.292.449-.63.449-.974 0-.343-.154-.681-.45-.973l-.805-.806L4.105.96a14.83 14.83 0 0 0-.549-.544C3.278.143 2.951 0 2.605 0c-.344 0-.674.143-.963.42L.631 1.43a2.078 2.078 0 0 0-.62 1.33c-.05.647.068 1.334.376 2.164.474 1.284 1.187 2.477 2.247 3.75ZM.671 2.818c.033-.36.17-.66.43-.92L2.107.892c.157-.151.33-.23.498-.23.165 0 .332.079.486.236.182.167.352.343.536.53l.281.286.806.806c.167.168.254.338.254.506 0 .167-.087.338-.254.505l-.252.255c-.251.254-.486.494-.746.724l-.014.014c-.224.224-.189.438-.135.6l.008.022c.209.5.498.976.95 1.544.81 1 1.665 1.776 2.606 2.374.116.075.24.135.357.194.108.054.208.106.297.163l.03.016c.09.046.176.067.262.067a.573.573 0 0 0 .403-.183l1.012-1.012c.156-.157.327-.24.494-.24.206 0 .374.127.479.24l1.63 1.628c.325.325.322.676-.008 1.02a8.965 8.965 0 0 1-.36.359c-.188.184-.386.373-.564.587-.311.335-.682.492-1.16.492-.046 0-.095-.003-.14-.005-.888-.057-1.713-.403-2.332-.698a13.152 13.152 0 0 1-4.383-3.434C2.14 7.044 1.461 5.914 1.012 4.702.734 3.96.628 3.361.672 2.818Z" opacity=".8"/></symbol><symbol id="logo"><g clip-path="url(#logo-a)"><path d="M55.88 20.306c0 4.101 2.203 6.237 5.694 6.237s5.66-2.136 5.66-6.237v-9.524c0-4.101-2.169-6.236-5.66-6.236-3.49 0-5.694 2.135-5.694 6.236v9.524Zm54.738 0c0 4.101 2.202 6.237 5.694 6.237 3.491 0 5.66-2.136 5.66-6.237v-9.524c0-4.101-2.169-6.236-5.66-6.236-3.492 0-5.694 2.135-5.694 6.236v9.524Zm13.862 0c0 4.101 2.203 6.237 5.694 6.237s5.66-2.136 5.66-6.237v-9.524c0-4.101-2.169-6.236-5.66-6.236s-5.694 2.135-5.694 6.236v9.524Zm-27.115 5.898h4.677c3.83 0 6-1.966 6-5.965V10.85c0-4-2.17-5.965-5.83-5.965h-4.847v21.319Zm52.84 0-1.254-6.406c-.237-1.153-.78-2.237-2.034-2.542 1.39-.712 2.339-2.17 2.339-4.78v-2.304c0-4-2.169-5.287-5.321-5.287h-5.355v21.319h3.524v-7.389h1.695c.881 0 1.288.474 1.492 1.457l1.118 5.932h3.796Zm-95.884 0-1.254-6.406c-.237-1.153-.78-2.237-2.034-2.542 1.39-.712 2.339-2.17 2.339-4.78v-2.304c0-4-2.17-5.287-5.321-5.287h-5.355v21.319h3.525v-7.389h1.694c.881 0 1.288.474 1.491 1.457l1.119 5.932h3.796Zm-24.674 0h3.525v-7.152h1.83c3.152 0 5.32-1.288 5.32-5.287v-3.593c0-4-2.168-5.287-5.32-5.287h-5.356v21.319ZM156 17.12c1.355.88 2.338 1.897 2.338 3.863 0 1.525-.373 2.61-1.626 2.61-1.255 0-1.661-.95-1.661-2.847 0-.78.068-1.186.169-1.661h-3.457a7.154 7.154 0 0 0-.271 2c0 3.627 1.661 5.457 5.152 5.457 3.186 0 5.355-2.136 5.355-5.729 0-3.66-1.932-5.456-4.373-7.015-1.355-.881-2.338-1.729-2.338-3.695 0-1.525.542-2.61 1.593-2.61s1.559.95 1.559 3.051c0 .576-.034.983-.102 1.458h3.457c.136-.475.204-1.289.204-1.695 0-4.101-1.525-5.762-5.017-5.762-3.186 0-5.354 2.135-5.354 5.728 0 3.66 1.931 5.287 4.372 6.847Zm-86.258 9.083h3.66v-8.542h4.474v-3.457h-4.474V8.342h4.474V4.885h-8.134v21.319Zm25.114 0v-3.457h-4.338V4.885h-3.66v21.319h7.998Zm-14.743 0h3.66V4.884h-3.66v21.32ZM130.174 7.8c1.051 0 1.83.644 1.83 2.745v9.999c0 2.1-.745 2.745-1.83 2.745-1.051 0-1.83-.644-1.83-2.745v-9.999c0-2.101.779-2.745 1.83-2.745Zm-13.862 0c1.05 0 1.83.644 1.83 2.745v9.999c0 2.1-.746 2.745-1.83 2.745-1.051 0-1.831-.644-1.831-2.745v-9.999c0-2.101.78-2.745 1.831-2.745Zm-54.738 0c1.05 0 1.83.644 1.83 2.745v9.999c0 2.1-.745 2.745-1.83 2.745-1.05 0-1.83-.644-1.83-2.745v-9.999c0-2.101.78-2.745 1.83-2.745Zm42.807 11.76c0 2.238-.373 3.593-2.406 3.593h-.949V7.935h1.016c1.966 0 2.339 1.356 2.339 3.593v8.033Zm-67.718-6.473c0 2.237-.61 2.915-2.305 2.915h-1.186V7.935h1.186c1.695 0 2.305.678 2.305 2.915v2.237Zm10.744-5.152c1.694 0 2.305.678 2.305 2.915v1.593c0 2.474-.61 3.152-2.407 3.152h-1.084v-7.66h1.186Zm95.884 0c1.695 0 2.304.678 2.304 2.915v1.593c0 2.474-.609 3.152-2.406 3.152h-1.085v-7.66h1.187Z"/><path d="M6.906 7.172 13.451.088H0V31h13.451l-6.545-7.084V7.172Z"/><path d="M13.45.088V31l6.533-7.084V7.172L13.45.088Z"/></g></symbol><symbol id="next-arrow"><path d="M34.604 6.477h-.001L27.537.342c-.53-.459-1.385-.457-1.912.004-.527.462-.525 1.209.005 1.668l4.743 4.118H1.737c-.747 0-1.352.528-1.352 1.18 0 .65.605 1.179 1.352 1.179h28.636l-4.744 4.117c-.529.46-.53 1.206-.004 1.668.527.462 1.383.463 1.912.004l7.066-6.133v-.001c.53-.461.529-1.21 0-1.67Z"/></symbol><symbol id="payment-advantages" viewBox="0 0 34 41"><path fill-rule="evenodd" clip-rule="evenodd" d="M17.4.87a.5.5 0 0 1-.353.613L1.5 5.639v17.642a19.351 19.351 0 0 0 5.2 10.44c3.841 3.98 8.309 5.302 10.092 5.735a.5.5 0 0 1-.236.972c-1.863-.453-6.544-1.835-10.575-6.012A20.351 20.351 0 0 1 .506 23.395a.501.501 0 0 1-.006-.076V5.255a.5.5 0 0 1 .37-.483L16.79.517A.5.5 0 0 1 17.4.87Z"/><path fill-rule="evenodd" clip-rule="evenodd" d="M16.412.87a.5.5 0 0 1 .612-.353l15.918 4.255a.5.5 0 0 1 .371.483V23.32c0 .025-.002.05-.006.076a20.35 20.35 0 0 1-5.475 11.02c-4.03 4.178-8.712 5.56-10.575 6.013a.5.5 0 0 1-.236-.972c1.783-.433 6.25-1.755 10.091-5.734a19.351 19.351 0 0 0 5.201-10.441V5.639L16.766 1.483a.5.5 0 0 1-.354-.612Z"/><path fill-rule="evenodd" clip-rule="evenodd" d="M16.906 13.402c-4.042 0-7.279 3.122-7.279 6.925s3.237 6.925 7.279 6.925 7.279-3.122 7.279-6.925-3.237-6.925-7.279-6.925Zm-8.279 6.925c0-4.399 3.729-7.925 8.279-7.925s8.279 3.526 8.279 7.925c0 4.398-3.729 7.925-8.279 7.925s-8.279-3.527-8.279-7.925Z"/><path fill-rule="evenodd" clip-rule="evenodd" d="M16.906 15.172a.5.5 0 0 1 .5.5v4.266h3.1a.5.5 0 1 1 0 1h-3.6a.5.5 0 0 1-.5-.5v-4.766a.5.5 0 0 1 .5-.5Z"/></symbol><symbol id="percent-advantages" viewBox="0 0 42 40"><path fill-rule="evenodd" clip-rule="evenodd" d="M21 1.5C10.208 1.5 1.5 9.845 1.5 20.09S10.208 38.68 21 38.68s19.5-8.345 19.5-18.59S31.792 1.5 21 1.5ZM.5 20.09C.5 9.249 9.7.5 21 .5s20.5 8.749 20.5 19.59c0 10.84-9.2 19.59-20.5 19.59S.5 30.93.5 20.09Z"/><path fill-rule="evenodd" clip-rule="evenodd" d="M25.278 22.245c-1.279 0-2.275.984-2.275 2.148 0 1.165.996 2.149 2.275 2.149 1.278 0 2.274-.984 2.274-2.149 0-1.164-.996-2.148-2.274-2.148Zm-3.275 2.148c0-1.76 1.488-3.148 3.275-3.148 1.786 0 3.274 1.388 3.274 3.148 0 1.76-1.488 3.149-3.274 3.149-1.787 0-3.275-1.388-3.275-3.149ZM16.607 13.528c-1.278 0-2.274.983-2.274 2.148s.996 2.149 2.274 2.149c1.279 0 2.275-.984 2.275-2.149s-.996-2.148-2.275-2.148Zm-3.274 2.148c0-1.76 1.488-3.148 3.274-3.148 1.787 0 3.275 1.388 3.275 3.148 0 1.76-1.488 3.149-3.275 3.149-1.786 0-3.274-1.388-3.274-3.149ZM28.882 12.688a.5.5 0 0 1-.027.707c-2.52 2.333-5.04 4.67-7.56 7.006l-.002.002-7.56 7.006a.5.5 0 0 1-.679-.734c2.52-2.334 5.04-4.67 7.56-7.007l7.561-7.007a.5.5 0 0 1 .707.027Z"/></symbol><symbol id="prev-arrow" viewBox="0 0 35 15"><path d="m.397 8.523 7.066 6.134c.53.459 1.386.457 1.913-.004.526-.462.524-1.209-.005-1.668L4.627 8.867h28.636c.747 0 1.352-.528 1.352-1.18 0-.65-.605-1.179-1.352-1.179H4.627l4.744-4.117c.53-.46.531-1.206.004-1.668C8.85.261 7.992.26 7.463.72L.398 6.852l-.001.001c-.53.461-.528 1.21 0 1.67Z"/></symbol><symbol id="rocket" viewBox="0 0 13 12"><path d="M12.685.458V.455a.517.517 0 0 0-.383-.387c-.755-.185-1.943.012-3.26.539-1.326.532-2.57 1.317-3.41 2.16-.269.267-.52.553-.748.856-.566-.025-1.065.056-1.485.239C1.936 4.506.87 5.505.76 6.182a.633.633 0 0 0 .689.734h.003l2.278.47.006.058a.87.87 0 0 0 .251.525l.796.796c.14.142.326.23.524.251l.055.006.471 2.277v.003a.634.634 0 0 0 .729.69c.68-.11 1.679-1.171 2.32-2.642.182-.417.263-.914.24-1.478.304-.23.592-.48.86-.75.848-.842 1.636-2.075 2.162-3.382.524-1.302.722-2.498.542-3.282Zm-2.713 4.43a1.49 1.49 0 1 1 0-2.104 1.478 1.478 0 0 1 0 2.105Z"/><path d="M3.637 9.711a.405.405 0 0 0-.279.068c-.162.11-.324.22-.489.327-.332.216-.729-.163-.532-.507l.308-.532a.405.405 0 0 0-.384-.631c-.342.043-.66.199-.903.442-.092.093-.374.375-.526 1.451-.043.309-.07.62-.082.932a.405.405 0 0 0 .406.416h.01c.312-.011.623-.039.932-.082 1.076-.152 1.359-.434 1.451-.527.245-.243.4-.562.44-.905a.405.405 0 0 0-.352-.452Z"/></symbol><symbol id="ruble-advantages" viewBox="0 0 34 41"><path fill-rule="evenodd" clip-rule="evenodd" d="M11.599 11.905a.5.5 0 0 1 .5-.5h6.908c.026 0 .051.002.077.006.452.07 2.55.425 3.974 2.247l.004.005a5.858 5.858 0 0 1 1.181 3.215v.005c.014.332.078 2.265-1.368 3.997-.284.34-1.334 1.566-3.097 1.994l.003-.001-.124-.485.118.486h.003a3.46 3.46 0 0 1-.486.09.515.515 0 0 1-.053.002h-7.163a.5.5 0 0 1-.5-.503c.023-3.511.023-7.034.023-10.558Zm1 .5c0 3.189-.001 6.38-.02 9.561h6.632c.08-.01.187-.027.323-.062l.006-.002c1.438-.348 2.314-1.36 2.566-1.662a4.98 4.98 0 0 0 1.139-3.315 4.858 4.858 0 0 0-.976-2.653c-1.143-1.459-2.834-1.792-3.301-1.867h-6.369ZM9.226 26.134a.5.5 0 0 1 .5-.5h8.707a.5.5 0 0 1 0 1H9.726a.5.5 0 0 1-.5-.5Z"/><path fill-rule="evenodd" clip-rule="evenodd" d="M12.135 20.115a.5.5 0 0 1 .5.5v8.312a.5.5 0 0 1-1 0v-8.312a.5.5 0 0 1 .5-.5Z"/><path fill-rule="evenodd" clip-rule="evenodd" d="M10.02 22.466a.5.5 0 0 1 .5-.5h8.709a.5.5 0 1 1 0 1H10.52a.5.5 0 0 1-.5-.5Z"/><path fill-rule="evenodd" clip-rule="evenodd" d="M17.4.87a.5.5 0 0 1-.353.613L1.5 5.639v17.642a19.35 19.35 0 0 0 5.2 10.44c3.841 3.98 8.309 5.302 10.092 5.735a.5.5 0 0 1-.236.972c-1.863-.453-6.544-1.835-10.575-6.012A20.351 20.351 0 0 1 .506 23.395a.501.501 0 0 1-.006-.076V5.255a.5.5 0 0 1 .37-.483L16.79.517A.5.5 0 0 1 17.4.87Z"/><path fill-rule="evenodd" clip-rule="evenodd" d="M16.41.87a.5.5 0 0 1 .613-.353L32.94 4.772a.5.5 0 0 1 .37.483V23.32c0 .025-.001.05-.005.076a20.35 20.35 0 0 1-5.475 11.02c-4.031 4.178-8.713 5.56-10.575 6.013a.5.5 0 0 1-.237-.972c1.784-.433 6.251-1.755 10.092-5.734a19.35 19.35 0 0 0 5.2-10.441V5.639L16.766 1.483A.5.5 0 0 1 16.41.87Z"/><path fill-rule="evenodd" clip-rule="evenodd" d="M16.173 39.942a.5.5 0 0 1 .5-.5h.464a.5.5 0 0 1 0 1h-.463a.5.5 0 0 1-.5-.5Z"/></symbol><symbol id="search-icon" viewBox="0 0 18 17"><path d="m17.315 15.925-4.57-4.57a6.893 6.893 0 0 0 1.607-4.43A6.934 6.934 0 0 0 7.426 0 6.934 6.934 0 0 0 .5 6.926a6.934 6.934 0 0 0 6.926 6.926 6.893 6.893 0 0 0 4.428-1.607l4.571 4.57a.627.627 0 0 0 1.027-.204.629.629 0 0 0-.137-.686Zm-15.556-9A5.673 5.673 0 0 1 7.426 1.26a5.673 5.673 0 0 1 5.666 5.667 5.673 5.673 0 0 1-5.666 5.666 5.673 5.673 0 0 1-5.667-5.666Z"/></symbol></svg>