<?xml version="1.0" encoding="UTF-8"?><!DOCTYPE svg PUBLIC "-//W3C//DTD SVG 1.1//EN" "http://www.w3.org/Graphics/SVG/1.1/DTD/svg11.dtd"><svg xmlns="http://www.w3.org/2000/svg" xmlns:xlink="http://www.w3.org/1999/xlink"><symbol id="basket-icon" viewBox="0 0 20 17"><path d="M19.581 2.68a1.385 1.385 0 0 0-1.081-.516H3.42l-.134-.965A1.397 1.397 0 0 0 1.909 0H.727a.618.618 0 0 0 0 1.236H1.91a.155.155 0 0 1 .153.134l1.669 11.959a1.397 1.397 0 0 0 1.378 1.198h.67A1.857 1.857 0 0 0 7.527 17a1.857 1.857 0 0 0 1.748-2.473h3.304A1.857 1.857 0 0 0 14.327 17a1.857 1.857 0 0 0 1.748-2.473h1.343a.618.618 0 0 0 0-1.236H5.108a.155.155 0 0 1-.152-.133l-.154-1.103h12.174c.651 0 1.223-.463 1.36-1.1l1.524-7.109a1.385 1.385 0 0 0-.279-1.166ZM8.145 15.146a.619.619 0 1 1-1.237-.002.619.619 0 0 1 1.237.002Zm6.8 0a.619.619 0 1 1-1.238-.002.619.619 0 0 1 1.238.002Zm3.706-11.56-1.524 7.11a.155.155 0 0 1-.151.122H4.629L3.594 3.4h14.905c.062 0 .1.031.12.057a.15.15 0 0 1 .032.13Z"/></symbol><symbol id="catalog-btn-icon" viewBox="0 0 14 13"><path d="M5.857 2.5a2.5 2.5 0 1 1-5 0 2.5 2.5 0 0 1 5 0ZM13.857 2.5a2.5 2.5 0 1 1-5 0 2.5 2.5 0 0 1 5 0ZM13.857 10.5a2.5 2.5 0 1 1-5 0 2.5 2.5 0 0 1 5 0ZM5.857 10.5a2.5 2.5 0 1 1-5 0 2.5 2.5 0 0 1 5 0Z"/></symbol><symbol id="city-arrow" viewBox="0 0 12 7"><path fill-rule="evenodd" clip-rule="evenodd" d="m.546 1.382.908-.907 4.689 4.689 4.689-4.69.907.908L6.143 6.98.546 1.382Z"/></symbol><symbol id="favourite-icon" viewBox="0 0 20 17"><path d="M18.862 2.295C17.73.789 16.404.017 14.918 0h-.05c-2.15 0-4.004 1.614-4.866 2.511C9.138 1.614 7.286 0 5.134 0h-.05C3.6.017 2.275.79 1.124 2.32a5.404 5.404 0 0 0 .691 6.881l7.73 7.612a.654.654 0 0 0 .915 0l7.73-7.612a5.413 5.413 0 0 0 .673-6.906Zm-1.59 5.974-7.27 7.163-7.27-7.163a4.09 4.09 0 0 1-.545-5.19c.873-1.161 1.852-1.757 2.91-1.771h.038c2.276 0 4.334 2.566 4.354 2.592a.678.678 0 0 0 1.026 0c.021-.026 2.093-2.65 4.392-2.592a3.742 3.742 0 0 1 2.891 1.746 4.096 4.096 0 0 1-.526 5.215Z"/></symbol><symbol id="percent" viewBox="0 0 42 40"><path fill-rule="evenodd" clip-rule="evenodd" d="M21 1.5C10.208 1.5 1.5 9.845 1.5 20.09S10.208 38.68 21 38.68s19.5-8.345 19.5-18.59S31.792 1.5 21 1.5ZM.5 20.09C.5 9.249 9.7.5 21 .5s20.5 8.749 20.5 19.59c0 10.84-9.2 19.59-20.5 19.59S.5 30.93.5 20.09Z"/><path fill-rule="evenodd" clip-rule="evenodd" d="M25.278 22.245c-1.279 0-2.275.984-2.275 2.148 0 1.165.996 2.149 2.275 2.149 1.278 0 2.274-.984 2.274-2.149 0-1.164-.996-2.148-2.274-2.148Zm-3.275 2.148c0-1.76 1.488-3.148 3.275-3.148 1.786 0 3.274 1.388 3.274 3.148 0 1.76-1.488 3.149-3.274 3.149-1.787 0-3.275-1.388-3.275-3.149ZM16.607 13.528c-1.278 0-2.274.983-2.274 2.148s.996 2.149 2.274 2.149c1.279 0 2.275-.984 2.275-2.149s-.996-2.148-2.275-2.148Zm-3.274 2.148c0-1.76 1.488-3.148 3.274-3.148 1.787 0 3.275 1.388 3.275 3.148 0 1.76-1.488 3.149-3.275 3.149-1.786 0-3.274-1.388-3.274-3.149ZM28.882 12.688a.5.5 0 0 1-.027.707c-2.52 2.333-5.04 4.67-7.56 7.006l-.002.002-7.56 7.006a.5.5 0 0 1-.679-.734c2.52-2.334 5.04-4.67 7.56-7.007l7.561-7.007a.5.5 0 0 1 .707.027Z"/></symbol><symbol id="rocket" viewBox="0 0 13 12"><path d="M12.685.458V.455a.517.517 0 0 0-.383-.387c-.755-.185-1.943.012-3.26.539-1.326.532-2.57 1.317-3.41 2.16-.269.267-.52.553-.748.856-.566-.025-1.065.056-1.485.239C1.936 4.506.87 5.505.76 6.182a.633.633 0 0 0 .689.734h.003l2.278.47.006.058a.87.87 0 0 0 .251.525l.796.796c.14.142.326.23.524.251l.055.006.471 2.277v.003a.634.634 0 0 0 .729.69c.68-.11 1.679-1.171 2.32-2.642.182-.417.263-.914.24-1.478.304-.23.592-.48.86-.75.848-.842 1.636-2.075 2.162-3.382.524-1.302.722-2.498.542-3.282Zm-2.713 4.43a1.49 1.49 0 1 1 0-2.104 1.478 1.478 0 0 1 0 2.105Z"/><path d="M3.637 9.711a.405.405 0 0 0-.279.068c-.162.11-.324.22-.489.327-.332.216-.729-.163-.532-.507l.308-.532a.405.405 0 0 0-.384-.631c-.342.043-.66.199-.903.442-.092.093-.374.375-.526 1.451-.043.309-.07.62-.082.932a.405.405 0 0 0 .406.416h.01c.312-.011.623-.039.932-.082 1.076-.152 1.359-.434 1.451-.527.245-.243.4-.562.44-.905a.405.405 0 0 0-.352-.452Z"/></symbol><symbol id="ruble-guarente" viewBox="0 0 34 41"><path fill-rule="evenodd" clip-rule="evenodd" d="M11.599 11.905a.5.5 0 0 1 .5-.5h6.908c.026 0 .051.002.077.006.452.07 2.55.425 3.974 2.247l.004.005a5.858 5.858 0 0 1 1.181 3.215v.005c.014.332.078 2.265-1.368 3.997-.284.34-1.334 1.566-3.097 1.994l.003-.001-.124-.485.118.486h.003a3.46 3.46 0 0 1-.486.09.515.515 0 0 1-.053.002h-7.163a.5.5 0 0 1-.5-.503c.023-3.511.023-7.034.023-10.558Zm1 .5c0 3.189-.001 6.38-.02 9.561h6.632c.08-.01.187-.027.323-.062l.006-.002c1.438-.348 2.314-1.36 2.566-1.662a4.98 4.98 0 0 0 1.139-3.315 4.858 4.858 0 0 0-.976-2.653c-1.143-1.459-2.834-1.792-3.301-1.867h-6.369ZM9.226 26.134a.5.5 0 0 1 .5-.5h8.707a.5.5 0 0 1 0 1H9.726a.5.5 0 0 1-.5-.5Z"/><path fill-rule="evenodd" clip-rule="evenodd" d="M12.135 20.115a.5.5 0 0 1 .5.5v8.312a.5.5 0 0 1-1 0v-8.312a.5.5 0 0 1 .5-.5Z"/><path fill-rule="evenodd" clip-rule="evenodd" d="M10.02 22.466a.5.5 0 0 1 .5-.5h8.709a.5.5 0 1 1 0 1H10.52a.5.5 0 0 1-.5-.5Z"/><path fill-rule="evenodd" clip-rule="evenodd" d="M17.4.87a.5.5 0 0 1-.353.613L1.5 5.639v17.642a19.35 19.35 0 0 0 5.2 10.44c3.841 3.98 8.309 5.302 10.092 5.735a.5.5 0 0 1-.236.972c-1.863-.453-6.544-1.835-10.575-6.012A20.351 20.351 0 0 1 .506 23.395a.501.501 0 0 1-.006-.076V5.255a.5.5 0 0 1 .37-.483L16.79.517A.5.5 0 0 1 17.4.87Z"/><path fill-rule="evenodd" clip-rule="evenodd" d="M16.41.87a.5.5 0 0 1 .613-.353L32.94 4.772a.5.5 0 0 1 .37.483V23.32c0 .025-.001.05-.005.076a20.35 20.35 0 0 1-5.475 11.02c-4.031 4.178-8.713 5.56-10.575 6.013a.5.5 0 0 1-.237-.972c1.784-.433 6.251-1.755 10.092-5.734a19.35 19.35 0 0 0 5.2-10.441V5.639L16.766 1.483A.5.5 0 0 1 16.41.87Z"/><path fill-rule="evenodd" clip-rule="evenodd" d="M16.173 39.942a.5.5 0 0 1 .5-.5h.464a.5.5 0 0 1 0 1h-.463a.5.5 0 0 1-.5-.5Z"/></symbol><symbol id="search-icon" viewBox="0 0 18 17"><path d="m17.315 15.925-4.57-4.57a6.893 6.893 0 0 0 1.607-4.43A6.934 6.934 0 0 0 7.426 0 6.934 6.934 0 0 0 .5 6.926a6.934 6.934 0 0 0 6.926 6.926 6.893 6.893 0 0 0 4.428-1.607l4.571 4.57a.627.627 0 0 0 1.027-.204.629.629 0 0 0-.137-.686Zm-15.556-9A5.673 5.673 0 0 1 7.426 1.26a5.673 5.673 0 0 1 5.666 5.667 5.673 5.673 0 0 1-5.666 5.666 5.673 5.673 0 0 1-5.667-5.666Z"/></symbol><symbol id="time"><path fill-rule="evenodd" clip-rule="evenodd" d="M17.4.87a.5.5 0 0 1-.353.613L1.5 5.639v17.642a19.351 19.351 0 0 0 5.2 10.44c3.841 3.98 8.309 5.302 10.092 5.735a.5.5 0 0 1-.236.972c-1.863-.453-6.544-1.835-10.575-6.012A20.351 20.351 0 0 1 .506 23.395a.501.501 0 0 1-.006-.076V5.255a.5.5 0 0 1 .37-.483L16.79.517A.5.5 0 0 1 17.4.87Z"/><path fill-rule="evenodd" clip-rule="evenodd" d="M16.412.87a.5.5 0 0 1 .612-.353l15.918 4.255a.5.5 0 0 1 .371.483V23.32c0 .025-.002.05-.006.076a20.35 20.35 0 0 1-5.475 11.02c-4.03 4.178-8.712 5.56-10.575 6.013a.5.5 0 0 1-.236-.972c1.783-.433 6.25-1.755 10.091-5.734a19.351 19.351 0 0 0 5.201-10.441V5.639L16.766 1.483a.5.5 0 0 1-.354-.612Z"/><path fill-rule="evenodd" clip-rule="evenodd" d="M16.906 13.402c-4.042 0-7.279 3.122-7.279 6.925s3.237 6.925 7.279 6.925 7.279-3.122 7.279-6.925-3.237-6.925-7.279-6.925Zm-8.279 6.925c0-4.399 3.729-7.925 8.279-7.925s8.279 3.526 8.279 7.925c0 4.398-3.729 7.925-8.279 7.925s-8.279-3.527-8.279-7.925Z"/><path fill-rule="evenodd" clip-rule="evenodd" d="M16.906 15.172a.5.5 0 0 1 .5.5v4.266h3.1a.5.5 0 1 1 0 1h-3.6a.5.5 0 0 1-.5-.5v-4.766a.5.5 0 0 1 .5-.5Z"/></symbol></svg>