<svg width="20" height="17" viewBox="0 0 20 17" fill="none" xmlns="http://www.w3.org/2000/svg">
<path d="M19.5814 2.68024C19.3161 2.35191 18.9217 2.16364 18.4994 2.16364H3.42145L3.28681 1.19865C3.19145 0.515332 2.59923 0 1.90923 0H0.727069C0.385678 0 0.108887 0.276791 0.108887 0.618182C0.108887 0.959573 0.385678 1.23636 0.727069 1.23636H1.90923C1.94647 1.2365 1.98243 1.25003 2.01053 1.27448C2.03862 1.29893 2.05699 1.33267 2.06226 1.36954L3.73093 13.3286C3.82628 14.012 4.4185 14.5273 5.10851 14.5273H5.77881C5.70836 14.7258 5.6724 14.9348 5.67248 15.1455C5.67248 16.168 6.50444 17 7.52703 17C8.54962 17 9.38158 16.168 9.38158 15.1455C9.38158 14.9287 9.34387 14.7208 9.27525 14.5273H12.5788C12.5084 14.7258 12.4724 14.9348 12.4725 15.1455C12.4725 16.168 13.3044 17 14.327 17C15.3496 17 16.1816 16.168 16.1816 15.1455C16.1816 14.9287 16.1439 14.7208 16.0753 14.5273H17.418C17.7594 14.5273 18.0362 14.2505 18.0362 13.9091C18.0362 13.5677 17.7594 13.2909 17.418 13.2909H5.10855C5.0713 13.2908 5.03535 13.2772 5.00725 13.2528C4.97915 13.2283 4.96079 13.1946 4.95551 13.1577L4.80158 12.0545H16.976C17.6273 12.0545 18.1993 11.5923 18.3362 10.955L19.8596 3.84606C19.9481 3.43338 19.8467 3.00846 19.5814 2.68024ZM8.14525 15.1455C8.14525 15.4863 7.86792 15.7636 7.52707 15.7636C7.18622 15.7636 6.90889 15.4863 6.90889 15.1455C6.90889 14.8046 7.18622 14.5273 7.52707 14.5273C7.86792 14.5273 8.14525 14.8046 8.14525 15.1455ZM14.9453 15.1455C14.9453 15.4863 14.6679 15.7636 14.3271 15.7636C13.9862 15.7636 13.7089 15.4863 13.7089 15.1455C13.7089 14.8046 13.9862 14.5273 14.3271 14.5273C14.6679 14.5273 14.9453 14.8046 14.9453 15.1455ZM18.6507 3.58688L17.1273 10.6957C17.1198 10.7303 17.1007 10.7612 17.0731 10.7835C17.0456 10.8057 17.0114 10.818 16.976 10.8181H4.62903L3.59396 3.39996H18.4994C18.5606 3.39996 18.5987 3.43118 18.6198 3.45738C18.641 3.48353 18.6635 3.52723 18.6507 3.58688Z" fill="#2B3B50"/>
</svg>
