<svg width="20" height="17" viewBox="0 0 20 17" fill="none" xmlns="http://www.w3.org/2000/svg">
<path d="M18.8619 2.29454C17.7307 0.789257 16.4039 0.0170014 14.9182 0H14.8685C12.7172 0 10.8641 1.61448 10.0016 2.51098C9.13841 1.61448 7.28591 0 5.13393 0H5.08489C3.59857 0.0170014 2.27312 0.789257 1.12291 2.32069C0.415848 3.36752 0.0978306 4.62895 0.224095 5.88587C0.35036 7.14278 0.912929 8.31575 1.81408 9.20103L9.54383 16.8131C9.66606 16.9329 9.8304 17 10.0016 17C10.1727 17 10.3371 16.9329 10.4593 16.8131L18.1884 9.20103C19.0919 8.31109 19.6543 7.13214 19.7774 5.8699C19.9005 4.60766 19.5765 3.34227 18.8619 2.29454ZM17.2716 8.26922L10.0016 15.432L2.7315 8.26922C2.05061 7.60301 1.62366 6.71999 1.52433 5.77258C1.42501 4.82517 1.65954 3.87281 2.18745 3.07987C3.06041 1.91789 4.03865 1.32153 5.09731 1.3078H5.13524C7.41081 1.3078 9.46863 3.8737 9.4889 3.89986C9.55256 3.97361 9.63136 4.03277 9.71994 4.07332C9.80852 4.11388 9.90479 4.13487 10.0022 4.13487C10.0996 4.13487 10.1959 4.11388 10.2845 4.07332C10.3731 4.03277 10.4519 3.97361 10.5155 3.89986C10.5364 3.8737 12.608 1.25026 14.9071 1.3078C15.4921 1.35186 16.0585 1.53283 16.5607 1.83611C17.0629 2.13938 17.4867 2.55647 17.798 3.05371C18.3337 3.84751 18.5744 4.80389 18.4782 5.75668C18.382 6.70947 17.9551 7.59847 17.2716 8.26922Z" fill="#2B3B50"/>
</svg>
