<svg width="18" height="17" viewBox="0 0 18 17" fill="none" xmlns="http://www.w3.org/2000/svg">
<path d="M17.3154 15.9251L12.7449 11.3545C13.747 10.153 14.3517 8.60916 14.3517 6.92586C14.3517 3.10688 11.2448 0 7.42586 0C3.60688 0 0.5 3.10688 0.5 6.92586C0.5 10.7448 3.60688 13.8517 7.42586 13.8517C9.10916 13.8517 10.653 13.247 11.8545 12.2449L16.4251 16.8155C16.548 16.9385 16.7092 17 16.8702 17C17.0312 17 17.1924 16.9385 17.3154 16.8155C17.3739 16.7571 17.4202 16.6877 17.4519 16.6113C17.4836 16.5349 17.4999 16.453 17.4999 16.3703C17.4999 16.2876 17.4836 16.2057 17.4519 16.1293C17.4202 16.0529 17.3739 15.9835 17.3154 15.9251ZM1.75925 6.92586C1.75925 3.80135 4.30104 1.25925 7.42586 1.25925C10.5507 1.25925 13.0925 3.80135 13.0925 6.92586C13.0925 10.0504 10.5507 12.5925 7.42586 12.5925C4.30104 12.5925 1.75925 10.0504 1.75925 6.92586Z" fill="#2B3B50"/>
</svg>
