<svg width="19" height="18" viewBox="0 0 19 18" fill="none" xmlns="http://www.w3.org/2000/svg">
<path d="M18.6522 0.686319V0.682899C18.62 0.542013 18.5491 0.412913 18.4475 0.310163C18.3459 0.207413 18.2176 0.135104 18.0771 0.101392C16.9445 -0.174918 15.1627 0.119636 13.1883 0.91018C11.1982 1.70833 9.33361 2.88654 8.0733 4.14913C7.66934 4.55095 7.29405 4.98059 6.9502 5.43491C6.1015 5.3969 5.3539 5.51776 4.72413 5.79255C2.52961 6.75831 0.929897 8.25692 0.763047 9.27171C0.738903 9.41589 0.748357 9.56371 0.790672 9.70365C0.832987 9.84358 0.907022 9.97187 1.00702 10.0785C1.10701 10.1852 1.23026 10.2673 1.36719 10.3185C1.50411 10.3698 1.65101 10.3887 1.79645 10.3739H1.8014L5.21898 11.0801C5.22202 11.1112 5.22544 11.1397 5.2281 11.166C5.2595 11.4639 5.39234 11.7419 5.60437 11.9535L6.79741 13.1473C7.00867 13.3596 7.28665 13.4926 7.58453 13.5239L7.66625 13.5327L8.37318 16.9472V16.9521C8.35958 17.0836 8.37357 17.2165 8.41426 17.3423C8.45494 17.4681 8.52143 17.584 8.60946 17.6826C8.69749 17.7812 8.80514 17.8604 8.92551 17.9151C9.04588 17.9697 9.17633 17.9986 9.30853 18C9.36137 18 9.41412 17.9957 9.46625 17.9871C10.4867 17.8229 11.9842 16.2308 12.9473 14.0245C13.2198 13.3989 13.3403 12.6543 13.3065 11.8071C13.7628 11.4641 14.194 11.0887 14.5968 10.684C15.8674 9.41993 17.0494 7.57052 17.8392 5.60936C18.6255 3.65732 18.9216 1.86225 18.6522 0.686319ZM14.5831 7.33297C14.2708 7.64559 13.8728 7.85856 13.4395 7.94493C13.0061 8.03131 12.5569 7.98721 12.1486 7.81822C11.7403 7.64922 11.3913 7.36293 11.1458 6.99556C10.9003 6.62818 10.7692 6.19623 10.7692 5.75435C10.7692 5.31248 10.9003 4.88053 11.1458 4.51315C11.3913 4.14578 11.7403 3.85948 12.1486 3.69049C12.5569 3.5215 13.0061 3.4774 13.4395 3.56378C13.8728 3.65015 14.2708 3.86312 14.5831 4.17574C14.7924 4.38191 14.9587 4.62765 15.0721 4.89867C15.1856 5.16968 15.244 5.46055 15.244 5.75435C15.244 6.04816 15.1856 6.33903 15.0721 6.61004C14.9587 6.88106 14.7924 7.1268 14.5831 7.33297Z" fill="#2B3B50"/>
<path d="M5.08033 14.5665C4.93326 14.5483 4.78459 14.5844 4.66225 14.668C4.41939 14.8341 4.17539 14.9983 3.9291 15.1583C3.43083 15.4821 2.83488 14.9135 3.13096 14.3981L3.59274 13.6C3.65876 13.5034 3.69552 13.3899 3.69862 13.2729C3.70171 13.156 3.67101 13.0406 3.61019 12.9407C3.54937 12.8407 3.46102 12.7605 3.35572 12.7095C3.25043 12.6585 3.13267 12.639 3.01655 12.6533C2.50403 12.7181 2.02763 12.9515 1.66237 13.3168C1.52326 13.4563 1.10024 13.8797 0.872583 15.4931C0.807781 15.9566 0.766932 16.423 0.7502 16.8906C0.748119 16.9718 0.762312 17.0526 0.79194 17.1281C0.821567 17.2037 0.86603 17.2726 0.922707 17.3307C0.979384 17.3889 1.04713 17.4351 1.12194 17.4666C1.19675 17.4981 1.27712 17.5144 1.35831 17.5143H1.37351C1.84151 17.4978 2.30834 17.4572 2.77217 17.3927C4.38632 17.1647 4.80972 16.7413 4.94883 16.6022C5.31585 16.2368 5.54875 15.7581 5.60977 15.2438C5.62931 15.0838 5.58452 14.9226 5.48524 14.7956C5.38596 14.6686 5.24032 14.5862 5.08033 14.5665Z" fill="#2B3B50"/>
</svg>
